<svg width="62" height="61" viewBox="0 0 62 61" fill="none" xmlns="http://www.w3.org/2000/svg">
<path d="M8.56701 0V3.07775H18.1448V0H8.56701ZM8.56701 5.43371V17.3071C3.77813 19.5769 0.58606 22.4141 0.58606 24.6838V58.8143C0.58606 58.8143 0.585523 61 3.77811 61H22.9203C26.1259 61 26.1258 58.7302 26.1258 58.7302V24.6838C26.1258 22.414 22.9335 19.5768 18.1448 17.3071V5.43371H8.56701ZM3.59767 29.3219H23.1141V50.5279H3.59767V29.3219ZM39.4111 29.7146L39.0335 30.5202C37.4733 33.848 36.6781 38.17 37.8859 41.8915C38.4898 43.7523 39.622 45.4848 41.5399 46.7706C43.1251 47.8333 45.2416 48.5421 47.7859 48.7567V58.5271C44.2142 59.0752 39.5006 61 39.5006 61H59.3853C59.3853 61 54.6717 59.0751 51.1 58.5273V48.7567C53.6445 48.5421 55.7608 47.8333 57.346 46.7706C59.264 45.4849 60.3959 43.7523 61 41.8914C62.2078 38.1699 61.4126 33.848 59.8524 30.5202L59.475 29.7146H39.4111ZM6.91179 31.6781V48.1717H19.8V31.6781H6.91179ZM41.8395 32.0708H57.0465C57.5324 33.2831 57.8987 34.6319 58.0923 35.9979H40.7937C40.9872 34.6319 41.3536 33.2831 41.8395 32.0708ZM40.6453 38.3541H58.2407C58.2193 39.4065 58.0737 40.4283 57.7706 41.3618C57.2698 42.9043 56.3766 44.1825 55.0725 45.0566C53.7686 45.9308 52.0438 46.47 49.443 46.47C46.8423 46.47 45.1173 45.9306 43.8134 45.0566C42.5095 44.1826 41.6159 42.9043 41.1153 41.3618C40.8123 40.4283 40.6666 39.4064 40.6453 38.3541Z" fill="black"/>
</svg>
