<svg width="53" height="51" viewBox="0 0 53 51" fill="none" xmlns="http://www.w3.org/2000/svg">
<path d="M38.1138 5.08333C38.1138 6.43152 37.5782 7.72448 36.6249 8.67779C35.6716 9.6311 34.3787 10.1667 33.0305 10.1667C31.6823 10.1667 30.3893 9.6311 29.436 8.67779C28.4827 7.72448 27.9471 6.43152 27.9471 5.08333C27.9471 3.73515 28.4827 2.44218 29.436 1.48887C30.3893 0.535564 31.6823 0 33.0305 0C34.3787 0 35.6716 0.535564 36.6249 1.48887C37.5782 2.44218 38.1138 3.73515 38.1138 5.08333Z" fill="black"/>
<path fill-rule="evenodd" clip-rule="evenodd" d="M10.6891 10.2861C12.4347 9.19522 14.4183 8.54294 16.4706 8.38493C18.5229 8.22693 20.5829 8.56789 22.4749 9.37872C23.1686 9.67602 23.7789 10.1388 24.2523 10.7266C24.7257 11.3144 25.0479 12.0092 25.1906 12.7503C25.3333 13.4915 25.2922 14.2563 25.0709 14.9778C24.8496 15.6994 24.4548 16.3557 23.9211 16.8893L19.7171 21.0933C19.507 21.303 19.343 21.5543 19.2355 21.831C19.128 22.1078 19.0793 22.4039 19.0927 22.7005C19.1061 22.9971 19.1812 23.2876 19.3133 23.5536C19.4453 23.8195 19.6313 24.055 19.8595 24.2449L22.3935 26.3545C23.1377 26.975 23.7363 27.7515 24.147 28.6291C24.5577 29.5067 24.7704 30.4638 24.77 31.4328V35.5833C24.77 36.0889 24.5691 36.5737 24.2116 36.9312C23.8542 37.2887 23.3693 37.4896 22.8637 37.4896C22.3582 37.4896 21.8733 37.2887 21.5158 36.9312C21.1583 36.5737 20.9575 36.0889 20.9575 35.5833V31.4328C20.9578 31.0225 20.8678 30.6171 20.6938 30.2455C20.5199 29.8739 20.2662 29.5451 19.951 29.2825L17.4195 27.1729C16.7841 26.6441 16.2659 25.9886 15.898 25.2483C15.5301 24.508 15.3205 23.6991 15.2827 22.8733C15.2449 22.0475 15.3797 21.2229 15.6785 20.4521C15.9773 19.6813 16.4334 18.9812 17.0179 18.3966L21.2218 14.1926C21.3151 14.0994 21.3841 13.9847 21.4228 13.8586C21.4614 13.7325 21.4685 13.5988 21.4434 13.4693C21.4183 13.3398 21.3618 13.2185 21.2788 13.1159C21.1959 13.0134 21.089 12.9327 20.9676 12.8811C19.6416 12.3128 18.1978 12.0738 16.7594 12.1844C15.321 12.2951 13.9307 12.7521 12.7072 13.5166L7.35448 16.869C7.1422 17.0017 6.90586 17.0913 6.65897 17.1326C6.41207 17.1739 6.15945 17.1662 5.91553 17.11C5.6716 17.0537 5.44116 16.9499 5.23734 16.8045C5.03353 16.6592 4.86034 16.4751 4.72767 16.2628C4.45971 15.8341 4.37305 15.3165 4.48673 14.8239C4.60041 14.3313 4.90513 13.904 5.33385 13.636L10.6891 10.2861ZM24.77 20.3333C24.77 19.8277 24.9708 19.3429 25.3283 18.9854C25.6858 18.6279 26.1707 18.4271 26.6762 18.4271H34.3012C34.8068 18.4271 35.2917 18.6279 35.6492 18.9854C36.0066 19.3429 36.2075 19.8277 36.2075 20.3333C36.2075 20.8389 36.0066 21.3237 35.6492 21.6812C35.2917 22.0387 34.8068 22.2396 34.3012 22.2396H26.6762C26.1707 22.2396 25.6858 22.0387 25.3283 21.6812C24.9708 21.3237 24.77 20.8389 24.77 20.3333ZM14.0441 29.1529C14.4011 29.5103 14.6016 29.9948 14.6016 30.5C14.6016 31.0051 14.4011 31.4896 14.0441 31.8471L13.2105 32.6833C13.1384 32.7552 13.0664 32.8272 12.9944 32.8993C11.7389 34.1574 10.7451 35.1512 9.45389 35.6875C8.16019 36.2213 6.75719 36.2213 4.98056 36.2213L4.67556 36.2187H2.5304C2.02483 36.2187 1.53996 36.0179 1.18247 35.6604C0.824982 35.3029 0.624146 34.818 0.624146 34.3125C0.624146 33.8069 0.824982 33.322 1.18247 32.9646C1.53996 32.6071 2.02483 32.4062 2.5304 32.4062H4.67302C6.90714 32.4062 7.49427 32.3732 7.99498 32.1648C8.49823 31.9563 8.93539 31.5649 10.5138 29.9866L11.35 29.1529C11.7074 28.7959 12.1919 28.5954 12.6971 28.5954C13.2022 28.5954 13.6867 28.7959 14.0441 29.1529Z" fill="black"/>
<path d="M2.75157 50.8333H44.44C45.3239 50.8321 46.1979 50.6472 47.0066 50.2905C47.8154 49.9338 48.5412 49.4129 49.1381 48.761C49.735 48.1091 50.19 47.3403 50.4742 46.5033C50.7584 45.6664 50.8657 44.7795 50.7892 43.8989C50.7127 43.0183 50.4541 42.1632 50.0298 41.3878C49.6056 40.6124 49.0248 39.9335 48.3245 39.3943C47.6241 38.855 46.8194 38.4672 45.9612 38.2552C45.1031 38.0433 44.2103 38.0119 43.3394 38.1631L42.9252 38.2368L45.8227 17.7916V17.784C45.9574 16.8944 46.0387 16.3785 46.1378 16.0074C46.1622 15.9069 46.1962 15.809 46.2395 15.7151L46.2547 15.6846L46.2598 15.682L46.2852 15.6643C46.3778 15.616 46.4749 15.5768 46.575 15.5473C46.9435 15.4304 47.4544 15.3262 48.3415 15.1483L51.1957 14.5764C51.4482 14.5349 51.6897 14.443 51.9059 14.3062C52.1221 14.1693 52.3085 13.9904 52.4541 13.78C52.5997 13.5696 52.7014 13.332 52.7532 13.0814C52.805 12.8309 52.8058 12.5725 52.7557 12.3216C52.7055 12.0707 52.6053 11.8325 52.4611 11.6211C52.3169 11.4098 52.1317 11.2296 51.9164 11.0914C51.7011 10.9531 51.4602 10.8597 51.208 10.8165C50.9558 10.7733 50.6975 10.7814 50.4485 10.8402L47.5078 11.4248C46.7377 11.5823 46.0107 11.7272 45.416 11.9178C44.6893 12.1254 44.0284 12.5166 43.497 13.054C42.9201 13.6589 42.6329 14.3502 42.455 15.0263C42.2923 15.6287 42.183 16.3607 42.0661 17.141L42.0534 17.2274L38.978 38.9281L2.27628 45.3509C1.59778 45.4723 0.989152 45.8429 0.569887 46.39C0.150622 46.9371 -0.0489967 47.6212 0.0102203 48.3079C0.0694372 48.9946 0.383213 49.6344 0.889945 50.1017C1.39668 50.5689 2.06231 50.8299 2.75157 50.8333Z" fill="black"/>
</svg>
