<svg width="61" height="61" viewBox="0 0 61 61" fill="none" xmlns="http://www.w3.org/2000/svg">
<path d="M43.5714 3.66C45.6338 1.22 48.2481 0 51.4143 0C54.0576 0 56.2652 0.981951 58.0952 2.97561C59.9252 4.96927 60.8838 7.23073 61 9.81951C61 11.9024 60.0414 14.3127 58.0952 17.1395C56.1491 19.9663 54.261 22.3171 52.3729 24.2512C50.4848 26.1556 47.551 28.9824 43.5714 32.7317C39.5338 28.9824 36.571 26.1556 34.6829 24.2512C31.8507 21.3946 30.8776 19.9663 28.9605 17.1395C27.0433 14.3127 26.1429 11.9024 26.1429 9.81951C26.1429 7.11171 27.0724 4.85024 28.9605 2.97561C30.8486 1.10098 33.1143 0.119024 35.7576 0C38.8657 0 41.451 1.22 43.5714 3.66ZM61 50.5854V53.561L37.7619 61L17.4286 55.2273V59.5122H0V26.7805H23.151L41.0443 33.6244C42.6387 34.2405 44.0124 35.3391 44.9826 36.7742C45.9529 38.2093 46.4738 39.9129 46.4762 41.6585H52.2857C57.1076 41.6585 61 45.6459 61 50.5854ZM11.619 53.561V32.7317H5.80952V53.561H11.619ZM54.9 49.3059C54.4352 48.3239 53.4186 47.6098 52.2857 47.6098H36.7452C35.1767 47.6098 33.6371 47.3717 32.1557 46.8659L25.2424 44.5151L27.0724 38.8615L33.9857 41.2122C34.8571 41.5098 40.6667 41.6585 40.6667 41.6585C40.6667 40.5576 39.9986 39.5756 39.011 39.1888L22.1052 32.7317H17.4286V49.0976L37.6748 54.781L54.9 49.3059Z" fill="black"/>
</svg>
