<svg width="61" height="61" viewBox="0 0 61 61" fill="none" xmlns="http://www.w3.org/2000/svg">
<path d="M55.114 11.3488H50.2982V7.80233C50.2982 5.73302 49.6781 3.74847 48.5743 2.28525C47.4705 0.822028 45.9733 0 44.4123 0H5.88596C4.32491 0 2.82779 0.822028 1.72396 2.28525C0.620127 3.74847 0 5.73302 0 7.80233V41.8488C0 43.9181 0.620127 45.9027 1.72396 47.3659C2.82779 48.8291 4.32491 49.6512 5.88596 49.6512H21.136H36.386V53.1977C36.386 55.267 37.0061 57.2515 38.1099 58.7148C39.2138 60.178 40.7109 61 42.2719 61H55.114C56.6751 61 58.1722 60.178 59.276 58.7148C60.3799 57.2515 61 55.267 61 53.1977V19.1512C61 17.0819 60.3799 15.0973 59.276 13.6341C58.1722 12.1709 56.6751 11.3488 55.114 11.3488ZM5.88596 45.3953C5.17639 45.3953 4.49589 45.0217 3.99414 44.3566C3.4924 43.6915 3.21053 42.7894 3.21053 41.8488V7.80233C3.21053 6.86173 3.4924 5.95966 3.99414 5.29456C4.49589 4.62946 5.17639 4.25581 5.88596 4.25581H44.4123C45.1219 4.25581 45.8024 4.62946 46.3041 5.29456C46.8058 5.95966 47.0877 6.86173 47.0877 7.80233V11.3488H42.2719C40.7109 11.3488 39.2138 12.1709 38.1099 13.6341C37.0061 15.0973 36.386 17.0819 36.386 19.1512V45.3953H5.88596ZM57.7895 53.1977C57.7895 54.1383 57.5076 55.0403 57.0059 55.7054C56.5041 56.3705 55.8236 56.7442 55.114 56.7442H42.2719C41.5624 56.7442 40.8818 56.3705 40.3801 55.7054C39.8784 55.0403 39.5965 54.1383 39.5965 53.1977V19.1512C39.5965 18.2106 39.8784 17.3085 40.3801 16.6434C40.8818 15.9783 41.5624 15.6047 42.2719 15.6047H55.114C55.8236 15.6047 56.5041 15.9783 57.0059 16.6434C57.5076 17.3085 57.7895 18.2106 57.7895 19.1512V53.1977ZM31.0351 58.8721C31.0351 59.4364 30.866 59.9777 30.5649 60.3768C30.2639 60.7758 29.8556 61 29.4298 61H18.7281C18.3023 61 17.894 60.7758 17.593 60.3768C17.2919 59.9777 17.1228 59.4364 17.1228 58.8721C17.1228 58.3077 17.2919 57.7665 17.593 57.3674C17.894 56.9684 18.3023 56.7442 18.7281 56.7442H29.4298C29.8556 56.7442 30.2639 56.9684 30.5649 57.3674C30.866 57.7665 31.0351 58.3077 31.0351 58.8721ZM52.4386 24.8256C52.4386 25.3899 52.2695 25.9312 51.9684 26.3302C51.6674 26.7293 51.2591 26.9535 50.8333 26.9535H46.5526C46.1269 26.9535 45.7186 26.7293 45.4175 26.3302C45.1165 25.9312 44.9474 25.3899 44.9474 24.8256C44.9474 24.2612 45.1165 23.72 45.4175 23.3209C45.7186 22.9219 46.1269 22.6977 46.5526 22.6977H50.8333C51.2591 22.6977 51.6674 22.9219 51.9684 23.3209C52.2695 23.72 52.4386 24.2612 52.4386 24.8256Z" fill="black"/>
</svg>
