Ferramentas<svg width="61" height="61" viewBox="0 0 61 61" fill="none" xmlns="http://www.w3.org/2000/svg">
<path d="M59.704 47.1393L45.7534 33.1893C43.0014 30.4375 38.8913 29.9014 35.5794 31.5334L22.8797 18.8343V11.4364L7.63053 0L0.00595661 7.62426L11.4428 22.8728H18.841L31.5407 35.5719C29.9205 38.8837 30.4447 42.9937 33.1967 45.7455L47.1473 59.6955C48.8866 61.4348 51.6982 61.4348 53.4256 59.6955L59.704 53.4174C61.4314 51.6782 61.4314 48.8667 59.704 47.1393ZM39.5227 26.804C42.8942 26.804 46.0632 28.1144 48.4458 30.497L50.757 32.8081C52.6394 31.9861 54.4264 30.8425 55.9751 29.2938C60.395 24.8741 61.8961 18.6556 60.4903 13.0089C60.2282 11.9367 58.882 11.5674 58.0957 12.3537L49.2321 21.2169L41.1429 19.8707L39.7967 11.7819L48.6603 2.91866C49.4466 2.13241 49.0653 0.786251 47.9812 0.512255C42.3343 -0.881555 36.1155 0.619471 31.7075 5.02724C28.3122 8.42242 26.7158 12.9017 26.7992 17.369L36.5801 27.1495C37.5451 26.9232 38.5458 26.804 39.5227 26.804ZM27.1447 36.5726L20.3898 29.818L2.23376 47.9852C-0.744587 50.9634 -0.744587 55.7881 2.23376 58.7663C5.21211 61.7446 10.037 61.7446 13.0154 58.7663L27.7404 44.042C26.8349 41.6713 26.5609 39.0862 27.1447 36.5726ZM7.63053 56.2289C6.05796 56.2289 4.77132 54.9423 4.77132 53.3698C4.77132 51.7854 6.04605 50.5107 7.63053 50.5107C9.21501 50.5107 10.4897 51.7854 10.4897 53.3698C10.4897 54.9423 9.21501 56.2289 7.63053 56.2289Z" fill="black"/>
</svg>
