<svg width="61" height="61" viewBox="0 0 61 61" fill="none" xmlns="http://www.w3.org/2000/svg">
<path d="M20.277 0L17.161 1.39974C17.161 5.80383 17.2838 13.4804 19.2947 19.4066C28.2436 21.3591 32.7564 21.3591 41.7053 19.4066C43.7469 13.4941 43.839 7.50744 43.8543 1.39974L40.7229 0C40.0476 0.789243 38.927 2.06798 37.3767 3.65334C36.2715 4.77534 35.1049 5.90283 33.9844 6.78832C33.4318 7.23107 32.8946 7.61331 32.3573 7.91169C31.8047 8.21418 31.2675 8.47543 30.5 8.47543C29.7325 8.47543 29.1953 8.21418 28.6427 7.91169C28.1054 7.61331 27.5682 7.23107 27.0156 6.78832C25.8951 5.90283 24.7285 4.77534 23.6233 3.65334C22.073 2.06798 20.9524 0.789243 20.277 0ZM18.957 21.8678L0 55.8438C0.0429794 55.995 0.122798 56.16 0.331555 56.3663C0.638551 56.6825 1.18807 57.0675 1.96017 57.425C3.50742 58.1675 5.90813 58.8413 8.82612 59.3775C14.659 60.45 22.5949 61 30.5 61C38.4051 61 46.341 60.45 52.1739 59.3775C55.0903 58.8413 57.5002 58.1675 59.0352 57.425C59.8181 57.0675 60.3553 56.6825 60.6623 56.3663C60.8772 56.16 60.954 55.995 61 55.8438L42.043 21.8678C33.1402 23.7791 27.8598 23.7791 18.957 21.8678Z" fill="black"/>
</svg>
