Supermercado<svg width="61" height="61" viewBox="0 0 61 61" fill="none" xmlns="http://www.w3.org/2000/svg">
<path d="M51.85 0H9.15C4.1053 0 0 4.32137 0 9.63158V18.7206C0 22.1013 1.1651 25.1737 3.05 27.5367V57.7895C3.05 58.641 3.37134 59.4576 3.94332 60.0597C4.51531 60.6617 5.29109 61 6.1 61H30.5C31.3089 61 32.0847 60.6617 32.6567 60.0597C33.2287 59.4576 33.55 58.641 33.55 57.7895V41.7368H45.75V57.7895C45.75 58.641 46.0713 59.4576 46.6433 60.0597C47.2153 60.6617 47.9911 61 48.8 61H54.9C55.7089 61 56.4847 60.6617 57.0567 60.0597C57.6287 59.4576 57.95 58.641 57.95 57.7895V27.5335C59.8349 25.1737 61 22.1013 61 18.7174V9.63158C61 4.32137 56.8947 0 51.85 0ZM54.9 9.63158V18.7206C54.9 22.3806 52.3105 25.5012 49.1324 25.6778L48.8 25.6842C45.4358 25.6842 42.7 22.8044 42.7 19.2632V6.42105H51.85C53.5336 6.42105 54.9 7.86258 54.9 9.63158ZM24.4 19.2632V6.42105H36.6V19.2632C36.6 22.8044 33.8641 25.6842 30.5 25.6842C27.1358 25.6842 24.4 22.8044 24.4 19.2632ZM6.1 9.63158C6.1 7.86258 7.4664 6.42105 9.15 6.42105H18.3V19.2632C18.3 22.8044 15.5641 25.6842 12.2 25.6842L11.8675 25.6746C8.68945 25.5012 6.1 22.3806 6.1 18.7206V9.63158ZM24.4 44.9474H12.2V35.3158H24.4V44.9474Z" fill="black"/>
</svg>
