<svg width="32" height="32" viewBox="0 0 32 32" fill="none" xmlns="http://www.w3.org/2000/svg">
<path d="M16 27C16 27 3.5 20 3.5 11.5C3.50025 9.99768 4.02082 8.5418 4.97318 7.37991C5.92555 6.21801 7.25093 5.42181 8.72399 5.12669C10.197 4.83156 11.7269 5.05572 13.0533 5.76105C14.3798 6.46638 15.421 7.60935 16 8.99564L16 8.99565C16.579 7.60936 17.6202 6.46639 18.9467 5.76106C20.2731 5.05572 21.8029 4.83156 23.276 5.12669C24.7491 5.42181 26.0745 6.21801 27.0268 7.3799C27.9792 8.5418 28.4997 9.99768 28.5 11.5C28.5 20 16 27 16 27Z" stroke="#9F9F9F" stroke-width="2" stroke-linecap="round" stroke-linejoin="round"/>
</svg>
