<svg width="20" height="20" viewBox="0 0 20 20" fill="none" xmlns="http://www.w3.org/2000/svg">
<path d="M3.52568 15.3137C3.54516 15.3959 3.58106 15.4732 3.63123 15.5412C3.68139 15.6091 3.74477 15.6662 3.81756 15.7089C3.89036 15.7517 3.97105 15.7793 4.0548 15.7901C4.13854 15.8009 4.2236 15.7947 4.30486 15.7717C8.03058 14.743 11.9654 14.7426 15.6913 15.7706C15.7725 15.7935 15.8575 15.7998 15.9412 15.789C16.025 15.7782 16.1056 15.7506 16.1784 15.7079C16.2512 15.6651 16.3145 15.6081 16.3647 15.5402C16.4148 15.4723 16.4508 15.395 16.4703 15.3129L18.4616 6.8506C18.4882 6.73732 18.4827 6.61884 18.4457 6.50851C18.4087 6.39818 18.3415 6.30039 18.2519 6.22615C18.1623 6.1519 18.0537 6.10415 17.9384 6.08828C17.8231 6.07241 17.7057 6.08904 17.5994 6.13631L13.6475 7.89269C13.5048 7.95611 13.3435 7.96382 13.1954 7.91429C13.0473 7.86476 12.9232 7.76159 12.8473 7.62508L10.5464 3.48334C10.4922 3.38591 10.413 3.30472 10.317 3.2482C10.2209 3.19167 10.1115 3.16187 10 3.16187C9.88854 3.16187 9.77911 3.19167 9.68305 3.2482C9.58698 3.30472 9.50778 3.38591 9.45365 3.48334L7.15269 7.62508C7.07685 7.76159 6.95266 7.86476 6.80457 7.91429C6.65647 7.96381 6.4952 7.95611 6.3525 7.89269L2.40005 6.13604C2.29372 6.08878 2.17631 6.07215 2.06104 6.08801C1.94576 6.10386 1.83721 6.15158 1.74759 6.2258C1.65797 6.30001 1.59084 6.39777 1.55378 6.50806C1.51671 6.61836 1.51116 6.73681 1.53777 6.85008L3.52568 15.3137Z" stroke="#9F9F9F" stroke-width="2" stroke-linecap="round" stroke-linejoin="round"/>
</svg>
