<svg width="172" height="63" viewBox="0 0 172 63" fill="none" xmlns="http://www.w3.org/2000/svg">
<g id="Group 35">
<path id="Caminho 1546" d="M67.693 1.76605e-06H13.0581C12.0894 -2.7547e-05 11.137 0.25084 10.2936 0.728224C9.45023 1.20561 8.74438 1.8933 8.24462 2.72454C7.74486 3.55578 7.46816 4.50233 7.44139 5.47228C7.41462 6.44224 7.63869 7.40264 8.09184 8.26026L13.5561 18.6253H3.64836C3.0194 18.6243 2.40091 18.7865 1.85309 19.096C1.30528 19.4055 0.846808 19.8518 0.522298 20.3914C0.197789 20.9311 0.0183217 21.5457 0.00132991 22.1755C-0.0156619 22.8052 0.130418 23.4286 0.425353 23.985L18.0038 57.3085C18.3135 57.8948 18.777 58.3855 19.3443 58.7277C19.9116 59.0699 20.5614 59.2508 21.2237 59.2508C21.886 59.2508 22.5357 59.0699 23.1031 58.7277C23.6704 58.3855 24.1339 57.8948 24.4436 57.3085L29.2185 48.3061L35.2076 59.6627C35.6845 60.5675 36.3987 61.325 37.2732 61.8539C38.1477 62.3827 39.1496 62.6628 40.1712 62.6641C41.1927 62.6653 42.1953 62.3877 43.0711 61.8611C43.947 61.3345 44.663 60.5787 45.1421 59.675L72.5275 8.05823C72.9718 7.22268 73.1925 6.28612 73.1681 5.33976C73.1437 4.3934 72.875 3.46951 72.3881 2.65807C71.9013 1.84663 71.213 1.17532 70.3902 0.709508C69.5674 0.243691 68.6381 -0.000758084 67.693 1.76605e-06ZM43.152 22.0576L31.3445 44.3213C31.1383 44.7113 30.8299 45.0376 30.4524 45.2652C30.0749 45.4928 29.6426 45.6131 29.202 45.6131C28.7614 45.6131 28.3291 45.4928 27.9516 45.2652C27.5741 45.0376 27.2657 44.7113 27.0595 44.3213L15.3653 22.1545C15.1695 21.7848 15.0724 21.3708 15.0834 20.9525C15.0945 20.5343 15.2132 20.1259 15.4281 19.7672C15.643 19.4084 15.9468 19.1113 16.3101 18.9047C16.6734 18.6981 17.0838 18.5891 17.5016 18.5881H41.0712C41.4783 18.5881 41.8784 18.6936 42.2327 18.8943C42.587 19.0951 42.8834 19.3842 43.0931 19.7337C43.3028 20.0832 43.4186 20.481 43.4293 20.8886C43.4399 21.2962 43.3451 21.6996 43.154 22.0597L43.152 22.0576Z" fill="#F71963"/>
<path id="Caminho 1547" d="M125.806 23.9452H119.838V44.4608C119.837 44.6476 119.763 44.8266 119.631 44.9587C119.499 45.0908 119.32 45.1653 119.134 45.1658H114.526C114.339 45.1653 114.161 45.0908 114.029 44.9587C113.897 44.8266 113.822 44.6476 113.822 44.4608V23.9452H107.81C107.72 23.9488 107.629 23.9342 107.545 23.9022C107.46 23.8702 107.382 23.8216 107.317 23.7591C107.251 23.6967 107.199 23.6217 107.163 23.5386C107.126 23.4555 107.107 23.3659 107.106 23.2752V19.647C107.107 19.5564 107.126 19.4668 107.163 19.3837C107.199 19.3006 107.251 19.2256 107.317 19.1631C107.382 19.1007 107.46 19.052 107.545 19.0201C107.629 18.9881 107.72 18.9735 107.81 18.9771H125.813C125.999 18.9687 126.181 19.0343 126.32 19.1598C126.458 19.2853 126.541 19.4604 126.551 19.647V23.2773C126.541 23.4647 126.456 23.6403 126.317 23.7655C126.177 23.8907 125.993 23.9553 125.806 23.9452Z" fill="#F71963"/>
<path id="Caminho 1548" d="M144.991 45.0173C142.639 45.3526 140.264 45.5056 137.888 45.4749C133.35 45.4749 129.339 44.3122 129.339 37.899V26.1941C129.339 19.7809 133.385 18.6533 137.923 18.6533C140.287 18.622 142.65 18.7749 144.991 19.1109C145.483 19.181 145.695 19.3583 145.695 19.8159V23.0978C145.694 23.2846 145.62 23.4636 145.488 23.5957C145.356 23.7278 145.177 23.8022 144.991 23.8028H137.581C135.935 23.8028 135.33 24.3656 135.33 26.2003V29.4079H144.719C144.906 29.4085 145.084 29.4829 145.216 29.615C145.348 29.7471 145.422 29.9261 145.423 30.1129V33.4525C145.422 33.6393 145.348 33.8183 145.216 33.9504C145.084 34.0825 144.906 34.1569 144.719 34.1575H135.33V37.8929C135.33 39.7255 135.927 40.2903 137.581 40.2903H144.991C145.177 40.2909 145.356 40.3653 145.488 40.4974C145.62 40.6295 145.694 40.8086 145.695 40.9954V44.2731C145.695 44.7348 145.483 44.9472 144.991 45.0173Z" fill="#F71963"/>
<path id="Caminho 1549" d="M171.537 45.1583H165.951C165.764 45.1728 165.576 45.1301 165.413 45.036C165.25 44.9418 165.119 44.8005 165.037 44.6306L160.188 36.9187L155.794 44.4615C155.547 44.8841 155.303 45.1666 154.918 45.1666H149.711C149.645 45.1754 149.579 45.1701 149.516 45.1512C149.452 45.1322 149.394 45.1001 149.344 45.0568C149.294 45.0135 149.254 44.9601 149.226 44.9002C149.199 44.8402 149.184 44.775 149.184 44.7089C149.191 44.6226 149.214 44.5385 149.254 44.4615L156.869 31.7321L149.169 19.6437C149.131 19.581 149.107 19.5106 149.099 19.4376C149.112 19.3082 149.173 19.1886 149.271 19.1034C149.37 19.0182 149.497 18.974 149.626 18.9799H155.29C155.677 18.9799 155.959 19.3324 156.167 19.6499L160.668 26.7681L165.025 19.6499C165.103 19.4732 165.224 19.3191 165.377 19.2019C165.531 19.0848 165.711 19.0084 165.902 18.9799H171.109C171.194 18.9621 171.282 18.9699 171.362 19.0023C171.443 19.0347 171.512 19.0903 171.561 19.162C171.61 19.2337 171.636 19.3183 171.637 19.4052C171.638 19.492 171.613 19.5772 171.566 19.6499L163.903 31.8125L171.895 44.4678C171.957 44.5752 171.994 44.6961 172 44.8203C171.994 45.0182 171.819 45.1583 171.537 45.1583Z" fill="#F71963"/>
<path id="Caminho 1550" d="M98.665 19.0454C98.5395 19.0459 98.418 19.0899 98.3212 19.1699C98.2244 19.2499 98.1583 19.3611 98.134 19.4844L93.0278 38.4168C92.9578 38.8044 92.8528 38.9446 92.5359 38.9446C92.2189 38.9446 92.1139 38.7982 92.0439 38.4168L86.9317 19.4804C86.9074 19.357 86.8412 19.2459 86.7444 19.1658C86.6476 19.0858 86.5262 19.0417 86.4007 19.0412H81.3747C81.2929 19.0413 81.2121 19.0598 81.1384 19.0955C81.0648 19.1311 81.0001 19.1831 80.9493 19.2473C80.8984 19.3115 80.8626 19.3864 80.8447 19.4663C80.8268 19.5463 80.8271 19.6293 80.8457 19.7092C80.8457 19.7092 87.084 41.4225 87.1519 41.6348C87.4857 42.7956 88.2052 43.8075 89.1914 44.5029C90.1776 45.1983 91.3714 45.5356 92.5751 45.4588C93.7713 45.506 94.9499 45.1581 95.9294 44.4687C96.909 43.7792 97.6351 42.7864 97.9961 41.643C98.0949 41.3503 104.195 19.7092 104.195 19.7092C104.213 19.6295 104.214 19.5467 104.195 19.467C104.177 19.3872 104.142 19.3126 104.091 19.2487C104.04 19.1847 103.975 19.133 103.902 19.0975C103.828 19.0619 103.748 19.0434 103.666 19.0433L98.665 19.0454Z" fill="#F71963"/>
<path id="Caminho 1551" d="M67.693 1.76605e-06H13.0581C12.0894 -2.7547e-05 11.137 0.25084 10.2936 0.728224C9.45023 1.20561 8.74438 1.8933 8.24462 2.72454C7.74486 3.55578 7.46816 4.50233 7.44139 5.47228C7.41462 6.44224 7.63869 7.40264 8.09184 8.26026L13.5561 18.6253H3.64836C3.0194 18.6243 2.40091 18.7865 1.85309 19.096C1.30528 19.4055 0.846808 19.8518 0.522298 20.3914C0.197789 20.9311 0.0183217 21.5457 0.00132991 22.1755C-0.0156619 22.8052 0.130418 23.4286 0.425353 23.985L18.0038 57.3085C18.3135 57.8948 18.777 58.3855 19.3443 58.7277C19.9116 59.0699 20.5614 59.2508 21.2237 59.2508C21.886 59.2508 22.5357 59.0699 23.1031 58.7277C23.6704 58.3855 24.1339 57.8948 24.4436 57.3085L29.2185 48.3061L35.2076 59.6627C35.6845 60.5675 36.3987 61.325 37.2732 61.8539C38.1477 62.3827 39.1496 62.6628 40.1712 62.6641C41.1927 62.6653 42.1953 62.3877 43.0711 61.8611C43.947 61.3345 44.663 60.5787 45.1421 59.675L72.5275 8.05823C72.9718 7.22268 73.1925 6.28612 73.1681 5.33976C73.1437 4.3934 72.875 3.46951 72.3881 2.65807C71.9013 1.84663 71.213 1.17532 70.3902 0.709508C69.5674 0.243691 68.6381 -0.000758084 67.693 1.76605e-06ZM43.152 22.0576L31.3445 44.3213C31.1383 44.7113 30.8299 45.0376 30.4524 45.2652C30.0749 45.4928 29.6426 45.6131 29.202 45.6131C28.7614 45.6131 28.3291 45.4928 27.9516 45.2652C27.5741 45.0376 27.2657 44.7113 27.0595 44.3213L15.3653 22.1545C15.1695 21.7848 15.0724 21.3708 15.0834 20.9525C15.0945 20.5343 15.2132 20.1259 15.4281 19.7672C15.643 19.4084 15.9468 19.1113 16.3101 18.9047C16.6734 18.6981 17.0838 18.5891 17.5016 18.5881H41.0712C41.4783 18.5881 41.8784 18.6936 42.2327 18.8943C42.587 19.0951 42.8834 19.3842 43.0931 19.7337C43.3028 20.0832 43.4186 20.481 43.4293 20.8886C43.4399 21.2962 43.3451 21.6996 43.154 22.0597L43.152 22.0576Z" fill="#F71963"/>
</g>
</svg>
