<svg width="60" height="51" viewBox="0 0 60 51" fill="none" xmlns="http://www.w3.org/2000/svg">
<path d="M54.7054 1.42721e-06H10.5528C9.76988 -2.22618e-05 9.00028 0.202714 8.31869 0.588506C7.6371 0.974299 7.06668 1.53005 6.6628 2.2018C6.25893 2.87356 6.03531 3.63851 6.01368 4.42237C5.99205 5.20623 6.17312 5.98236 6.53933 6.67544L10.9553 15.0518H2.94838C2.4401 15.051 1.94027 15.1821 1.49756 15.4322C1.05485 15.6823 0.684338 16.043 0.42209 16.4791C0.159841 16.9152 0.0148065 17.4119 0.00107475 17.9209C-0.012657 18.4298 0.105396 18.9336 0.343744 19.3832L14.5496 46.3132C14.7999 46.7871 15.1744 47.1836 15.6329 47.4602C16.0914 47.7367 16.6165 47.8829 17.1517 47.8829C17.6869 47.8829 18.212 47.7367 18.6705 47.4602C19.129 47.1836 19.5035 46.7871 19.7539 46.3132L23.6126 39.038L28.4526 48.2157C28.8381 48.947 29.4152 49.5592 30.1219 49.9865C30.8287 50.4139 31.6383 50.6403 32.4639 50.6413C33.2895 50.6423 34.0997 50.418 34.8075 49.9924C35.5153 49.5668 36.0939 48.956 36.4811 48.2257L58.6123 6.51217C58.9714 5.83693 59.1497 5.08006 59.13 4.31527C59.1103 3.55048 58.8931 2.80385 58.4997 2.14809C58.1063 1.49234 57.55 0.949826 56.8851 0.573381C56.2201 0.196936 55.4692 -0.000612638 54.7054 1.42721e-06V1.42721e-06ZM34.8728 17.8256L25.3307 35.8178C25.1641 36.133 24.9148 36.3967 24.6098 36.5806C24.3047 36.7645 23.9554 36.8617 23.5993 36.8617C23.2432 36.8617 22.8939 36.7645 22.5888 36.5806C22.2837 36.3967 22.0345 36.133 21.8678 35.8178L12.4173 17.9039C12.2591 17.6052 12.1806 17.2706 12.1895 16.9326C12.1984 16.5946 12.2944 16.2646 12.4681 15.9746C12.6417 15.6847 12.8873 15.4446 13.1809 15.2776C13.4744 15.1107 13.8061 15.0226 14.1437 15.0218H33.1912C33.5202 15.0218 33.8436 15.107 34.1299 15.2693C34.4162 15.4315 34.6558 15.6652 34.8252 15.9476C34.9947 16.23 35.0883 16.5515 35.0969 16.8809C35.1055 17.2103 35.0289 17.5363 34.8745 17.8273L34.8728 17.8256Z" fill="#F71963"/>
</svg>
