<svg width="32" height="32" viewBox="0 0 32 32" fill="none" xmlns="http://www.w3.org/2000/svg">
<g clip-path="url(#clip0_1_1261)">
<path d="M23 23H8.72727L5.2402 3.82112C5.19831 3.5907 5.07688 3.3823 4.89708 3.23225C4.71728 3.08219 4.49052 3 4.25633 3H2" stroke="#9F9F9F" stroke-width="2" stroke-linecap="round" stroke-linejoin="round"/>
<path d="M10 28C11.3807 28 12.5 26.8807 12.5 25.5C12.5 24.1193 11.3807 23 10 23C8.61929 23 7.5 24.1193 7.5 25.5C7.5 26.8807 8.61929 28 10 28Z" stroke="#9F9F9F" stroke-width="2" stroke-linecap="round" stroke-linejoin="round"/>
<path d="M23 28C24.3807 28 25.5 26.8807 25.5 25.5C25.5 24.1193 24.3807 23 23 23C21.6193 23 20.5 24.1193 20.5 25.5C20.5 26.8807 21.6193 28 23 28Z" stroke="#9F9F9F" stroke-width="2" stroke-linecap="round" stroke-linejoin="round"/>
<path d="M7.81818 18H23.5127C23.981 18 24.4346 17.8356 24.7942 17.5355C25.1538 17.2354 25.3966 16.8186 25.4804 16.3578L27 8H6" stroke="#9F9F9F" stroke-width="2" stroke-linecap="round" stroke-linejoin="round"/>
</g>
<defs>
<clipPath id="clip0_1_1261">
<rect width="32" height="32" fill="white"/>
</clipPath>
</defs>
</svg>
