<svg width="23" height="22" viewBox="0 0 23 22" fill="none" xmlns="http://www.w3.org/2000/svg">
<g clip-path="url(#clip0_1_1492)">
<path d="M11.4878 5.35144C8.36559 5.35144 5.83789 7.87961 5.83789 10.9963C5.83789 14.1157 8.36834 16.6411 11.4878 16.6411C14.6101 16.6411 17.1378 14.1129 17.1378 10.9963C17.1378 7.87686 14.6073 5.35144 11.4878 5.35144ZM11.4878 14.6602C9.46108 14.6602 7.8206 13.0203 7.8206 10.9963C7.8206 8.97228 9.462 7.33236 11.4878 7.33236C13.5137 7.33236 15.1551 8.97228 15.1551 10.9963C15.156 13.0203 13.5146 14.6602 11.4878 14.6602Z" fill="white"/>
<path d="M16.0223 0.0709355C13.9965 -0.0234812 8.97873 -0.0188978 6.95106 0.0709355C5.16928 0.154352 3.59761 0.584269 2.33055 1.85019C0.212969 3.96585 0.483631 6.81669 0.483631 10.9976C0.483631 15.2766 0.245082 18.0614 2.33055 20.145C4.45639 22.268 7.35109 21.9903 11.4862 21.9903C15.7287 21.9903 17.1931 21.993 18.6932 21.4128C20.7328 20.6217 22.2723 18.8003 22.4228 15.5287C22.5182 13.5038 22.5127 8.49144 22.4228 6.4656C22.2411 2.60369 20.1667 0.261602 16.0223 0.0709355ZM19.229 18.7453C17.8408 20.1322 15.915 20.0084 11.4596 20.0084C6.87216 20.0084 5.03258 20.0763 3.69028 18.7315C2.1443 17.1943 2.42413 14.7257 2.42413 10.9829C2.42413 5.91835 1.90391 2.27094 6.99143 2.0106C8.16032 1.96935 8.50438 1.9556 11.4468 1.9556L11.4881 1.9831C16.3774 1.9831 20.2135 1.4716 20.4438 6.5536C20.4961 7.71319 20.508 8.06152 20.508 10.9967C20.5071 15.5269 20.5933 17.3758 19.229 18.7453Z" fill="white"/>
<path d="M17.3608 6.44786C18.0901 6.44786 18.6813 5.85729 18.6813 5.12878C18.6813 4.40027 18.0901 3.80969 17.3608 3.80969C16.6315 3.80969 16.0403 4.40027 16.0403 5.12878C16.0403 5.85729 16.6315 6.44786 17.3608 6.44786Z" fill="white"/>
</g>
<defs>
<clipPath id="clip0_1_1492">
<rect width="22.0199" height="22" fill="white" transform="translate(0.473145)"/>
</clipPath>
</defs>
</svg>
