<svg width="39" height="26" viewBox="0 0 39 26" fill="none" xmlns="http://www.w3.org/2000/svg">
<path d="M26.195 1.44207e-06C23.658 -0.00120219 21.1783 0.751089 19.0731 2.16064C18.9282 2.25927 17.9265 2.97157 17.8824 3.00627C16.2184 4.25188 15.1012 4.46739 13.5711 4.08567C13.4775 4.06193 13.0391 3.91216 12.9015 3.8592C11.4724 3.32354 9.93509 3.13722 8.41868 3.31589C6.90227 3.49456 5.4511 4.033 4.18713 4.88596C2.92316 5.73892 1.88332 6.88148 1.15502 8.2176C0.426712 9.55372 0.0312176 11.0444 0.00177392 12.5643C-0.0276698 14.0841 0.309798 15.5889 0.985813 16.9519C1.66183 18.315 2.65664 19.4966 3.88664 20.3975C5.11663 21.2983 6.54587 21.8921 8.05423 22.1288C9.56259 22.3656 11.106 22.2384 12.5547 21.758C14.837 21.0786 16.0753 21.2649 17.5082 22.2712C17.7944 22.4721 18.4842 22.9123 18.6273 23.0164C20.2581 24.2077 22.1492 24.9973 24.1458 25.3205C26.1423 25.6437 28.1873 25.4912 30.1133 24.8756C32.0392 24.2599 33.7911 23.1986 35.2254 21.7788C36.6597 20.3589 37.7356 18.6208 38.3649 16.707C38.9941 14.7932 39.1588 12.7582 38.8455 10.7688C38.5321 8.77936 37.7496 6.89221 36.5621 5.26202C35.3747 3.63183 33.816 2.30502 32.014 1.39036C30.2119 0.475695 28.2178 -0.000777516 26.195 1.44207e-06Z" fill="#007858"/>
<path d="M21.5773 14.7135C21.2129 15.0705 20.7378 15.2941 20.2294 15.3479C19.721 15.4016 19.2093 15.2823 18.7777 15.0094L17.9283 16.3518C18.6642 16.8148 19.5356 17.0169 20.4013 16.9254C21.267 16.8339 22.0764 16.4542 22.6983 15.8477L21.5773 14.7135ZM20.0473 9.24522C19.3457 9.23413 18.6543 9.41325 18.0472 9.7634C17.4401 10.1136 16.9401 10.6215 16.6008 11.233C16.2614 11.8444 16.0956 12.5362 16.121 13.2342C16.1464 13.9323 16.3621 14.6103 16.745 15.1957L23.7495 12.215C23.5524 11.3804 23.0812 10.6351 22.4106 10.0972C21.74 9.55927 20.9083 9.25946 20.0473 9.24522ZM17.7265 13.3327C17.6735 12.8504 17.7777 12.3638 18.0237 11.9449C18.2697 11.5259 18.6444 11.1968 19.0926 11.0061C19.5407 10.8153 20.0386 10.773 20.5128 10.8855C20.987 10.9979 21.4123 11.2591 21.7259 11.6305L17.7265 13.3327ZM25.9492 7.51196V14.9436L27.2444 15.4788L26.6335 16.9399L25.3493 16.4102C25.0907 16.3001 24.871 16.1157 24.7182 15.8806C24.5475 15.6069 24.4614 15.2893 24.4705 14.9674V7.51196H25.9492ZM14.67 7.51196V14.9436L15.9543 15.4788L15.3433 16.9399L14.0591 16.4102C13.8092 16.2992 13.597 16.1184 13.4482 15.8897C13.2769 15.6162 13.1901 15.2987 13.1987 14.9765V7.51196H14.67Z" fill="white"/>
<path d="M32.3221 11.0516C32.5913 11.1808 32.8322 11.3615 33.0312 11.5835C33.2302 11.8055 33.3833 12.0643 33.4817 12.3451C33.5802 12.626 33.6221 12.9234 33.6051 13.2204C33.5881 13.5174 33.5125 13.8082 33.3825 14.0761L34.8154 14.761C35.2032 13.9557 35.2978 13.0413 35.0829 12.1743C34.8681 11.3072 34.3572 10.5415 33.6376 10.0082C32.9181 9.47493 32.0347 9.20723 31.1388 9.25096C30.2428 9.29469 29.39 9.64713 28.7263 10.2479L29.7977 11.4187C30.1333 11.1131 30.5533 10.9147 31.0033 10.8493C31.4534 10.7839 31.9128 10.8543 32.3221 11.0516Z" fill="#C7D540"/>
<path d="M30.3499 15.1373C29.806 14.8765 29.3883 14.4116 29.1885 13.8445C28.9886 13.2774 29.023 12.6546 29.284 12.1127L27.8511 11.426C27.4671 12.2302 27.375 13.142 27.5904 14.0063C27.8059 14.8705 28.3155 15.6336 29.0327 16.1658C29.7498 16.698 30.63 16.9662 31.5235 16.9249C32.417 16.8835 33.2684 16.5351 33.9329 15.9391L32.8614 14.7702C32.5267 15.0727 32.1091 15.2691 31.6618 15.3345C31.2145 15.3999 30.7578 15.3312 30.3499 15.1373ZM11.7341 15.245V13.0935C11.7341 12.3349 11.5082 11.5934 11.0849 10.9626C10.6615 10.3319 10.0598 9.84031 9.35583 9.55001C8.65185 9.25972 7.8772 9.18376 7.12986 9.33176C6.38252 9.47975 5.69604 9.84504 5.15723 10.3814C4.61843 10.9178 4.25149 11.6012 4.10284 12.3453C3.95418 13.0893 4.03048 13.8604 4.32208 14.5613C4.61368 15.2621 5.10748 15.8611 5.74105 16.2826C6.37462 16.704 7.11949 16.929 7.88148 16.929C8.47877 16.929 9.0679 16.7909 9.60234 16.5253L8.98224 15.0825C8.63506 15.2736 8.24376 15.3712 7.84707 15.3655C7.45039 15.3599 7.06205 15.2512 6.7205 15.0503C6.37894 14.8494 6.096 14.5631 5.89966 14.2199C5.70332 13.8768 5.6004 13.4885 5.60107 13.0935C5.59899 12.7225 5.68912 12.3567 5.86341 12.0287C6.01683 11.7425 6.22993 11.4923 6.48844 11.2948C6.74696 11.0973 7.04489 10.9571 7.36229 10.8836C7.53062 10.8439 7.70299 10.8236 7.87598 10.8233C8.48143 10.8228 9.06231 11.0617 9.49095 11.4874C9.91959 11.9131 10.1609 12.4908 10.1619 13.0935V15.2268C10.1528 15.5487 10.2389 15.8663 10.4096 16.14C10.5634 16.3741 10.7828 16.5582 11.0407 16.6696L11.7635 16.9545L12.3763 15.4934L11.7341 15.245Z" fill="white"/>
</svg>
