<svg width="56" height="15" viewBox="0 0 56 15" fill="none" xmlns="http://www.w3.org/2000/svg">
<path d="M10.7299 14.5136C14.6957 14.5326 18.3155 11.2786 18.3155 7.31988C18.3155 2.99084 14.6957 -0.00143932 10.7299 5.19397e-07H7.31677C3.3034 -0.00143932 0 2.99174 0 7.31988C0 11.2794 3.3034 14.5326 7.31677 14.5136H10.7299Z" fill="#0079BE"/>
<path d="M7.33437 0.599854C3.66706 0.601005 0.695322 3.57428 0.694458 7.24389C0.695322 10.9129 3.66703 13.8859 7.33437 13.887C11.0025 13.8859 13.9749 10.9129 13.9754 7.24389C13.9749 3.57428 11.0025 0.601005 7.33437 0.599854ZM3.12551 7.24389C3.12897 5.45071 4.24862 3.9216 5.82749 3.31396V11.1729C4.24862 10.5656 3.12894 9.03733 3.12551 7.24389ZM8.84068 11.1746V3.3137C10.4201 3.91987 11.5415 5.44985 11.5444 7.24389C11.5415 9.03849 10.4201 10.5673 8.84068 11.1746Z" fill="white"/>
<path d="M20.6438 3.12254C20.6438 2.43599 20.2859 2.48121 19.9427 2.47375V2.27534C20.2401 2.29002 20.545 2.29002 20.843 2.29002C21.1634 2.29002 21.5984 2.27534 22.1633 2.27534C24.1389 2.27534 25.2148 3.59538 25.2148 4.94708C25.2148 5.703 24.7726 7.6033 22.0714 7.6033C21.6825 7.6033 21.3235 7.5883 20.965 7.5883C20.6218 7.5883 20.2859 7.59582 19.9427 7.6033V7.40518C20.4002 7.35908 20.6218 7.34384 20.6437 6.82464V3.12254H20.6438ZM21.3917 6.70283C21.3917 7.29057 21.8118 7.35911 22.1855 7.35911C23.834 7.35911 24.3753 6.11479 24.3753 4.97732C24.3753 3.55043 23.4594 2.52008 21.9871 2.52008C21.6739 2.52008 21.5299 2.54254 21.3918 2.55063L21.3917 6.70283ZM25.4825 7.40521H25.627C25.8404 7.40521 25.9933 7.40521 25.9933 7.15263V5.08447C25.9933 4.74902 25.8789 4.70234 25.5965 4.55058V4.42819C25.955 4.32049 26.3828 4.17651 26.4127 4.15347C26.4666 4.12294 26.5121 4.11488 26.5504 4.11488C26.5881 4.11488 26.6039 4.16096 26.6039 4.22229V7.15263C26.6039 7.40521 26.7718 7.40521 26.9854 7.40521H27.1149V7.60362C26.8552 7.60362 26.5881 7.58839 26.314 7.58839C26.0393 7.58839 25.7644 7.59587 25.4825 7.60362V7.40521H25.4825ZM26.2987 2.93965C26.1001 2.93965 25.925 2.75653 25.925 2.55809C25.925 2.36688 26.1081 2.19093 26.2987 2.19093C26.4965 2.19093 26.6727 2.35194 26.6727 2.55809C26.6727 2.76428 26.5043 2.93965 26.2987 2.93965ZM27.8398 5.12997C27.8398 4.84776 27.7554 4.77174 27.3976 4.6266V4.48178C27.7255 4.37494 28.0379 4.2756 28.4044 4.11491C28.4271 4.11491 28.4496 4.13046 28.4496 4.19122V4.68765C28.8852 4.37495 29.2592 4.11488 29.771 4.11488C30.4188 4.11488 30.6477 4.58827 30.6477 5.1835V7.15266C30.6477 7.40521 30.8155 7.40521 31.0294 7.40521H31.1668V7.60362C30.899 7.60362 30.6322 7.58839 30.3581 7.58839C30.0831 7.58839 29.8081 7.59587 29.5338 7.60362V7.40521H29.6708C29.885 7.40521 30.0368 7.40521 30.0368 7.15266V5.1763C30.0368 4.74061 29.771 4.52722 29.3354 4.52722C29.0916 4.52722 28.7023 4.72566 28.4495 4.89381V7.1526C28.4495 7.40518 28.6182 7.40518 28.8322 7.40518H28.9692V7.60359C28.7023 7.60359 28.4349 7.58833 28.1602 7.58833C27.8858 7.58833 27.6106 7.59585 27.3362 7.60359V7.40518H27.4738C27.6875 7.40518 27.8398 7.40518 27.8398 7.1526V5.12997H27.8398ZM31.7469 5.49681C31.7311 5.56567 31.7311 5.67996 31.7469 5.93971C31.7919 6.66453 32.2585 7.25979 32.868 7.25979C33.288 7.25979 33.6168 7.03085 33.8987 6.74864L34.0052 6.85577C33.654 7.32112 33.2192 7.71792 32.5939 7.71792C31.3804 7.71792 31.1362 6.54214 31.1362 6.05406C31.1362 4.55775 32.1433 4.11485 32.6771 4.11485C33.2955 4.11485 33.9597 4.50393 33.9669 5.31309C33.9669 5.35945 33.9669 5.40466 33.9597 5.45103L33.8906 5.49681H31.7469ZM33.0978 5.25236C33.288 5.25236 33.3105 5.15301 33.3105 5.06172C33.3105 4.67236 33.0741 4.35934 32.6466 4.35934C32.1816 4.35934 31.8612 4.70231 31.7696 5.25236H33.0978ZM34.1426 7.40521H34.3487C34.5617 7.40521 34.7143 7.40521 34.7143 7.15263V5.00813C34.7143 4.77171 34.4325 4.72563 34.3176 4.66458V4.55055C34.8747 4.31355 35.1802 4.11485 35.2495 4.11485C35.2947 4.11485 35.3172 4.13789 35.3172 4.21449V4.90129H35.3333C35.5236 4.60382 35.8447 4.11485 36.3096 4.11485C36.5005 4.11485 36.7444 4.24444 36.7444 4.51945C36.7444 4.72563 36.5998 4.90936 36.3862 4.90936C36.1487 4.90936 36.1487 4.72563 35.8821 4.72563C35.7523 4.72563 35.3253 4.90129 35.3253 5.35945V7.15263C35.3253 7.40518 35.4776 7.40518 35.6915 7.40518H36.1185V7.60362C35.6987 7.59582 35.3794 7.58836 35.0506 7.58836C34.738 7.58836 34.4172 7.59585 34.1426 7.60362V7.40521H34.1426ZM37.0803 6.54214C37.1797 7.04608 37.4846 7.47375 38.0419 7.47375C38.491 7.47375 38.6591 7.19903 38.6591 6.93179C38.6591 6.03102 36.9962 6.32101 36.9962 5.09225C36.9962 4.66461 37.3399 4.11488 38.1789 4.11488C38.4228 4.11488 38.7507 4.18399 39.0481 4.3369L39.1022 5.11474H38.9263C38.8503 4.63438 38.5834 4.35939 38.0946 4.35939C37.7894 4.35939 37.4998 4.53508 37.4998 4.86305C37.4998 5.75691 39.2698 5.48132 39.2698 6.67956C39.2698 7.18322 38.8652 7.71797 37.9572 7.71797C37.6521 7.71797 37.2936 7.61114 37.0267 7.4588L36.9427 6.58081L37.0803 6.54214ZM46.1596 3.65698H45.9693C45.8242 2.76428 45.1908 2.40518 44.3366 2.40518C43.4585 2.40518 42.1843 2.99261 42.1843 4.82441C42.1843 6.36734 43.2837 7.47369 44.4584 7.47369C45.2136 7.47369 45.8397 6.95477 45.9923 6.15309L46.1674 6.19859L45.9923 7.313C45.6719 7.51199 44.8096 7.71792 44.3055 7.71792C42.5205 7.71792 41.3916 6.56521 41.3916 4.84773C41.3916 3.28291 42.7877 2.16041 44.283 2.16041C44.9009 2.16041 45.496 2.35968 46.0836 2.56587L46.1596 3.65698ZM46.4349 7.40521H46.5794C46.7933 7.40521 46.9465 7.40521 46.9465 7.15263V2.90167C46.9465 2.40521 46.8319 2.38992 46.5417 2.30612V2.18402C46.8469 2.08499 47.1673 1.94731 47.3277 1.85548C47.4109 1.80998 47.4725 1.77136 47.4949 1.77136C47.5416 1.77136 47.5568 1.81747 47.5568 1.87877V7.15263C47.5568 7.40521 47.7244 7.40521 47.9383 7.40521H48.067V7.60362C47.8087 7.60362 47.5416 7.58836 47.2666 7.58836C46.9923 7.58836 46.7176 7.59587 46.4348 7.60362V7.40521H46.4349ZM51.334 7.18319C51.334 7.32112 51.4175 7.32861 51.5471 7.32861C51.6389 7.32861 51.7529 7.32112 51.8525 7.32112V7.48181C51.5241 7.51205 50.8984 7.67245 50.7533 7.71794L50.715 7.69488V7.07721C50.2578 7.45097 49.9063 7.71794 49.3642 7.71794C48.9522 7.71794 48.525 7.45097 48.525 6.81024V4.85551C48.525 4.6571 48.4947 4.46614 48.0681 4.42816V4.28303C48.343 4.27554 48.9522 4.22972 49.0518 4.22972C49.1365 4.22972 49.1365 4.28303 49.1365 4.45091V6.41972C49.1365 6.64926 49.1365 7.30552 49.7998 7.30552C50.0592 7.30552 50.4024 7.10711 50.7225 6.84073V4.78637C50.7225 4.63432 50.3566 4.55052 50.0825 4.47389V4.33653C50.7683 4.29045 51.1964 4.22969 51.2721 4.22969C51.334 4.22969 51.334 4.28297 51.334 4.36734V7.18319H51.334ZM52.8522 4.66461C53.1571 4.40512 53.5691 4.11488 53.9891 4.11488C54.8744 4.11488 55.4079 4.88664 55.4079 5.71797C55.4079 6.71783 54.6758 7.71792 53.584 7.71792C53.0197 7.71792 52.7223 7.53448 52.5237 7.45094L52.2951 7.62603L52.1353 7.54254C52.203 7.09216 52.2418 6.64926 52.2418 6.18391V2.90164C52.2418 2.40521 52.1267 2.38992 51.837 2.30612V2.18402C52.1431 2.08499 52.4626 1.94731 52.623 1.85545C52.7071 1.80995 52.7678 1.77136 52.7914 1.77136C52.8369 1.77136 52.8522 1.81747 52.8522 1.87877V4.66458H52.8522V4.66461ZM52.8522 6.74058C52.8522 7.03085 53.1266 7.51982 53.6379 7.51982C54.4544 7.51982 54.7975 6.71783 54.7975 6.03825C54.7975 5.21409 54.1725 4.52728 53.5772 4.52728C53.2941 4.52728 53.058 4.71072 52.8522 4.88664V6.74058H52.8522ZM19.934 12.0415H19.9924C20.1415 12.0415 20.2993 12.0213 20.2993 11.8051V9.62916C20.2993 9.41258 20.1415 9.39217 19.9924 9.39217H19.934V9.26748C20.096 9.26748 20.3451 9.28389 20.5492 9.28389C20.7565 9.28389 21.0052 9.26748 21.2004 9.26748V9.39217H21.142C20.9932 9.39217 20.8351 9.41261 20.8351 9.62916V11.8051C20.8351 12.0213 20.9932 12.0415 21.142 12.0415H21.2004V12.1668C21.0012 12.1668 20.7516 12.1504 20.5446 12.1504C20.3411 12.1504 20.096 12.1668 19.934 12.1668V12.0415Z" fill="#211E1F"/>
<path d="M21.2003 12.1843C20.9997 12.1843 20.7509 12.1676 20.5442 12.1676C20.3412 12.1676 20.0971 12.1843 19.9338 12.1843H19.916V12.0236H19.992C20.1426 12.0202 20.2796 12.0081 20.2811 11.8051V9.62914C20.2796 9.42612 20.1426 9.41256 19.992 9.40971H19.916V9.24902H19.9338C20.0971 9.24902 20.3459 9.26544 20.5488 9.26544C20.7555 9.26544 21.004 9.24902 21.2003 9.24902H21.2188V9.40971H21.1422C20.9916 9.41259 20.8537 9.42612 20.8528 9.62914V11.8051C20.8537 12.0081 20.9916 12.0202 21.1422 12.0236H21.2187V12.1843H21.2003ZM21.1825 12.1489V12.0602H21.1422C20.9939 12.0602 20.8174 12.0345 20.8165 11.8051V9.62914C20.8174 9.39963 20.9939 9.37371 21.1422 9.37371H21.1825V9.2856C20.9907 9.2856 20.7503 9.30172 20.5488 9.30172C20.3516 9.30172 20.1129 9.28675 19.9523 9.2856V9.37371H19.992C20.14 9.37371 20.317 9.39963 20.317 9.62914V11.8051C20.317 12.0346 20.14 12.0602 19.992 12.0602H19.9523V12.1489C20.1129 12.1471 20.3475 12.1322 20.5442 12.1322C20.7463 12.1322 20.9867 12.1477 21.1825 12.1489ZM24.0526 11.348L24.0609 11.34V9.78263C24.0609 9.44167 23.824 9.39214 23.6996 9.39214H23.608V9.26742C23.8035 9.26742 23.9944 9.28384 24.1893 9.28384C24.3594 9.28384 24.5305 9.26742 24.7003 9.26742V9.39214H24.6381C24.4634 9.39214 24.2682 9.42523 24.2682 9.91941V11.8096C24.2682 11.9548 24.2725 12.0999 24.2929 12.2287H24.1349L21.9972 9.84457V11.556C21.9972 11.9174 22.0672 12.0415 22.3873 12.0415H22.4575V12.1667C22.2794 12.1667 22.1011 12.1503 21.9223 12.1503C21.736 12.1503 21.5449 12.1667 21.3578 12.1667V12.0415H21.4159C21.7024 12.0415 21.7894 11.8468 21.7894 11.5148V9.76538C21.7894 9.53299 21.5979 9.39217 21.4119 9.39217H21.3578V9.26748C21.5155 9.26748 21.6774 9.28387 21.8349 9.28387C21.9595 9.28387 22.0802 9.26748 22.2045 9.26748L24.0526 11.348Z" fill="#211E1F"/>
<path d="M24.2933 12.2468L24.122 12.2404L22.0151 9.89147V11.5559C22.02 11.917 22.075 12.0196 22.3876 12.0236H22.4766V12.1843H22.4582C22.2785 12.1843 22.0997 12.1676 21.9226 12.1676C21.7366 12.1676 21.5461 12.1843 21.3578 12.1843H21.3396V12.0236H21.4162C21.6906 12.0222 21.7689 11.8459 21.7721 11.5148V9.76563C21.7715 9.54446 21.5901 9.41027 21.4122 9.40969H21.3396V9.24958H21.3577C21.5164 9.24958 21.679 9.26542 21.8348 9.26542C21.9583 9.26542 22.0787 9.24958 22.2186 9.25563L24.0433 11.3103V9.78293C24.041 9.45234 23.8208 9.4126 23.6998 9.40969H23.5898V9.24958H23.6083C23.8044 9.24958 23.9955 9.26542 24.1895 9.26542C24.3585 9.26542 24.5287 9.24958 24.7003 9.24958H24.7184V9.40967H24.6384C24.4671 9.41459 24.2912 9.42954 24.2863 9.91937V11.8093C24.2863 11.9545 24.2906 12.0996 24.3108 12.2254L24.3148 12.2467H24.2933V12.2468ZM24.1355 12.2102H24.2728C24.2542 12.0855 24.251 11.9473 24.251 11.8093V9.91937C24.251 9.4209 24.4597 9.3737 24.6385 9.3737H24.6822V9.28555C24.5187 9.2867 24.3546 9.30168 24.1897 9.30168C23.9996 9.30168 23.8148 9.2867 23.6268 9.28555L23.6265 9.3737H23.6999C23.8275 9.3737 24.0794 9.43069 24.0794 9.7829L24.0736 11.3523L24.0653 11.361L24.0512 11.3739L22.2049 9.28555C22.0817 9.28555 21.9613 9.30168 21.8349 9.30168C21.6826 9.30168 21.5269 9.2867 21.3763 9.28555L21.3754 9.37367H21.4123C21.6072 9.37367 21.8073 9.52255 21.8073 9.7656V11.5147C21.8073 11.8467 21.7149 12.0592 21.4163 12.0604L21.3763 12.0592V12.1488C21.5562 12.1471 21.7411 12.1321 21.9227 12.1321C22.096 12.1321 22.2685 12.1471 22.44 12.1488V12.0604H22.3877C22.0609 12.0592 21.9797 11.917 21.9794 11.5559V9.79782L24.1355 12.2102ZM24.0529 11.3477L24.0661 11.3356L24.0529 11.3477ZM24.0434 11.3397V11.3382L24.0399 11.3353L24.0434 11.3397ZM25.3222 9.47475C25.0104 9.47475 24.9986 9.54965 24.9365 9.85256H24.8118C24.8282 9.73651 24.8489 9.62046 24.8616 9.49951C24.8783 9.38317 24.8863 9.26738 24.8863 9.14704H24.9862C25.0196 9.27173 25.1233 9.26741 25.2359 9.26741H27.3776C27.4898 9.26741 27.5935 9.26338 27.6021 9.13843L27.7012 9.15513C27.685 9.26741 27.6683 9.37946 27.6557 9.49174C27.6482 9.60379 27.6482 9.71607 27.6482 9.8278L27.5232 9.87416C27.5146 9.72067 27.4939 9.47475 27.216 9.47475H26.5352V11.6846C26.5352 12.0048 26.6806 12.0414 26.8792 12.0414H26.9584V12.1667C26.7966 12.1667 26.5055 12.1503 26.2818 12.1503C26.0328 12.1503 25.7417 12.1667 25.5796 12.1667V12.0414H25.6588C25.8877 12.0414 26.0034 12.021 26.0034 11.6933V9.47475H25.3222Z" fill="#211E1F"/>
<path d="M26.9598 12.1844C26.7962 12.1844 26.5058 12.1677 26.2826 12.1677C26.0339 12.1677 25.7434 12.1844 25.5804 12.1844H25.5632V12.0237H25.6596C25.8885 12.0182 25.9806 12.0153 25.9858 11.6933V9.493H25.3231V9.4564H26.0218V11.6933C26.0218 12.0265 25.8877 12.0602 25.6596 12.0605H25.5986V12.148C25.7624 12.1472 26.0417 12.1322 26.2827 12.1322C26.4992 12.1322 26.7767 12.1472 26.9408 12.148V12.0605H26.8801C26.6794 12.0602 26.5179 12.011 26.5179 11.6847V9.4564H27.2169C27.4956 9.45755 27.5319 9.69455 27.5411 9.84861L27.6306 9.8155C27.6306 9.70722 27.6312 9.59866 27.6387 9.48923C27.6508 9.38239 27.666 9.27642 27.6816 9.17045L27.6182 9.15979C27.599 9.28074 27.4823 9.28679 27.3778 9.28563H25.2151C25.1175 9.28563 25.0107 9.28103 24.9735 9.165H24.905C24.9046 9.27773 24.8964 9.3903 24.8805 9.5019C24.8684 9.61596 24.8494 9.72568 24.8339 9.83539H24.9229C24.9775 9.54596 25.0133 9.45208 25.323 9.45643V9.493C25.0161 9.49847 25.0225 9.55031 24.9548 9.85728L24.9517 9.87139H24.7919L24.7942 9.84979C24.8109 9.73345 24.8319 9.61766 24.8443 9.49672C24.8615 9.38153 24.8696 9.26634 24.8696 9.14712V9.12898H25.0012L25.0041 9.14194C25.0326 9.24676 25.1094 9.24733 25.2151 9.24906H27.3778C27.4936 9.24733 27.5776 9.24561 27.5848 9.13701L27.5865 9.11743L27.6053 9.12146L27.7224 9.13992L27.7198 9.15806C27.7031 9.26922 27.6867 9.38153 27.6746 9.49297C27.6663 9.60355 27.6663 9.71586 27.6663 9.82788V9.84084L27.6548 9.84545L27.5077 9.89898L27.5065 9.87479C27.4956 9.71871 27.4792 9.49294 27.2169 9.49294H26.5541V11.6847C26.5579 11.998 26.6822 12.0196 26.88 12.0236H26.9773V12.1843L26.9598 12.1844ZM27.8347 12.0415H27.8932C28.0424 12.0415 28.2004 12.0214 28.2004 11.8051V9.62918C28.2004 9.4126 28.0424 9.39218 27.8932 9.39218H27.8347V9.26749C28.0875 9.26749 28.52 9.28391 28.868 9.28391C29.2175 9.28391 29.6485 9.26749 29.9306 9.26749C29.9238 9.44574 29.9275 9.72047 29.9399 9.90278L29.8146 9.93616C29.7948 9.66636 29.7449 9.45067 29.3088 9.45067H28.7321V10.5383H29.2256C29.4746 10.5383 29.5291 10.3975 29.5535 10.1726H29.6779C29.6699 10.3353 29.6655 10.4972 29.6655 10.659C29.6655 10.8171 29.6698 10.9746 29.6779 11.1324L29.5535 11.1572C29.5291 10.9081 29.5164 10.7462 29.2296 10.7462H28.7322V11.7135C28.7322 11.9839 28.972 11.9839 29.238 11.9839C29.7363 11.9839 29.956 11.9502 30.0807 11.4774L30.197 11.5059C30.1426 11.7265 30.0931 11.9462 30.0562 12.1668C29.7902 12.1668 29.3126 12.1504 28.9394 12.1504C28.5652 12.1504 28.0715 12.1668 27.8347 12.1668V12.0415Z" fill="#211E1F"/>
<path d="M30.0558 12.1843C29.7892 12.1843 29.3119 12.1673 28.9391 12.1673C28.5651 12.1673 28.0716 12.1843 27.8347 12.1843H27.8171V12.0236H27.8929C28.0434 12.0213 28.1799 12.0081 28.1819 11.8051V9.62915C28.1799 9.42642 28.0434 9.41288 27.8929 9.40972H27.8171V9.24963H27.8347C28.088 9.24963 28.5199 9.26547 28.868 9.26547C29.2172 9.26547 29.6479 9.24963 29.9306 9.24963H29.9493L29.9484 9.26806C29.9455 9.33055 29.9444 9.40424 29.9444 9.4826C29.9444 9.62627 29.9484 9.78321 29.9568 9.9016L29.9574 9.91657L29.9436 9.92063L29.7976 9.95864L29.7968 9.93733C29.7723 9.66779 29.7363 9.47226 29.3088 9.46823H28.7494L28.7488 10.5196H29.2256C29.4646 10.5173 29.5074 10.3949 29.5357 10.1712L29.5371 10.1547H29.6963L29.696 10.1734C29.688 10.3353 29.6828 10.4971 29.6828 10.659C29.6828 10.8162 29.688 10.9737 29.696 11.1318L29.6963 11.1465L29.6814 11.1499L29.5371 11.1787L29.5357 11.1592C29.5072 10.9057 29.5051 10.7669 29.2293 10.7638L28.7494 10.7635V11.7135C28.7497 11.9658 28.9673 11.9643 29.238 11.9658C29.7377 11.9629 29.9381 11.9387 30.0634 11.4722L30.0674 11.4555L30.085 11.4586L30.218 11.4929L30.214 11.5102C30.1604 11.7302 30.1106 11.9496 30.0734 12.1696L30.07 12.1843H30.0558ZM30.0406 12.148C30.0766 11.9387 30.124 11.7285 30.1751 11.5194L30.093 11.4986C29.9686 11.9635 29.7279 12.0049 29.2379 12.0018C28.9765 12.0018 28.7145 12.0018 28.7133 11.7135V10.728H29.2293C29.5192 10.7249 29.5489 10.9 29.5693 11.1364L29.6591 11.1177C29.6512 10.9649 29.6472 10.8119 29.6473 10.6589C29.6473 10.5026 29.651 10.3471 29.6591 10.1907H29.5693C29.5463 10.407 29.4786 10.559 29.2256 10.5561H28.7134V9.43189H29.3088C29.7406 9.42898 29.8123 9.6519 29.8307 9.91309L29.9203 9.8889C29.9131 9.77169 29.9081 9.62137 29.9081 9.48257C29.9081 9.41144 29.9099 9.34435 29.9122 9.2856C29.6301 9.28675 29.2097 9.30173 28.868 9.30173C28.5268 9.30173 28.1068 9.28675 27.8526 9.2856V9.37372H27.8928C28.0408 9.37372 28.2176 9.39964 28.2182 9.62915V11.8051C28.2176 12.034 28.0408 12.0593 27.8928 12.0605H27.8526V12.148C28.0947 12.1477 28.5744 12.1322 28.9391 12.1322C29.3053 12.1322 29.7728 12.1477 30.0406 12.148ZM30.7573 9.70748C30.7573 9.40453 30.5915 9.39215 30.4622 9.39215H30.3876V9.26717C30.5206 9.26717 30.7777 9.28387 31.0311 9.28387C31.2801 9.28387 31.4796 9.26717 31.6993 9.26717C32.2221 9.26717 32.6877 9.40856 32.6877 9.9989C32.6877 10.3718 32.4387 10.6005 32.1107 10.7298L32.8204 11.7924C32.9367 11.968 33.0193 12.0173 33.2232 12.0414V12.1667C33.0861 12.1667 32.9531 12.1503 32.8163 12.1503C32.6877 12.1503 32.5543 12.1667 32.4262 12.1667C32.1066 11.7472 31.832 11.2985 31.5622 10.8205H31.289V11.7097C31.289 12.0299 31.4379 12.0415 31.6287 12.0415H31.7036V12.1668C31.4664 12.1668 31.2266 12.1503 30.9896 12.1503C30.7901 12.1503 30.5949 12.1668 30.3876 12.1668V12.0415H30.4622C30.6165 12.0415 30.7573 11.9718 30.7573 11.8177V9.70748ZM31.289 10.671H31.4917C31.9071 10.671 32.1308 10.5132 32.1308 10.0231C32.1308 9.65391 31.8945 9.41692 31.5245 9.41692C31.3999 9.41692 31.3469 9.42987 31.289 9.43362V10.671H31.289Z" fill="#211E1F"/>
<path d="M33.2231 12.1844C33.0841 12.1844 32.9519 12.1677 32.8155 12.1677C32.6888 12.1677 32.5563 12.1844 32.4116 12.1774C32.0931 11.7596 31.8202 11.3135 31.5519 10.839H31.3066V11.7092C31.3109 12.0217 31.4364 12.0191 31.6284 12.0237H31.7214V12.1844H31.703C31.4657 12.1844 31.2248 12.1677 30.989 12.1677C30.7906 12.1677 30.596 12.1844 30.3876 12.1844H30.3694V12.0237H30.4621C30.6118 12.0228 30.7379 11.9577 30.7385 11.8178V9.70759C30.7354 9.41271 30.5911 9.41441 30.4621 9.41012H30.3694V9.24915H30.3876C30.522 9.24915 30.7782 9.26553 31.031 9.26553C31.2789 9.26553 31.4784 9.24915 31.6996 9.24915C32.2227 9.2503 32.7046 9.39486 32.706 9.99786C32.706 10.3731 32.4582 10.6072 32.1377 10.7379L32.8353 11.7827C32.9513 11.9549 33.0236 11.9978 33.2257 12.0237L33.2409 12.026V12.1844H33.2231V12.1844ZM31.2885 10.8027H31.5723L31.5772 10.8119C31.8478 11.289 32.1204 11.7371 32.4262 12.1489C32.5529 12.1489 32.6862 12.1319 32.8155 12.1319C32.9482 12.1319 33.076 12.1463 33.2053 12.1483V12.0573C33.0103 12.0331 32.9191 11.975 32.8057 11.8025L32.0833 10.7211L32.1037 10.7128C32.4285 10.5849 32.6689 10.3629 32.6692 9.99775C32.6689 9.42152 32.2215 9.28793 31.6996 9.28563C31.4804 9.28563 31.2812 9.30204 31.031 9.30204C30.7872 9.30204 30.541 9.28678 30.4051 9.28563V9.37375H30.4621C30.5911 9.37407 30.7748 9.39535 30.7748 9.70753V11.8177C30.7748 11.9845 30.6184 12.0605 30.4621 12.0608H30.4051V12.1483C30.6049 12.1477 30.7941 12.1319 30.989 12.1319C31.2213 12.1319 31.4554 12.1478 31.6852 12.1483V12.0608H31.6284C31.439 12.0605 31.2703 12.0369 31.2703 11.7092V10.8027H31.2884H31.2885ZM31.2885 10.6886H31.2703V9.41694L31.2861 9.4155C31.3428 9.41121 31.399 9.39938 31.5245 9.39938C31.9028 9.39938 32.1487 9.6453 32.1492 10.024C32.1481 10.5198 31.9103 10.6883 31.4917 10.6886H31.2885V10.6886ZM31.4917 10.6529C31.9028 10.6495 32.1095 10.5066 32.1138 10.024C32.1115 9.66114 31.8861 9.43595 31.5245 9.43451C31.4122 9.43451 31.3595 9.44488 31.3065 9.44951V10.6529H31.4917ZM36.042 11.3481L36.0495 11.34V9.78266C36.0495 9.44171 35.8131 9.39218 35.6888 9.39218H35.5978V9.26746C35.7927 9.26746 35.9833 9.28387 36.1788 9.28387C36.3492 9.28387 36.5188 9.26746 36.6901 9.26746V9.39218H36.6276C36.4532 9.39218 36.2579 9.42527 36.2579 9.91945V11.8097C36.2579 11.9548 36.262 12.0999 36.2824 12.2287H36.125L33.987 9.84461V11.556C33.987 11.9174 34.0575 12.0415 34.3771 12.0415H34.4476V12.1668C34.2694 12.1668 34.0906 12.1504 33.9124 12.1504C33.7249 12.1504 33.5341 12.1668 33.3475 12.1668V12.0415H33.4051C33.6919 12.0415 33.7791 11.8468 33.7791 11.5148V9.76542C33.7791 9.53302 33.5882 9.39221 33.4017 9.39221H33.3475V9.26752C33.5048 9.26752 33.6674 9.2839 33.8249 9.2839C33.9487 9.2839 34.0696 9.26752 34.1943 9.26752L36.042 11.3481Z" fill="#211E1F"/>
<path d="M36.2824 12.2465L36.1115 12.2407L34.0043 9.89151V11.5557C34.0092 11.9171 34.0639 12.0196 34.3771 12.0236H34.465V12.1843H34.4468C34.2672 12.1843 34.0892 12.1673 33.9113 12.1673C33.7259 12.1673 33.5342 12.1843 33.3473 12.1843H33.3286V12.0236H33.4049C33.679 12.0225 33.7576 11.846 33.7602 11.5136V9.76538C33.7599 9.54419 33.5788 9.41003 33.4015 9.40971H33.3286V9.24905H33.3473C33.5057 9.24905 33.6681 9.26544 33.8247 9.26544C33.9467 9.26544 34.0671 9.24905 34.2064 9.25478L36.0315 11.3103V9.78234C36.0303 9.45233 35.8092 9.41144 35.6886 9.40974H35.5788V9.24905H35.597C35.7934 9.24905 35.9845 9.26544 36.1785 9.26544C36.3479 9.26544 36.518 9.24905 36.689 9.24905H36.7071V9.40974H36.6274C36.4561 9.41435 36.2796 9.42958 36.2753 9.91945V11.8094C36.2753 11.9545 36.279 12.0985 36.3 12.2263L36.3023 12.2465H36.2824ZM36.1247 12.2102H36.2612C36.243 12.0855 36.239 11.9473 36.239 11.8094V9.91942C36.2393 9.42091 36.4495 9.37487 36.6274 9.37343H36.6708V9.2856C36.5079 9.28675 36.3435 9.30172 36.1785 9.30172C35.988 9.30172 35.8028 9.28675 35.6148 9.2856V9.37343H35.6885C35.8163 9.37487 36.068 9.43073 36.068 9.78234L36.0623 11.3524L36.0542 11.361L36.0415 11.3742L34.1938 9.28562C34.0705 9.28562 33.9502 9.30175 33.8247 9.30175C33.671 9.30175 33.5158 9.28678 33.3646 9.28562V9.37345H33.4014C33.5964 9.37489 33.7965 9.52205 33.7965 9.76538V11.5136C33.7965 11.8471 33.7026 12.0593 33.4049 12.0605L33.3646 12.0602V12.148C33.544 12.1472 33.7291 12.1322 33.9114 12.1322C34.0856 12.1322 34.258 12.1472 34.4296 12.148V12.0605H34.3772C34.0501 12.0602 33.9684 11.9171 33.9678 11.5557V9.79847L36.1247 12.2102ZM36.0418 11.3477L36.0544 11.3359L36.0418 11.3477ZM36.0314 11.34V11.3385L36.0282 11.3354L36.0314 11.34ZM37.3576 11.5727C37.3156 11.7135 37.2655 11.8223 37.2655 11.8963C37.2655 12.0213 37.4402 12.0415 37.5767 12.0415H37.623V12.1667C37.4567 12.1578 37.287 12.1503 37.1198 12.1503C36.9704 12.1503 36.8218 12.1578 36.6721 12.1667V12.0415H36.6971C36.8589 12.0415 36.9963 11.9461 37.0576 11.7713L37.7226 9.86554C37.7762 9.71176 37.8516 9.50414 37.8767 9.3501C38.0089 9.30489 38.1753 9.22195 38.2539 9.17185C38.2668 9.16756 38.274 9.16321 38.287 9.16321C38.2994 9.16321 38.3074 9.16321 38.3166 9.17617C38.3287 9.20899 38.3408 9.24672 38.3541 9.27984L39.1178 11.4523C39.1676 11.5974 39.2168 11.7509 39.2707 11.8759C39.3208 11.9922 39.4083 12.0415 39.5457 12.0415H39.5701V12.1667C39.3833 12.1578 39.1962 12.1503 38.9975 12.1503C38.794 12.1503 38.5858 12.1578 38.3742 12.1667V12.0415H38.4203C38.5153 12.0415 38.6777 12.0253 38.6777 11.9214C38.6777 11.8675 38.6402 11.7555 38.5939 11.6222L38.4324 11.1404H37.4901L37.3576 11.5727ZM37.9633 9.73252H37.955L37.5689 10.908H38.3448L37.9633 9.73252Z" fill="#211E1F"/>
<path d="M39.5679 12.1843C39.3811 12.1759 39.1942 12.1673 38.9965 12.1673C38.7929 12.1673 38.5862 12.1759 38.3737 12.1843L38.355 12.1854V12.023H38.4189C38.5151 12.023 38.6579 12.0011 38.6579 11.9214C38.659 11.8741 38.6216 11.7601 38.5758 11.628L38.4177 11.1583H37.502L37.373 11.5778C37.3309 11.7195 37.2812 11.8292 37.2814 11.8969C37.2828 11.9983 37.438 12.023 37.5756 12.023H37.6396V12.1854L37.6209 12.1843C37.4547 12.1759 37.2852 12.1673 37.1196 12.1673C36.9708 12.1673 36.8211 12.1759 36.6722 12.1843L36.653 12.1854V12.023H36.6959C36.8504 12.0224 36.9794 11.9346 37.0393 11.7656L37.7041 9.85953C37.7585 9.70547 37.8334 9.49842 37.8693 9.33284C37.9995 9.28878 38.1661 9.20527 38.2462 9.15458C38.2577 9.15084 38.2693 9.14508 38.2863 9.14508C38.2963 9.14479 38.3188 9.14738 38.332 9.1693C38.3438 9.20354 38.3568 9.24043 38.3694 9.27412L39.1341 11.4463C39.1831 11.592 39.2326 11.7455 39.2867 11.8682C39.3348 11.979 39.4111 12.0225 39.5447 12.0231H39.587V12.1855L39.5679 12.1843ZM38.3913 12.1471C38.5968 12.1399 38.7981 12.1319 38.9965 12.1319C39.1893 12.1319 39.3698 12.1399 39.5503 12.1471V12.0604H39.5446C39.4024 12.0613 39.3042 12.0055 39.2532 11.8831C39.1991 11.7569 39.1484 11.6029 39.0998 11.4574L38.3354 9.28558C38.3228 9.25246 38.3107 9.21474 38.2997 9.18537C38.2963 9.18134 38.2971 9.18133 38.2937 9.18133H38.2861C38.2775 9.18133 38.2726 9.18393 38.262 9.18681C38.182 9.23893 38.0153 9.32042 37.8923 9.35296C37.8667 9.5102 37.7921 9.71753 37.738 9.87131L37.0735 11.7777C37.0102 11.9579 36.8648 12.0607 36.6958 12.0604H36.6892V12.1471C36.8314 12.1399 36.9753 12.1319 37.1196 12.1319C37.2799 12.1319 37.4441 12.1399 37.6024 12.1471V12.0604H37.5756C37.4406 12.0587 37.2517 12.0434 37.2466 11.8969C37.2468 11.8139 37.2978 11.7077 37.3384 11.5675L37.3565 11.5729L37.3384 11.5668L37.4751 11.1228H38.4431L38.6097 11.6164C38.6564 11.7497 38.6941 11.8603 38.6941 11.9214C38.6884 12.0489 38.513 12.0579 38.4189 12.0605H38.3912V12.1471H38.3913ZM37.5425 10.9258L37.9401 9.71434H37.9626V9.73248L37.958 9.73334L37.9626 9.73248V9.71434H37.975L38.3691 10.9258H37.5425ZM37.5923 10.8898H38.319L37.9576 9.77683L37.5923 10.8898ZM37.9444 9.73769L37.9539 9.73452L37.9444 9.73769ZM39.7517 9.47475C39.4401 9.47475 39.4278 9.54965 39.3652 9.85256H39.2406C39.257 9.73651 39.278 9.62046 39.291 9.49951C39.3076 9.38317 39.3152 9.26738 39.3152 9.14704H39.4154C39.4485 9.27173 39.5527 9.26741 39.6641 9.26741H41.807C41.9184 9.26741 42.0221 9.26338 42.0307 9.13843L42.13 9.15513C42.1142 9.26741 42.0978 9.37946 42.0851 9.49174C42.0762 9.60379 42.0762 9.71607 42.0762 9.8278L41.9518 9.87416C41.944 9.72067 41.9233 9.47475 41.6449 9.47475H40.964V11.6846C40.964 12.0049 41.1097 12.0415 41.3084 12.0415H41.3872V12.1667C41.2254 12.1667 40.9352 12.1503 40.7106 12.1503C40.4619 12.1503 40.1708 12.1667 40.009 12.1667V12.0415H40.0876C40.3165 12.0415 40.4328 12.021 40.4328 11.6933V9.47475H39.7517Z" fill="#211E1F"/>
<path d="M41.3873 12.1843C41.2244 12.1843 40.9336 12.1676 40.7107 12.1676C40.4625 12.1676 40.1718 12.1843 40.0091 12.1843H39.9907V12.0237H40.0877C40.3165 12.0182 40.4084 12.0153 40.4142 11.6933L40.4136 9.49297H39.7517V9.45637H40.4502V11.6933C40.4502 12.0265 40.3157 12.0593 40.0877 12.0602H40.0267V12.1489C40.191 12.1471 40.4697 12.1322 40.7107 12.1322C40.9275 12.1322 41.2051 12.1472 41.3691 12.1489V12.0602H41.3078C41.1083 12.0593 40.9465 12.0112 40.946 11.6847V9.45637H41.645C41.9236 9.45752 41.9602 9.69452 41.968 9.84859L42.0587 9.81547C42.0587 9.70719 42.059 9.59863 42.067 9.48978C42.0785 9.38294 42.0941 9.27639 42.1094 9.17039L42.0466 9.15974C42.0276 9.28068 41.9104 9.28733 41.8071 9.28558H39.6432C39.5453 9.28673 39.4393 9.28097 39.4016 9.16434H39.3337C39.3325 9.27953 39.3247 9.39129 39.3083 9.50187C39.2974 9.6162 39.2769 9.7262 39.2614 9.83534H39.3504C39.4054 9.5459 39.4413 9.45202 39.7517 9.45637V9.49294C39.4439 9.49816 39.4508 9.55025 39.3828 9.85723L39.3797 9.87134H39.2196L39.2222 9.85057C39.2395 9.7334 39.2602 9.61761 39.2723 9.49752C39.2893 9.38147 39.2974 9.26628 39.2974 9.14706V9.12892H39.4286L39.4321 9.14188C39.4612 9.2467 39.5368 9.24728 39.6431 9.24901L39.6641 9.24958H41.807C41.9216 9.24731 42.0054 9.24555 42.0126 9.1373L42.0137 9.11743L42.0333 9.12149L42.1511 9.13992L42.1479 9.15806C42.1309 9.26922 42.1151 9.38153 42.1024 9.49297C42.0941 9.60355 42.0941 9.71615 42.0941 9.82788V9.84084L42.0823 9.84545L41.9352 9.89901L41.9343 9.87479C41.9236 9.71874 41.9072 9.49294 41.645 9.49294H40.9819V11.6847C40.9863 11.998 41.1103 12.0196 41.3078 12.0236H41.4051V12.1843L41.3873 12.1843ZM42.2834 12.0415H42.3416C42.4916 12.0415 42.6484 12.0213 42.6484 11.8051V9.62915C42.6484 9.41257 42.4916 9.39216 42.3416 9.39216H42.2834V9.26746C42.4455 9.26746 42.6943 9.28388 42.8972 9.28388C43.1057 9.28388 43.3547 9.26746 43.5499 9.26746V9.39216H43.4917C43.3423 9.39216 43.184 9.4126 43.184 9.62915V11.8051C43.184 12.0213 43.3423 12.0415 43.4917 12.0415H43.5499V12.1668C43.3504 12.1668 43.1011 12.1504 42.8941 12.1504C42.6902 12.1504 42.4455 12.1668 42.2834 12.1668V12.0415Z" fill="#211E1F"/>
<path d="M43.5496 12.1844C43.349 12.1844 43.1005 12.1674 42.8935 12.1674C42.6905 12.1674 42.4452 12.1844 42.2831 12.1844H42.265V12.0237H42.3413C42.4913 12.0214 42.6289 12.0084 42.6295 11.8051V9.62921C42.6289 9.42648 42.4913 9.41263 42.3413 9.40978H42.265V9.2497H42.2831C42.4452 9.2497 42.6946 9.26554 42.8969 9.26554C43.104 9.26554 43.353 9.2497 43.5496 9.2497H43.5672V9.40978H43.4915C43.3397 9.41266 43.2036 9.42648 43.2015 9.62921V11.8051C43.2036 12.0084 43.3398 12.0214 43.4915 12.0237H43.5672V12.1844H43.5496ZM43.5309 12.1481V12.0602H43.4915C43.3426 12.0602 43.1664 12.0341 43.1664 11.8051V9.62921C43.1664 9.3997 43.3426 9.37378 43.4915 9.37378H43.5309V9.28567C43.3392 9.28682 43.0994 9.30179 42.8969 9.30179C42.7003 9.30179 42.4622 9.28682 42.3013 9.28567V9.37378H42.3413C42.489 9.37378 42.6658 9.3997 42.6664 9.62921V11.8051C42.6658 12.034 42.489 12.0602 42.3413 12.0602H42.3013V12.1481C42.4614 12.1463 42.6963 12.1322 42.8935 12.1322C43.0948 12.1322 43.3352 12.1472 43.5309 12.1481H43.5309ZM45.2052 9.20532C46.0902 9.20532 46.7956 9.75419 46.7956 10.6385C46.7956 11.5941 46.1106 12.229 45.2268 12.229C44.3458 12.229 43.6739 11.6309 43.6739 10.7379C43.6739 9.87427 44.3418 9.20532 45.2052 9.20532ZM45.268 12.0461C46.0735 12.0461 46.2137 11.3354 46.2137 10.7298C46.2137 10.1228 45.8867 9.38789 45.1972 9.38789C44.4705 9.38789 44.2549 10.0358 44.2549 10.5919C44.2549 11.3354 44.5952 12.0461 45.268 12.0461Z" fill="#211E1F"/>
<path d="M43.6554 10.7378C43.6572 9.86415 44.3332 9.18829 45.2052 9.18713V9.22281C44.3519 9.22281 43.6914 9.88315 43.6906 10.7378C43.6926 11.6207 44.355 12.2099 45.2268 12.2102C46.102 12.2099 46.7772 11.5839 46.7786 10.6376C46.7777 9.76451 46.083 9.22397 45.2052 9.22281V9.18713C46.0971 9.18771 46.812 9.74205 46.8137 10.6376C46.8129 11.6032 46.119 12.2448 45.2268 12.2465C44.3389 12.2448 43.6572 11.6406 43.6555 10.7378H43.6554V10.7378ZM44.237 10.5918C44.2381 10.0332 44.4564 9.36913 45.1974 9.36913C45.9022 9.37089 46.2313 10.1196 46.2324 10.7298C46.2313 11.3354 46.0888 12.0634 45.2683 12.0634V12.0282C46.0577 12.0271 46.1945 11.3354 46.1964 10.7298C46.1964 10.1277 45.8722 9.40688 45.1974 9.40599C44.4852 9.40685 44.2744 10.0387 44.273 10.5918C44.2736 11.3316 44.6107 12.0265 45.2683 12.0282V12.0634C44.579 12.0625 44.2381 11.3397 44.237 10.5918ZM49.5936 11.3481L49.6019 11.34V9.78265C49.6019 9.4417 49.3647 9.39217 49.2401 9.39217H49.1502V9.26745C49.3448 9.26745 49.5357 9.28386 49.7303 9.28386C49.9011 9.28386 50.0712 9.26745 50.2416 9.26745V9.39217H50.1789C50.005 9.39217 49.8095 9.42526 49.8095 9.91944V11.8097C49.8095 11.9548 49.8136 12.0999 49.8346 12.2287H49.6771L47.5385 9.8446V11.556C47.5385 11.9174 47.6088 12.0415 47.9283 12.0415H47.9994V12.1668C47.8207 12.1668 47.6425 12.1504 47.4639 12.1504C47.2771 12.1504 47.0856 12.1668 46.8988 12.1668V12.0415H46.9572C47.2443 12.0415 47.3304 11.8468 47.3304 11.5148V9.7654C47.3304 9.53301 47.1403 9.3922 46.9529 9.3922H46.8988V9.26751C47.0565 9.26751 47.2186 9.28389 47.3761 9.28389C47.5008 9.28389 47.6209 9.26751 47.7458 9.26751L49.5936 11.3481Z" fill="#211E1F"/>
<path d="M49.8343 12.2465L49.6624 12.2404L47.5558 9.89148V11.556C47.5604 11.9171 47.6154 12.0193 47.9272 12.023H48.017V12.1843H47.9989C47.8189 12.1843 47.6407 12.1676 47.4634 12.1676C47.2771 12.1676 47.0865 12.1843 46.8979 12.1843H46.8806V12.023H46.9566C47.2304 12.0222 47.309 11.846 47.3125 11.5148V9.76538C47.3119 9.54422 47.1308 9.41002 46.9523 9.40974H46.8806V9.24963H46.8979C47.0571 9.24963 47.2189 9.26549 47.3755 9.26549C47.4988 9.26549 47.6185 9.24963 47.759 9.2557L49.5832 11.3103V9.78297C49.582 9.45241 49.3609 9.41264 49.2394 9.40976H49.1303V9.24968H49.149C49.3445 9.24968 49.5359 9.26552 49.7291 9.26552C49.8995 9.26552 50.0688 9.24968 50.241 9.24968H50.2588V9.40976H50.1782C50.0075 9.41466 49.8307 9.43021 49.8273 9.91947V11.8094C49.8273 11.9545 49.8304 12.0994 49.8506 12.2263L49.854 12.2465H49.8343V12.2465ZM49.6765 12.2102H49.8124C49.7943 12.0855 49.7911 11.9473 49.7911 11.8093V9.91941C49.7911 9.42007 50.0004 9.37486 50.1784 9.37342H50.2232V9.28559C50.0595 9.28675 49.8954 9.30172 49.7293 9.30172C49.5404 9.30172 49.3546 9.28675 49.1667 9.28559V9.37342H49.2395C49.3682 9.37486 49.6187 9.43162 49.6187 9.78291L49.6141 11.3523L49.6063 11.361L49.5931 11.3742L47.7453 9.28562C47.623 9.28562 47.5017 9.30175 47.3757 9.30175C47.2228 9.30175 47.067 9.28677 46.9159 9.28562V9.37345H46.9524C47.1474 9.37489 47.348 9.52204 47.348 9.76538V11.5148C47.348 11.8468 47.2553 12.0593 46.9567 12.0605L46.9159 12.0602V12.148C47.0961 12.1472 47.2809 12.1322 47.4634 12.1322C47.6365 12.1322 47.8084 12.1472 47.9808 12.148V12.0605H47.9273C47.6014 12.0602 47.5199 11.9171 47.5199 11.5559V9.79789L49.6765 12.2102ZM49.593 11.3477L49.6062 11.3359L49.593 11.3477ZM49.5832 11.34V11.3385L49.5798 11.3353L49.5832 11.34ZM50.9082 11.5726C50.8676 11.7134 50.8172 11.8223 50.8172 11.8963C50.8172 12.0213 50.992 12.0414 51.1282 12.0414H51.1745V12.1667C51.0084 12.1577 50.838 12.1503 50.6719 12.1503C50.5219 12.1503 50.373 12.1578 50.2242 12.1667V12.0414H50.2478C50.4104 12.0414 50.5481 11.9461 50.6094 11.7713L51.2745 9.86553C51.328 9.71176 51.4031 9.50413 51.4274 9.3501C51.5603 9.30489 51.7262 9.22195 51.8059 9.17185C51.8177 9.16756 51.8261 9.16321 51.8387 9.16321C51.8511 9.16321 51.8589 9.16321 51.8673 9.17617C51.8799 9.20899 51.8929 9.24672 51.9053 9.27983L52.6688 11.4523C52.7186 11.5974 52.7681 11.7509 52.8228 11.8759C52.8726 11.9922 52.9601 12.0414 53.0966 12.0414H53.122V12.1667C52.9348 12.1578 52.748 12.1503 52.5485 12.1503C52.3455 12.1503 52.1376 12.1578 51.9257 12.1667V12.0414H51.9718C52.0665 12.0414 52.2295 12.0253 52.2295 11.9214C52.2295 11.8675 52.1917 11.7555 52.1454 11.6222L51.9842 11.1404H51.0416L50.9082 11.5726ZM51.5151 9.73252H51.5068L51.1201 10.908H51.8971L51.5151 9.73252Z" fill="#211E1F"/>
<path d="M53.1206 12.1844C52.9337 12.1769 52.7472 12.1677 52.5489 12.1677C52.3464 12.1677 52.1386 12.1769 51.9267 12.1844L51.9083 12.1855V12.0237H51.9713C52.068 12.0237 52.2111 12.0012 52.2114 11.9214C52.2122 11.8742 52.1748 11.761 52.1285 11.628L51.9707 11.1583H51.0544L50.9259 11.5779C50.8845 11.7201 50.8349 11.8293 50.8358 11.8964C50.8358 11.9983 50.9912 12.0237 51.1286 12.0237H51.1919V12.1855L51.1735 12.1844C51.0074 12.1769 50.8375 12.1677 50.6723 12.1677C50.5235 12.1677 50.3743 12.1769 50.2246 12.1844L50.2064 12.1855V12.0237H50.2482C50.4031 12.0231 50.5326 11.9341 50.5931 11.7657L51.2576 9.85959C51.3106 9.70553 51.3854 9.49848 51.4222 9.33347C51.5527 9.28826 51.7193 9.20533 51.8 9.15462C51.8109 9.15087 51.8222 9.14598 51.8391 9.14598C51.8501 9.14482 51.8713 9.14742 51.8846 9.17017C51.897 9.20274 51.9091 9.24043 51.9229 9.27412L52.6864 11.4463C52.736 11.592 52.7858 11.7455 52.8396 11.869C52.8882 11.979 52.9639 12.0225 53.0964 12.0237H53.1396V12.1855L53.1206 12.1844ZM51.944 12.1478C52.1492 12.14 52.3513 12.1319 52.5489 12.1319C52.742 12.1319 52.9231 12.14 53.1039 12.1472L53.1033 12.0605H53.0964C52.9559 12.0608 52.8578 12.0055 52.8062 11.8831C52.7515 11.757 52.702 11.6029 52.6525 11.458L51.8883 9.28564C51.876 9.25253 51.8633 9.2148 51.8532 9.18658C51.8498 9.1814 51.8501 9.1814 51.8469 9.1814H51.8391C51.8305 9.1814 51.8258 9.18428 51.8158 9.18716C51.7349 9.23813 51.5685 9.32103 51.4456 9.35303C51.4199 9.51026 51.3445 9.71731 51.291 9.87137L50.6262 11.7777C50.5631 11.958 50.4181 12.0608 50.2482 12.0605H50.2421V12.1472C50.3849 12.14 50.5277 12.1319 50.6722 12.1319C50.8332 12.1319 50.997 12.14 51.1568 12.1472V12.0605H51.1286C50.9936 12.0588 50.8041 12.0441 50.7992 11.8964C50.8001 11.814 50.8516 11.7083 50.8916 11.5675L50.9086 11.5729L50.8916 11.5669L51.0284 11.1229H51.9966L52.163 11.6164C52.2088 11.7501 52.2465 11.8604 52.2465 11.9214C52.2404 12.049 52.0663 12.0579 51.9712 12.0605H51.9439V12.1478H51.944ZM51.0958 10.9257L51.4939 9.71443H51.5155V9.73257L51.5112 9.73343L51.5155 9.73257V9.71443H51.5285L51.9209 10.9257H51.0958ZM51.1456 10.8899H51.8717L51.5106 9.77749L51.1456 10.8899ZM51.4983 9.73778L51.5066 9.73461L51.4983 9.73778ZM54.1685 11.7596C54.1685 11.9258 54.2837 11.9753 54.4167 11.9923C54.5869 12.0049 54.7737 12.0049 54.9655 11.9839C55.1393 11.9629 55.2891 11.8633 55.3633 11.7596C55.4295 11.668 55.467 11.5517 55.492 11.4604H55.6124C55.5669 11.6971 55.5087 11.9303 55.4586 12.1668C55.0941 12.1668 54.728 12.1504 54.3631 12.1504C53.9972 12.1504 53.6325 12.1668 53.2671 12.1668V12.0415H53.3241C53.4744 12.0415 53.6368 12.0213 53.6368 11.7636V9.62919C53.6368 9.41261 53.4744 9.39219 53.3241 9.39219H53.2671V9.2675C53.4865 9.2675 53.7027 9.28391 53.9224 9.28391C54.1348 9.28391 54.3422 9.2675 54.554 9.2675V9.39219H54.4495C54.2923 9.39219 54.1685 9.3968 54.1685 9.61623V11.7596Z" fill="#211E1F"/>
<path d="M55.4603 12.1843C55.0944 12.1843 54.7291 12.1676 54.3649 12.1676C53.9992 12.1676 53.6339 12.1843 53.268 12.1843H53.2504V12.0237H53.3258C53.4764 12.0202 53.6186 12.0098 53.6204 11.7636V9.62836C53.6186 9.4265 53.4772 9.41267 53.3258 9.40977H53.2504V9.24968H53.268C53.4888 9.24968 53.705 9.26552 53.9243 9.26552C54.1351 9.26552 54.3424 9.24968 54.5557 9.24968H54.5728V9.40977H54.4515C54.2906 9.41437 54.1904 9.40689 54.1872 9.61627V11.7596C54.1884 11.9143 54.2898 11.956 54.4193 11.9742C54.4927 11.9793 54.5696 11.9825 54.6496 11.9825C54.7512 11.9825 54.8569 11.9776 54.964 11.9661C55.1333 11.9463 55.279 11.8486 55.3504 11.7495C55.4143 11.6608 55.4512 11.5468 55.4759 11.4561L55.4797 11.4423H55.636L55.6322 11.4642C55.5853 11.7018 55.5283 11.9339 55.4779 12.1703L55.4745 12.1844H55.4603V12.1843ZM55.4453 12.1481C55.4934 11.9229 55.5479 11.7025 55.5925 11.4779H55.5072C55.4813 11.5684 55.4445 11.6798 55.3791 11.7705C55.3017 11.8782 55.1479 11.9796 54.968 12.0017C54.8592 12.013 54.7515 12.0187 54.6496 12.0187C54.5693 12.0187 54.4913 12.015 54.4161 12.0098C54.2811 11.9948 54.1501 11.9372 54.1507 11.7596V9.61621C54.1507 9.38555 54.2966 9.37374 54.4515 9.37374H54.5373V9.28562C54.3326 9.28678 54.1311 9.30201 53.9243 9.30201C53.7093 9.30201 53.4991 9.28678 53.286 9.28562V9.37374H53.3258C53.4741 9.37374 53.6554 9.39966 53.6554 9.62831V11.7636C53.6554 12.0323 53.4749 12.0602 53.3258 12.0602H53.286V12.148C53.6451 12.1477 54.0041 12.1322 54.3648 12.1322C54.7256 12.1322 55.0861 12.1477 55.4453 12.1481ZM55.5637 9.14941C55.8138 9.14941 56.0007 9.34178 56.0007 9.58828C56.0007 9.83363 55.8139 10.0243 55.5637 10.0243C55.3135 10.0243 55.1263 9.83363 55.1263 9.58828C55.1263 9.34181 55.3134 9.14941 55.5637 9.14941ZM55.5637 9.94277C55.7591 9.94277 55.9094 9.77575 55.9094 9.58828C55.9094 9.39966 55.7614 9.2312 55.5637 9.2312C55.367 9.2312 55.2167 9.39969 55.2167 9.58828C55.2167 9.77575 55.367 9.94277 55.5637 9.94277ZM55.346 9.81865V9.79706C55.3998 9.78957 55.4096 9.7913 55.4096 9.75789V9.43421C55.4096 9.38874 55.4047 9.37319 55.348 9.37547V9.3533H55.5717C55.6489 9.3533 55.7194 9.38987 55.7194 9.46935C55.7194 9.53443 55.6762 9.58252 55.616 9.60124L55.6877 9.70142C55.7214 9.74692 55.7591 9.78957 55.7841 9.80451V9.81863H55.699C55.6581 9.81863 55.6224 9.73252 55.5417 9.61705H55.4934V9.76247C55.4934 9.79127 55.5034 9.78954 55.5573 9.79703V9.81863H55.346V9.81865ZM55.4934 9.58828H55.5449C55.6013 9.58828 55.6278 9.54537 55.6278 9.47655C55.6278 9.40686 55.5869 9.38235 55.542 9.38235H55.4934V9.58828Z" fill="#211E1F"/>
<path d="M10.7299 14.5136C14.6957 14.5326 18.3155 11.2786 18.3155 7.31988C18.3155 2.99084 14.6957 -0.00143932 10.7299 5.19397e-07H7.31677C3.3034 -0.00143932 0 2.99174 0 7.31988C0 11.2794 3.3034 14.5326 7.31677 14.5136H10.7299Z" fill="#0079BE"/>
<path d="M7.33437 0.599854C3.66706 0.601005 0.695322 3.57428 0.694458 7.24389C0.695322 10.9129 3.66703 13.8859 7.33437 13.887C11.0025 13.8859 13.9749 10.9129 13.9754 7.24389C13.9749 3.57428 11.0025 0.601005 7.33437 0.599854ZM3.12551 7.24389C3.12897 5.45071 4.24862 3.9216 5.82749 3.31396V11.1729C4.24862 10.5656 3.12894 9.03733 3.12551 7.24389ZM8.84068 11.1746V3.3137C10.4201 3.91987 11.5415 5.44985 11.5444 7.24389C11.5415 9.03849 10.4201 10.5673 8.84068 11.1746Z" fill="white"/>
<path d="M20.6438 3.12254C20.6438 2.43599 20.2859 2.48121 19.9427 2.47375V2.27534C20.2401 2.29002 20.545 2.29002 20.843 2.29002C21.1634 2.29002 21.5984 2.27534 22.1633 2.27534C24.1389 2.27534 25.2148 3.59538 25.2148 4.94708C25.2148 5.703 24.7726 7.6033 22.0714 7.6033C21.6825 7.6033 21.3235 7.5883 20.965 7.5883C20.6218 7.5883 20.2859 7.59582 19.9427 7.6033V7.40518C20.4002 7.35908 20.6218 7.34384 20.6437 6.82464V3.12254H20.6438ZM21.3917 6.70283C21.3917 7.29057 21.8118 7.35911 22.1855 7.35911C23.834 7.35911 24.3753 6.11479 24.3753 4.97732C24.3753 3.55043 23.4594 2.52008 21.9871 2.52008C21.6739 2.52008 21.5299 2.54254 21.3918 2.55063L21.3917 6.70283ZM25.4825 7.40521H25.627C25.8404 7.40521 25.9933 7.40521 25.9933 7.15263V5.08447C25.9933 4.74902 25.8789 4.70234 25.5965 4.55058V4.42819C25.955 4.32049 26.3828 4.17651 26.4127 4.15347C26.4666 4.12294 26.5121 4.11488 26.5504 4.11488C26.5881 4.11488 26.6039 4.16096 26.6039 4.22229V7.15263C26.6039 7.40521 26.7718 7.40521 26.9854 7.40521H27.1149V7.60362C26.8552 7.60362 26.5881 7.58839 26.314 7.58839C26.0393 7.58839 25.7644 7.59587 25.4825 7.60362V7.40521H25.4825ZM26.2987 2.93965C26.1001 2.93965 25.925 2.75653 25.925 2.55809C25.925 2.36688 26.1081 2.19093 26.2987 2.19093C26.4965 2.19093 26.6727 2.35194 26.6727 2.55809C26.6727 2.76428 26.5043 2.93965 26.2987 2.93965ZM27.8398 5.12997C27.8398 4.84776 27.7554 4.77174 27.3976 4.6266V4.48178C27.7255 4.37494 28.0379 4.2756 28.4044 4.11491C28.4271 4.11491 28.4496 4.13046 28.4496 4.19122V4.68765C28.8852 4.37495 29.2592 4.11488 29.771 4.11488C30.4188 4.11488 30.6477 4.58827 30.6477 5.1835V7.15266C30.6477 7.40521 30.8155 7.40521 31.0294 7.40521H31.1668V7.60362C30.899 7.60362 30.6322 7.58839 30.3581 7.58839C30.0831 7.58839 29.8081 7.59587 29.5338 7.60362V7.40521H29.6708C29.885 7.40521 30.0368 7.40521 30.0368 7.15266V5.1763C30.0368 4.74061 29.771 4.52722 29.3354 4.52722C29.0916 4.52722 28.7023 4.72566 28.4495 4.89381V7.1526C28.4495 7.40518 28.6182 7.40518 28.8322 7.40518H28.9692V7.60359C28.7023 7.60359 28.4349 7.58833 28.1602 7.58833C27.8858 7.58833 27.6106 7.59585 27.3362 7.60359V7.40518H27.4738C27.6875 7.40518 27.8398 7.40518 27.8398 7.1526V5.12997H27.8398ZM31.7469 5.49681C31.7311 5.56567 31.7311 5.67996 31.7469 5.93971C31.7919 6.66453 32.2585 7.25979 32.868 7.25979C33.288 7.25979 33.6168 7.03085 33.8987 6.74864L34.0052 6.85577C33.654 7.32112 33.2192 7.71792 32.5939 7.71792C31.3804 7.71792 31.1362 6.54214 31.1362 6.05406C31.1362 4.55775 32.1433 4.11485 32.6771 4.11485C33.2955 4.11485 33.9597 4.50393 33.9669 5.31309C33.9669 5.35945 33.9669 5.40466 33.9597 5.45103L33.8906 5.49681H31.7469ZM33.0978 5.25236C33.288 5.25236 33.3105 5.15301 33.3105 5.06172C33.3105 4.67236 33.0741 4.35934 32.6466 4.35934C32.1816 4.35934 31.8612 4.70231 31.7696 5.25236H33.0978ZM34.1426 7.40521H34.3487C34.5617 7.40521 34.7143 7.40521 34.7143 7.15263V5.00813C34.7143 4.77171 34.4325 4.72563 34.3176 4.66458V4.55055C34.8747 4.31355 35.1802 4.11485 35.2495 4.11485C35.2947 4.11485 35.3172 4.13789 35.3172 4.21449V4.90129H35.3333C35.5236 4.60382 35.8447 4.11485 36.3096 4.11485C36.5005 4.11485 36.7444 4.24444 36.7444 4.51945C36.7444 4.72563 36.5998 4.90936 36.3862 4.90936C36.1487 4.90936 36.1487 4.72563 35.8821 4.72563C35.7523 4.72563 35.3253 4.90129 35.3253 5.35945V7.15263C35.3253 7.40518 35.4776 7.40518 35.6915 7.40518H36.1185V7.60362C35.6987 7.59582 35.3794 7.58836 35.0506 7.58836C34.738 7.58836 34.4172 7.59585 34.1426 7.60362V7.40521H34.1426ZM37.0803 6.54214C37.1797 7.04608 37.4846 7.47375 38.0419 7.47375C38.491 7.47375 38.6591 7.19903 38.6591 6.93179C38.6591 6.03102 36.9962 6.32101 36.9962 5.09225C36.9962 4.66461 37.3399 4.11488 38.1789 4.11488C38.4228 4.11488 38.7507 4.18399 39.0481 4.3369L39.1022 5.11474H38.9263C38.8503 4.63438 38.5834 4.35939 38.0946 4.35939C37.7894 4.35939 37.4998 4.53508 37.4998 4.86305C37.4998 5.75691 39.2698 5.48132 39.2698 6.67956C39.2698 7.18322 38.8652 7.71797 37.9572 7.71797C37.6521 7.71797 37.2936 7.61114 37.0267 7.4588L36.9427 6.58081L37.0803 6.54214ZM46.1596 3.65698H45.9693C45.8242 2.76428 45.1908 2.40518 44.3366 2.40518C43.4585 2.40518 42.1843 2.99261 42.1843 4.82441C42.1843 6.36734 43.2837 7.47369 44.4584 7.47369C45.2136 7.47369 45.8397 6.95477 45.9923 6.15309L46.1674 6.19859L45.9923 7.313C45.6719 7.51199 44.8096 7.71792 44.3055 7.71792C42.5205 7.71792 41.3916 6.56521 41.3916 4.84773C41.3916 3.28291 42.7877 2.16041 44.283 2.16041C44.9009 2.16041 45.496 2.35968 46.0836 2.56587L46.1596 3.65698ZM46.4349 7.40521H46.5794C46.7933 7.40521 46.9465 7.40521 46.9465 7.15263V2.90167C46.9465 2.40521 46.8319 2.38992 46.5417 2.30612V2.18402C46.8469 2.08499 47.1673 1.94731 47.3277 1.85548C47.4109 1.80998 47.4725 1.77136 47.4949 1.77136C47.5416 1.77136 47.5568 1.81747 47.5568 1.87877V7.15263C47.5568 7.40521 47.7244 7.40521 47.9383 7.40521H48.067V7.60362C47.8087 7.60362 47.5416 7.58836 47.2666 7.58836C46.9923 7.58836 46.7176 7.59587 46.4348 7.60362V7.40521H46.4349ZM51.334 7.18319C51.334 7.32112 51.4175 7.32861 51.5471 7.32861C51.6389 7.32861 51.7529 7.32112 51.8525 7.32112V7.48181C51.5241 7.51205 50.8984 7.67245 50.7533 7.71794L50.715 7.69488V7.07721C50.2578 7.45097 49.9063 7.71794 49.3642 7.71794C48.9522 7.71794 48.525 7.45097 48.525 6.81024V4.85551C48.525 4.6571 48.4947 4.46614 48.0681 4.42816V4.28303C48.343 4.27554 48.9522 4.22972 49.0518 4.22972C49.1365 4.22972 49.1365 4.28303 49.1365 4.45091V6.41972C49.1365 6.64926 49.1365 7.30552 49.7998 7.30552C50.0592 7.30552 50.4024 7.10711 50.7225 6.84073V4.78637C50.7225 4.63432 50.3566 4.55052 50.0825 4.47389V4.33653C50.7683 4.29045 51.1964 4.22969 51.2721 4.22969C51.334 4.22969 51.334 4.28297 51.334 4.36734V7.18319H51.334ZM52.8522 4.66461C53.1571 4.40512 53.5691 4.11488 53.9891 4.11488C54.8744 4.11488 55.4079 4.88664 55.4079 5.71797C55.4079 6.71783 54.6758 7.71792 53.584 7.71792C53.0197 7.71792 52.7223 7.53448 52.5237 7.45094L52.2951 7.62603L52.1353 7.54254C52.203 7.09216 52.2418 6.64926 52.2418 6.18391V2.90164C52.2418 2.40521 52.1267 2.38992 51.837 2.30612V2.18402C52.1431 2.08499 52.4626 1.94731 52.623 1.85545C52.7071 1.80995 52.7678 1.77136 52.7914 1.77136C52.8369 1.77136 52.8522 1.81747 52.8522 1.87877V4.66458H52.8522V4.66461ZM52.8522 6.74058C52.8522 7.03085 53.1266 7.51982 53.6379 7.51982C54.4544 7.51982 54.7975 6.71783 54.7975 6.03825C54.7975 5.21409 54.1725 4.52728 53.5772 4.52728C53.2941 4.52728 53.058 4.71072 52.8522 4.88664V6.74058H52.8522ZM19.934 12.0415H19.9924C20.1415 12.0415 20.2993 12.0213 20.2993 11.8051V9.62916C20.2993 9.41258 20.1415 9.39217 19.9924 9.39217H19.934V9.26748C20.096 9.26748 20.3451 9.28389 20.5492 9.28389C20.7565 9.28389 21.0052 9.26748 21.2004 9.26748V9.39217H21.142C20.9932 9.39217 20.8351 9.41261 20.8351 9.62916V11.8051C20.8351 12.0213 20.9932 12.0415 21.142 12.0415H21.2004V12.1668C21.0012 12.1668 20.7516 12.1504 20.5446 12.1504C20.3411 12.1504 20.096 12.1668 19.934 12.1668V12.0415Z" fill="white"/>
<path d="M21.2003 12.1843C20.9997 12.1843 20.7509 12.1676 20.5442 12.1676C20.3412 12.1676 20.0971 12.1843 19.9338 12.1843H19.916V12.0236H19.992C20.1426 12.0202 20.2796 12.0081 20.2811 11.8051V9.62914C20.2796 9.42612 20.1426 9.41256 19.992 9.40971H19.916V9.24902H19.9338C20.0971 9.24902 20.3459 9.26544 20.5488 9.26544C20.7555 9.26544 21.004 9.24902 21.2003 9.24902H21.2188V9.40971H21.1422C20.9916 9.41259 20.8537 9.42612 20.8528 9.62914V11.8051C20.8537 12.0081 20.9916 12.0202 21.1422 12.0236H21.2187V12.1843H21.2003ZM21.1825 12.1489V12.0602H21.1422C20.9939 12.0602 20.8174 12.0345 20.8165 11.8051V9.62914C20.8174 9.39963 20.9939 9.37371 21.1422 9.37371H21.1825V9.2856C20.9907 9.2856 20.7503 9.30172 20.5488 9.30172C20.3516 9.30172 20.1129 9.28675 19.9523 9.2856V9.37371H19.992C20.14 9.37371 20.317 9.39963 20.317 9.62914V11.8051C20.317 12.0346 20.14 12.0602 19.992 12.0602H19.9523V12.1489C20.1129 12.1471 20.3475 12.1322 20.5442 12.1322C20.7463 12.1322 20.9867 12.1477 21.1825 12.1489ZM24.0526 11.348L24.0609 11.34V9.78263C24.0609 9.44167 23.824 9.39214 23.6996 9.39214H23.608V9.26742C23.8035 9.26742 23.9944 9.28384 24.1893 9.28384C24.3594 9.28384 24.5305 9.26742 24.7003 9.26742V9.39214H24.6381C24.4634 9.39214 24.2682 9.42523 24.2682 9.91941V11.8096C24.2682 11.9548 24.2725 12.0999 24.2929 12.2287H24.1349L21.9972 9.84457V11.556C21.9972 11.9174 22.0672 12.0415 22.3873 12.0415H22.4575V12.1667C22.2794 12.1667 22.1011 12.1503 21.9223 12.1503C21.736 12.1503 21.5449 12.1667 21.3578 12.1667V12.0415H21.4159C21.7024 12.0415 21.7894 11.8468 21.7894 11.5148V9.76538C21.7894 9.53299 21.5979 9.39217 21.4119 9.39217H21.3578V9.26748C21.5155 9.26748 21.6774 9.28387 21.8349 9.28387C21.9595 9.28387 22.0802 9.26748 22.2045 9.26748L24.0526 11.348Z" fill="white"/>
<path d="M24.2933 12.2468L24.122 12.2404L22.0151 9.89147V11.5559C22.02 11.917 22.075 12.0196 22.3876 12.0236H22.4766V12.1843H22.4582C22.2785 12.1843 22.0997 12.1676 21.9226 12.1676C21.7366 12.1676 21.5461 12.1843 21.3578 12.1843H21.3396V12.0236H21.4162C21.6906 12.0222 21.7689 11.8459 21.7721 11.5148V9.76563C21.7715 9.54446 21.5901 9.41027 21.4122 9.40969H21.3396V9.24958H21.3577C21.5164 9.24958 21.679 9.26542 21.8348 9.26542C21.9583 9.26542 22.0787 9.24958 22.2186 9.25563L24.0433 11.3103V9.78293C24.041 9.45234 23.8208 9.4126 23.6998 9.40969H23.5898V9.24958H23.6083C23.8044 9.24958 23.9955 9.26542 24.1895 9.26542C24.3585 9.26542 24.5287 9.24958 24.7003 9.24958H24.7184V9.40967H24.6384C24.4671 9.41459 24.2912 9.42954 24.2863 9.91937V11.8093C24.2863 11.9545 24.2906 12.0996 24.3108 12.2254L24.3148 12.2467H24.2933V12.2468ZM24.1355 12.2102H24.2728C24.2542 12.0855 24.251 11.9473 24.251 11.8093V9.91937C24.251 9.4209 24.4597 9.3737 24.6385 9.3737H24.6822V9.28555C24.5187 9.2867 24.3546 9.30168 24.1897 9.30168C23.9996 9.30168 23.8148 9.2867 23.6268 9.28555L23.6265 9.3737H23.6999C23.8275 9.3737 24.0794 9.43069 24.0794 9.7829L24.0736 11.3523L24.0653 11.361L24.0512 11.3739L22.2049 9.28555C22.0817 9.28555 21.9613 9.30168 21.8349 9.30168C21.6826 9.30168 21.5269 9.2867 21.3763 9.28555L21.3754 9.37367H21.4123C21.6072 9.37367 21.8073 9.52255 21.8073 9.7656V11.5147C21.8073 11.8467 21.7149 12.0592 21.4163 12.0604L21.3763 12.0592V12.1488C21.5562 12.1471 21.7411 12.1321 21.9227 12.1321C22.096 12.1321 22.2685 12.1471 22.44 12.1488V12.0604H22.3877C22.0609 12.0592 21.9797 11.917 21.9794 11.5559V9.79782L24.1355 12.2102ZM24.0529 11.3477L24.0661 11.3356L24.0529 11.3477ZM24.0434 11.3397V11.3382L24.0399 11.3353L24.0434 11.3397ZM25.3222 9.47475C25.0104 9.47475 24.9986 9.54965 24.9365 9.85256H24.8118C24.8282 9.73651 24.8489 9.62046 24.8616 9.49951C24.8783 9.38317 24.8863 9.26738 24.8863 9.14704H24.9862C25.0196 9.27173 25.1233 9.26741 25.2359 9.26741H27.3776C27.4898 9.26741 27.5935 9.26338 27.6021 9.13843L27.7012 9.15513C27.685 9.26741 27.6683 9.37946 27.6557 9.49174C27.6482 9.60379 27.6482 9.71607 27.6482 9.8278L27.5232 9.87416C27.5146 9.72067 27.4939 9.47475 27.216 9.47475H26.5352V11.6846C26.5352 12.0048 26.6806 12.0414 26.8792 12.0414H26.9584V12.1667C26.7966 12.1667 26.5055 12.1503 26.2818 12.1503C26.0328 12.1503 25.7417 12.1667 25.5796 12.1667V12.0414H25.6588C25.8877 12.0414 26.0034 12.021 26.0034 11.6933V9.47475H25.3222Z" fill="white"/>
<path d="M26.9598 12.1844C26.7962 12.1844 26.5058 12.1677 26.2826 12.1677C26.0339 12.1677 25.7434 12.1844 25.5804 12.1844H25.5632V12.0237H25.6596C25.8885 12.0182 25.9806 12.0153 25.9858 11.6933V9.493H25.3231V9.4564H26.0218V11.6933C26.0218 12.0265 25.8877 12.0602 25.6596 12.0605H25.5986V12.148C25.7624 12.1472 26.0417 12.1322 26.2827 12.1322C26.4992 12.1322 26.7767 12.1472 26.9408 12.148V12.0605H26.8801C26.6794 12.0602 26.5179 12.011 26.5179 11.6847V9.4564H27.2169C27.4956 9.45755 27.5319 9.69455 27.5411 9.84861L27.6306 9.8155C27.6306 9.70722 27.6312 9.59866 27.6387 9.48923C27.6508 9.38239 27.666 9.27642 27.6816 9.17045L27.6182 9.15979C27.599 9.28074 27.4823 9.28679 27.3778 9.28563H25.2151C25.1175 9.28563 25.0107 9.28103 24.9735 9.165H24.905C24.9046 9.27773 24.8964 9.3903 24.8805 9.5019C24.8684 9.61596 24.8494 9.72568 24.8339 9.83539H24.9229C24.9775 9.54596 25.0133 9.45208 25.323 9.45643V9.493C25.0161 9.49847 25.0225 9.55031 24.9548 9.85728L24.9517 9.87139H24.7919L24.7942 9.84979C24.8109 9.73345 24.8319 9.61766 24.8443 9.49672C24.8615 9.38153 24.8696 9.26634 24.8696 9.14712V9.12898H25.0012L25.0041 9.14194C25.0326 9.24676 25.1094 9.24733 25.2151 9.24906H27.3778C27.4936 9.24733 27.5776 9.24561 27.5848 9.13701L27.5865 9.11743L27.6053 9.12146L27.7224 9.13992L27.7198 9.15806C27.7031 9.26922 27.6867 9.38153 27.6746 9.49297C27.6663 9.60355 27.6663 9.71586 27.6663 9.82788V9.84084L27.6548 9.84545L27.5077 9.89898L27.5065 9.87479C27.4956 9.71871 27.4792 9.49294 27.2169 9.49294H26.5541V11.6847C26.5579 11.998 26.6822 12.0196 26.88 12.0236H26.9773V12.1843L26.9598 12.1844ZM27.8347 12.0415H27.8932C28.0424 12.0415 28.2004 12.0214 28.2004 11.8051V9.62918C28.2004 9.4126 28.0424 9.39218 27.8932 9.39218H27.8347V9.26749C28.0875 9.26749 28.52 9.28391 28.868 9.28391C29.2175 9.28391 29.6485 9.26749 29.9306 9.26749C29.9238 9.44574 29.9275 9.72047 29.9399 9.90278L29.8146 9.93616C29.7948 9.66636 29.7449 9.45067 29.3088 9.45067H28.7321V10.5383H29.2256C29.4746 10.5383 29.5291 10.3975 29.5535 10.1726H29.6779C29.6699 10.3353 29.6655 10.4972 29.6655 10.659C29.6655 10.8171 29.6698 10.9746 29.6779 11.1324L29.5535 11.1572C29.5291 10.9081 29.5164 10.7462 29.2296 10.7462H28.7322V11.7135C28.7322 11.9839 28.972 11.9839 29.238 11.9839C29.7363 11.9839 29.956 11.9502 30.0807 11.4774L30.197 11.5059C30.1426 11.7265 30.0931 11.9462 30.0562 12.1668C29.7902 12.1668 29.3126 12.1504 28.9394 12.1504C28.5652 12.1504 28.0715 12.1668 27.8347 12.1668V12.0415Z" fill="white"/>
<path d="M30.0558 12.1843C29.7892 12.1843 29.3119 12.1673 28.9391 12.1673C28.5651 12.1673 28.0716 12.1843 27.8347 12.1843H27.8171V12.0236H27.8929C28.0434 12.0213 28.1799 12.0081 28.1819 11.8051V9.62915C28.1799 9.42642 28.0434 9.41288 27.8929 9.40972H27.8171V9.24963H27.8347C28.088 9.24963 28.5199 9.26547 28.868 9.26547C29.2172 9.26547 29.6479 9.24963 29.9306 9.24963H29.9493L29.9484 9.26806C29.9455 9.33055 29.9444 9.40424 29.9444 9.4826C29.9444 9.62627 29.9484 9.78321 29.9568 9.9016L29.9574 9.91657L29.9436 9.92063L29.7976 9.95864L29.7968 9.93733C29.7723 9.66779 29.7363 9.47226 29.3088 9.46823H28.7494L28.7488 10.5196H29.2256C29.4646 10.5173 29.5074 10.3949 29.5357 10.1712L29.5371 10.1547H29.6963L29.696 10.1734C29.688 10.3353 29.6828 10.4971 29.6828 10.659C29.6828 10.8162 29.688 10.9737 29.696 11.1318L29.6963 11.1465L29.6814 11.1499L29.5371 11.1787L29.5357 11.1592C29.5072 10.9057 29.5051 10.7669 29.2293 10.7638L28.7494 10.7635V11.7135C28.7497 11.9658 28.9673 11.9643 29.238 11.9658C29.7377 11.9629 29.9381 11.9387 30.0634 11.4722L30.0674 11.4555L30.085 11.4586L30.218 11.4929L30.214 11.5102C30.1604 11.7302 30.1106 11.9496 30.0734 12.1696L30.07 12.1843H30.0558ZM30.0406 12.148C30.0766 11.9387 30.124 11.7285 30.1751 11.5194L30.093 11.4986C29.9686 11.9635 29.7279 12.0049 29.2379 12.0018C28.9765 12.0018 28.7145 12.0018 28.7133 11.7135V10.728H29.2293C29.5192 10.7249 29.5489 10.9 29.5693 11.1364L29.6591 11.1177C29.6512 10.9649 29.6472 10.8119 29.6473 10.6589C29.6473 10.5026 29.651 10.3471 29.6591 10.1907H29.5693C29.5463 10.407 29.4786 10.559 29.2256 10.5561H28.7134V9.43189H29.3088C29.7406 9.42898 29.8123 9.6519 29.8307 9.91309L29.9203 9.8889C29.9131 9.77169 29.9081 9.62137 29.9081 9.48257C29.9081 9.41144 29.9099 9.34435 29.9122 9.2856C29.6301 9.28675 29.2097 9.30173 28.868 9.30173C28.5268 9.30173 28.1068 9.28675 27.8526 9.2856V9.37372H27.8928C28.0408 9.37372 28.2176 9.39964 28.2182 9.62915V11.8051C28.2176 12.034 28.0408 12.0593 27.8928 12.0605H27.8526V12.148C28.0947 12.1477 28.5744 12.1322 28.9391 12.1322C29.3053 12.1322 29.7728 12.1477 30.0406 12.148ZM30.7573 9.70748C30.7573 9.40453 30.5915 9.39215 30.4622 9.39215H30.3876V9.26717C30.5206 9.26717 30.7777 9.28387 31.0311 9.28387C31.2801 9.28387 31.4796 9.26717 31.6993 9.26717C32.2221 9.26717 32.6877 9.40856 32.6877 9.9989C32.6877 10.3718 32.4387 10.6005 32.1107 10.7298L32.8204 11.7924C32.9367 11.968 33.0193 12.0173 33.2232 12.0414V12.1667C33.0861 12.1667 32.9531 12.1503 32.8163 12.1503C32.6877 12.1503 32.5543 12.1667 32.4262 12.1667C32.1066 11.7472 31.832 11.2985 31.5622 10.8205H31.289V11.7097C31.289 12.0299 31.4379 12.0415 31.6287 12.0415H31.7036V12.1668C31.4664 12.1668 31.2266 12.1503 30.9896 12.1503C30.7901 12.1503 30.5949 12.1668 30.3876 12.1668V12.0415H30.4622C30.6165 12.0415 30.7573 11.9718 30.7573 11.8177V9.70748ZM31.289 10.671H31.4917C31.9071 10.671 32.1308 10.5132 32.1308 10.0231C32.1308 9.65391 31.8945 9.41692 31.5245 9.41692C31.3999 9.41692 31.3469 9.42987 31.289 9.43362V10.671H31.289Z" fill="white"/>
<path d="M33.2231 12.1844C33.0841 12.1844 32.9519 12.1677 32.8155 12.1677C32.6888 12.1677 32.5563 12.1844 32.4116 12.1774C32.0931 11.7596 31.8202 11.3135 31.5519 10.839H31.3066V11.7092C31.3109 12.0217 31.4364 12.0191 31.6284 12.0237H31.7214V12.1844H31.703C31.4657 12.1844 31.2248 12.1677 30.989 12.1677C30.7906 12.1677 30.596 12.1844 30.3876 12.1844H30.3694V12.0237H30.4621C30.6118 12.0228 30.7379 11.9577 30.7385 11.8178V9.70759C30.7354 9.41271 30.5911 9.41441 30.4621 9.41012H30.3694V9.24915H30.3876C30.522 9.24915 30.7782 9.26553 31.031 9.26553C31.2789 9.26553 31.4784 9.24915 31.6996 9.24915C32.2227 9.2503 32.7046 9.39486 32.706 9.99786C32.706 10.3731 32.4582 10.6072 32.1377 10.7379L32.8353 11.7827C32.9513 11.9549 33.0236 11.9978 33.2257 12.0237L33.2409 12.026V12.1844H33.2231V12.1844ZM31.2885 10.8027H31.5723L31.5772 10.8119C31.8478 11.289 32.1204 11.7371 32.4262 12.1489C32.5529 12.1489 32.6862 12.1319 32.8155 12.1319C32.9482 12.1319 33.076 12.1463 33.2053 12.1483V12.0573C33.0103 12.0331 32.9191 11.975 32.8057 11.8025L32.0833 10.7211L32.1037 10.7128C32.4285 10.5849 32.6689 10.3629 32.6692 9.99775C32.6689 9.42152 32.2215 9.28793 31.6996 9.28563C31.4804 9.28563 31.2812 9.30204 31.031 9.30204C30.7872 9.30204 30.541 9.28678 30.4051 9.28563V9.37375H30.4621C30.5911 9.37407 30.7748 9.39535 30.7748 9.70753V11.8177C30.7748 11.9845 30.6184 12.0605 30.4621 12.0608H30.4051V12.1483C30.6049 12.1477 30.7941 12.1319 30.989 12.1319C31.2213 12.1319 31.4554 12.1478 31.6852 12.1483V12.0608H31.6284C31.439 12.0605 31.2703 12.0369 31.2703 11.7092V10.8027H31.2884H31.2885ZM31.2885 10.6886H31.2703V9.41694L31.2861 9.4155C31.3428 9.41121 31.399 9.39938 31.5245 9.39938C31.9028 9.39938 32.1487 9.6453 32.1492 10.024C32.1481 10.5198 31.9103 10.6883 31.4917 10.6886H31.2885V10.6886ZM31.4917 10.6529C31.9028 10.6495 32.1095 10.5066 32.1138 10.024C32.1115 9.66114 31.8861 9.43595 31.5245 9.43451C31.4122 9.43451 31.3595 9.44488 31.3065 9.44951V10.6529H31.4917ZM36.042 11.3481L36.0495 11.34V9.78266C36.0495 9.44171 35.8131 9.39218 35.6888 9.39218H35.5978V9.26746C35.7927 9.26746 35.9833 9.28387 36.1788 9.28387C36.3492 9.28387 36.5188 9.26746 36.6901 9.26746V9.39218H36.6276C36.4532 9.39218 36.2579 9.42527 36.2579 9.91945V11.8097C36.2579 11.9548 36.262 12.0999 36.2824 12.2287H36.125L33.987 9.84461V11.556C33.987 11.9174 34.0575 12.0415 34.3771 12.0415H34.4476V12.1668C34.2694 12.1668 34.0906 12.1504 33.9124 12.1504C33.7249 12.1504 33.5341 12.1668 33.3475 12.1668V12.0415H33.4051C33.6919 12.0415 33.7791 11.8468 33.7791 11.5148V9.76542C33.7791 9.53302 33.5882 9.39221 33.4017 9.39221H33.3475V9.26752C33.5048 9.26752 33.6674 9.2839 33.8249 9.2839C33.9487 9.2839 34.0696 9.26752 34.1943 9.26752L36.042 11.3481Z" fill="white"/>
<path d="M36.2824 12.2465L36.1115 12.2407L34.0043 9.89151V11.5557C34.0092 11.9171 34.0639 12.0196 34.3771 12.0236H34.465V12.1843H34.4468C34.2672 12.1843 34.0892 12.1673 33.9113 12.1673C33.7259 12.1673 33.5342 12.1843 33.3473 12.1843H33.3286V12.0236H33.4049C33.679 12.0225 33.7576 11.846 33.7602 11.5136V9.76538C33.7599 9.54419 33.5788 9.41003 33.4015 9.40971H33.3286V9.24905H33.3473C33.5057 9.24905 33.6681 9.26544 33.8247 9.26544C33.9467 9.26544 34.0671 9.24905 34.2064 9.25478L36.0315 11.3103V9.78234C36.0303 9.45233 35.8092 9.41144 35.6886 9.40974H35.5788V9.24905H35.597C35.7934 9.24905 35.9845 9.26544 36.1785 9.26544C36.3479 9.26544 36.518 9.24905 36.689 9.24905H36.7071V9.40974H36.6274C36.4561 9.41435 36.2796 9.42958 36.2753 9.91945V11.8094C36.2753 11.9545 36.279 12.0985 36.3 12.2263L36.3023 12.2465H36.2824ZM36.1247 12.2102H36.2612C36.243 12.0855 36.239 11.9473 36.239 11.8094V9.91942C36.2393 9.42091 36.4495 9.37487 36.6274 9.37343H36.6708V9.2856C36.5079 9.28675 36.3435 9.30172 36.1785 9.30172C35.988 9.30172 35.8028 9.28675 35.6148 9.2856V9.37343H35.6885C35.8163 9.37487 36.068 9.43073 36.068 9.78234L36.0623 11.3524L36.0542 11.361L36.0415 11.3742L34.1938 9.28562C34.0705 9.28562 33.9502 9.30175 33.8247 9.30175C33.671 9.30175 33.5158 9.28678 33.3646 9.28562V9.37345H33.4014C33.5964 9.37489 33.7965 9.52205 33.7965 9.76538V11.5136C33.7965 11.8471 33.7026 12.0593 33.4049 12.0605L33.3646 12.0602V12.148C33.544 12.1472 33.7291 12.1322 33.9114 12.1322C34.0856 12.1322 34.258 12.1472 34.4296 12.148V12.0605H34.3772C34.0501 12.0602 33.9684 11.9171 33.9678 11.5557V9.79847L36.1247 12.2102ZM36.0418 11.3477L36.0544 11.3359L36.0418 11.3477ZM36.0314 11.34V11.3385L36.0282 11.3354L36.0314 11.34ZM37.3576 11.5727C37.3156 11.7135 37.2655 11.8223 37.2655 11.8963C37.2655 12.0213 37.4402 12.0415 37.5767 12.0415H37.623V12.1667C37.4567 12.1578 37.287 12.1503 37.1198 12.1503C36.9704 12.1503 36.8218 12.1578 36.6721 12.1667V12.0415H36.6971C36.8589 12.0415 36.9963 11.9461 37.0576 11.7713L37.7226 9.86554C37.7762 9.71176 37.8516 9.50414 37.8767 9.3501C38.0089 9.30489 38.1753 9.22195 38.2539 9.17185C38.2668 9.16756 38.274 9.16321 38.287 9.16321C38.2994 9.16321 38.3074 9.16321 38.3166 9.17617C38.3287 9.20899 38.3408 9.24672 38.3541 9.27984L39.1178 11.4523C39.1676 11.5974 39.2168 11.7509 39.2707 11.8759C39.3208 11.9922 39.4083 12.0415 39.5457 12.0415H39.5701V12.1667C39.3833 12.1578 39.1962 12.1503 38.9975 12.1503C38.794 12.1503 38.5858 12.1578 38.3742 12.1667V12.0415H38.4203C38.5153 12.0415 38.6777 12.0253 38.6777 11.9214C38.6777 11.8675 38.6402 11.7555 38.5939 11.6222L38.4324 11.1404H37.4901L37.3576 11.5727ZM37.9633 9.73252H37.955L37.5689 10.908H38.3448L37.9633 9.73252Z" fill="white"/>
<path d="M39.5679 12.1843C39.3811 12.1759 39.1942 12.1673 38.9965 12.1673C38.7929 12.1673 38.5862 12.1759 38.3737 12.1843L38.355 12.1854V12.023H38.4189C38.5151 12.023 38.6579 12.0011 38.6579 11.9214C38.659 11.8741 38.6216 11.7601 38.5758 11.628L38.4177 11.1583H37.502L37.373 11.5778C37.3309 11.7195 37.2812 11.8292 37.2814 11.8969C37.2828 11.9983 37.438 12.023 37.5756 12.023H37.6396V12.1854L37.6209 12.1843C37.4547 12.1759 37.2852 12.1673 37.1196 12.1673C36.9708 12.1673 36.8211 12.1759 36.6722 12.1843L36.653 12.1854V12.023H36.6959C36.8504 12.0224 36.9794 11.9346 37.0393 11.7656L37.7041 9.85953C37.7585 9.70547 37.8334 9.49842 37.8693 9.33284C37.9995 9.28878 38.1661 9.20527 38.2462 9.15458C38.2577 9.15084 38.2693 9.14508 38.2863 9.14508C38.2963 9.14479 38.3188 9.14738 38.332 9.1693C38.3438 9.20354 38.3568 9.24043 38.3694 9.27412L39.1341 11.4463C39.1831 11.592 39.2326 11.7455 39.2867 11.8682C39.3348 11.979 39.4111 12.0225 39.5447 12.0231H39.587V12.1855L39.5679 12.1843ZM38.3913 12.1471C38.5968 12.1399 38.7981 12.1319 38.9965 12.1319C39.1893 12.1319 39.3698 12.1399 39.5503 12.1471V12.0604H39.5446C39.4024 12.0613 39.3042 12.0055 39.2532 11.8831C39.1991 11.7569 39.1484 11.6029 39.0998 11.4574L38.3354 9.28558C38.3228 9.25246 38.3107 9.21474 38.2997 9.18537C38.2963 9.18134 38.2971 9.18133 38.2937 9.18133H38.2861C38.2775 9.18133 38.2726 9.18393 38.262 9.18681C38.182 9.23893 38.0153 9.32042 37.8923 9.35296C37.8667 9.5102 37.7921 9.71753 37.738 9.87131L37.0735 11.7777C37.0102 11.9579 36.8648 12.0607 36.6958 12.0604H36.6892V12.1471C36.8314 12.1399 36.9753 12.1319 37.1196 12.1319C37.2799 12.1319 37.4441 12.1399 37.6024 12.1471V12.0604H37.5756C37.4406 12.0587 37.2517 12.0434 37.2466 11.8969C37.2468 11.8139 37.2978 11.7077 37.3384 11.5675L37.3565 11.5729L37.3384 11.5668L37.4751 11.1228H38.4431L38.6097 11.6164C38.6564 11.7497 38.6941 11.8603 38.6941 11.9214C38.6884 12.0489 38.513 12.0579 38.4189 12.0605H38.3912V12.1471H38.3913ZM37.5425 10.9258L37.9401 9.71434H37.9626V9.73248L37.958 9.73334L37.9626 9.73248V9.71434H37.975L38.3691 10.9258H37.5425ZM37.5923 10.8898H38.319L37.9576 9.77683L37.5923 10.8898ZM37.9444 9.73769L37.9539 9.73452L37.9444 9.73769ZM39.7517 9.47475C39.4401 9.47475 39.4278 9.54965 39.3652 9.85256H39.2406C39.257 9.73651 39.278 9.62046 39.291 9.49951C39.3076 9.38317 39.3152 9.26738 39.3152 9.14704H39.4154C39.4485 9.27173 39.5527 9.26741 39.6641 9.26741H41.807C41.9184 9.26741 42.0221 9.26338 42.0307 9.13843L42.13 9.15513C42.1142 9.26741 42.0978 9.37946 42.0851 9.49174C42.0762 9.60379 42.0762 9.71607 42.0762 9.8278L41.9518 9.87416C41.944 9.72067 41.9233 9.47475 41.6449 9.47475H40.964V11.6846C40.964 12.0049 41.1097 12.0415 41.3084 12.0415H41.3872V12.1667C41.2254 12.1667 40.9352 12.1503 40.7106 12.1503C40.4619 12.1503 40.1708 12.1667 40.009 12.1667V12.0415H40.0876C40.3165 12.0415 40.4328 12.021 40.4328 11.6933V9.47475H39.7517Z" fill="white"/>
<path d="M41.3873 12.1843C41.2244 12.1843 40.9336 12.1676 40.7107 12.1676C40.4625 12.1676 40.1718 12.1843 40.0091 12.1843H39.9907V12.0237H40.0877C40.3165 12.0182 40.4084 12.0153 40.4142 11.6933L40.4136 9.49297H39.7517V9.45637H40.4502V11.6933C40.4502 12.0265 40.3157 12.0593 40.0877 12.0602H40.0267V12.1489C40.191 12.1471 40.4697 12.1322 40.7107 12.1322C40.9275 12.1322 41.2051 12.1472 41.3691 12.1489V12.0602H41.3078C41.1083 12.0593 40.9465 12.0112 40.946 11.6847V9.45637H41.645C41.9236 9.45752 41.9602 9.69452 41.968 9.84859L42.0587 9.81547C42.0587 9.70719 42.059 9.59863 42.067 9.48978C42.0785 9.38294 42.0941 9.27639 42.1094 9.17039L42.0466 9.15974C42.0276 9.28068 41.9104 9.28733 41.8071 9.28558H39.6432C39.5453 9.28673 39.4393 9.28097 39.4016 9.16434H39.3337C39.3325 9.27953 39.3247 9.39129 39.3083 9.50187C39.2974 9.6162 39.2769 9.7262 39.2614 9.83534H39.3504C39.4054 9.5459 39.4413 9.45202 39.7517 9.45637V9.49294C39.4439 9.49816 39.4508 9.55025 39.3828 9.85723L39.3797 9.87134H39.2196L39.2222 9.85057C39.2395 9.7334 39.2602 9.61761 39.2723 9.49752C39.2893 9.38147 39.2974 9.26628 39.2974 9.14706V9.12892H39.4286L39.4321 9.14188C39.4612 9.2467 39.5368 9.24728 39.6431 9.24901L39.6641 9.24958H41.807C41.9216 9.24731 42.0054 9.24555 42.0126 9.1373L42.0137 9.11743L42.0333 9.12149L42.1511 9.13992L42.1479 9.15806C42.1309 9.26922 42.1151 9.38153 42.1024 9.49297C42.0941 9.60355 42.0941 9.71615 42.0941 9.82788V9.84084L42.0823 9.84545L41.9352 9.89901L41.9343 9.87479C41.9236 9.71874 41.9072 9.49294 41.645 9.49294H40.9819V11.6847C40.9863 11.998 41.1103 12.0196 41.3078 12.0236H41.4051V12.1843L41.3873 12.1843ZM42.2834 12.0415H42.3416C42.4916 12.0415 42.6484 12.0213 42.6484 11.8051V9.62915C42.6484 9.41257 42.4916 9.39216 42.3416 9.39216H42.2834V9.26746C42.4455 9.26746 42.6943 9.28388 42.8972 9.28388C43.1057 9.28388 43.3547 9.26746 43.5499 9.26746V9.39216H43.4917C43.3423 9.39216 43.184 9.4126 43.184 9.62915V11.8051C43.184 12.0213 43.3423 12.0415 43.4917 12.0415H43.5499V12.1668C43.3504 12.1668 43.1011 12.1504 42.8941 12.1504C42.6902 12.1504 42.4455 12.1668 42.2834 12.1668V12.0415Z" fill="white"/>
<path d="M43.5496 12.1844C43.349 12.1844 43.1005 12.1674 42.8935 12.1674C42.6905 12.1674 42.4452 12.1844 42.2831 12.1844H42.265V12.0237H42.3413C42.4913 12.0214 42.6289 12.0084 42.6295 11.8051V9.62921C42.6289 9.42648 42.4913 9.41263 42.3413 9.40978H42.265V9.2497H42.2831C42.4452 9.2497 42.6946 9.26554 42.8969 9.26554C43.104 9.26554 43.353 9.2497 43.5496 9.2497H43.5672V9.40978H43.4915C43.3397 9.41266 43.2036 9.42648 43.2015 9.62921V11.8051C43.2036 12.0084 43.3398 12.0214 43.4915 12.0237H43.5672V12.1844H43.5496ZM43.5309 12.1481V12.0602H43.4915C43.3426 12.0602 43.1664 12.0341 43.1664 11.8051V9.62921C43.1664 9.3997 43.3426 9.37378 43.4915 9.37378H43.5309V9.28567C43.3392 9.28682 43.0994 9.30179 42.8969 9.30179C42.7003 9.30179 42.4622 9.28682 42.3013 9.28567V9.37378H42.3413C42.489 9.37378 42.6658 9.3997 42.6664 9.62921V11.8051C42.6658 12.034 42.489 12.0602 42.3413 12.0602H42.3013V12.1481C42.4614 12.1463 42.6963 12.1322 42.8935 12.1322C43.0948 12.1322 43.3352 12.1472 43.5309 12.1481H43.5309ZM45.2052 9.20532C46.0902 9.20532 46.7956 9.75419 46.7956 10.6385C46.7956 11.5941 46.1106 12.229 45.2268 12.229C44.3458 12.229 43.6739 11.6309 43.6739 10.7379C43.6739 9.87427 44.3418 9.20532 45.2052 9.20532ZM45.268 12.0461C46.0735 12.0461 46.2137 11.3354 46.2137 10.7298C46.2137 10.1228 45.8867 9.38789 45.1972 9.38789C44.4705 9.38789 44.2549 10.0358 44.2549 10.5919C44.2549 11.3354 44.5952 12.0461 45.268 12.0461Z" fill="white"/>
<path d="M43.6554 10.7378C43.6572 9.86415 44.3332 9.18829 45.2052 9.18713V9.22281C44.3519 9.22281 43.6914 9.88315 43.6906 10.7378C43.6926 11.6207 44.355 12.2099 45.2268 12.2102C46.102 12.2099 46.7772 11.5839 46.7786 10.6376C46.7777 9.76451 46.083 9.22397 45.2052 9.22281V9.18713C46.0971 9.18771 46.812 9.74205 46.8137 10.6376C46.8129 11.6032 46.119 12.2448 45.2268 12.2465C44.3389 12.2448 43.6572 11.6406 43.6555 10.7378H43.6554V10.7378ZM44.237 10.5918C44.2381 10.0332 44.4564 9.36913 45.1974 9.36913C45.9022 9.37089 46.2313 10.1196 46.2324 10.7298C46.2313 11.3354 46.0888 12.0634 45.2683 12.0634V12.0282C46.0577 12.0271 46.1945 11.3354 46.1964 10.7298C46.1964 10.1277 45.8722 9.40688 45.1974 9.40599C44.4852 9.40685 44.2744 10.0387 44.273 10.5918C44.2736 11.3316 44.6107 12.0265 45.2683 12.0282V12.0634C44.579 12.0625 44.2381 11.3397 44.237 10.5918ZM49.5936 11.3481L49.6019 11.34V9.78265C49.6019 9.4417 49.3647 9.39217 49.2401 9.39217H49.1502V9.26745C49.3448 9.26745 49.5357 9.28386 49.7303 9.28386C49.9011 9.28386 50.0712 9.26745 50.2416 9.26745V9.39217H50.1789C50.005 9.39217 49.8095 9.42526 49.8095 9.91944V11.8097C49.8095 11.9548 49.8136 12.0999 49.8346 12.2287H49.6771L47.5385 9.8446V11.556C47.5385 11.9174 47.6088 12.0415 47.9283 12.0415H47.9994V12.1668C47.8207 12.1668 47.6425 12.1504 47.4639 12.1504C47.2771 12.1504 47.0856 12.1668 46.8988 12.1668V12.0415H46.9572C47.2443 12.0415 47.3304 11.8468 47.3304 11.5148V9.7654C47.3304 9.53301 47.1403 9.3922 46.9529 9.3922H46.8988V9.26751C47.0565 9.26751 47.2186 9.28389 47.3761 9.28389C47.5008 9.28389 47.6209 9.26751 47.7458 9.26751L49.5936 11.3481Z" fill="white"/>
<path d="M49.8343 12.2465L49.6624 12.2404L47.5558 9.89148V11.556C47.5604 11.9171 47.6154 12.0193 47.9272 12.023H48.017V12.1843H47.9989C47.8189 12.1843 47.6407 12.1676 47.4634 12.1676C47.2771 12.1676 47.0865 12.1843 46.8979 12.1843H46.8806V12.023H46.9566C47.2304 12.0222 47.309 11.846 47.3125 11.5148V9.76538C47.3119 9.54422 47.1308 9.41002 46.9523 9.40974H46.8806V9.24963H46.8979C47.0571 9.24963 47.2189 9.26549 47.3755 9.26549C47.4988 9.26549 47.6185 9.24963 47.759 9.2557L49.5832 11.3103V9.78297C49.582 9.45241 49.3609 9.41264 49.2394 9.40976H49.1303V9.24968H49.149C49.3445 9.24968 49.5359 9.26552 49.7291 9.26552C49.8995 9.26552 50.0688 9.24968 50.241 9.24968H50.2588V9.40976H50.1782C50.0075 9.41466 49.8307 9.43021 49.8273 9.91947V11.8094C49.8273 11.9545 49.8304 12.0994 49.8506 12.2263L49.854 12.2465H49.8343V12.2465ZM49.6765 12.2102H49.8124C49.7943 12.0855 49.7911 11.9473 49.7911 11.8093V9.91941C49.7911 9.42007 50.0004 9.37486 50.1784 9.37342H50.2232V9.28559C50.0595 9.28675 49.8954 9.30172 49.7293 9.30172C49.5404 9.30172 49.3546 9.28675 49.1667 9.28559V9.37342H49.2395C49.3682 9.37486 49.6187 9.43162 49.6187 9.78291L49.6141 11.3523L49.6063 11.361L49.5931 11.3742L47.7453 9.28562C47.623 9.28562 47.5017 9.30175 47.3757 9.30175C47.2228 9.30175 47.067 9.28677 46.9159 9.28562V9.37345H46.9524C47.1474 9.37489 47.348 9.52204 47.348 9.76538V11.5148C47.348 11.8468 47.2553 12.0593 46.9567 12.0605L46.9159 12.0602V12.148C47.0961 12.1472 47.2809 12.1322 47.4634 12.1322C47.6365 12.1322 47.8084 12.1472 47.9808 12.148V12.0605H47.9273C47.6014 12.0602 47.5199 11.9171 47.5199 11.5559V9.79789L49.6765 12.2102ZM49.593 11.3477L49.6062 11.3359L49.593 11.3477ZM49.5832 11.34V11.3385L49.5798 11.3353L49.5832 11.34ZM50.9082 11.5726C50.8676 11.7134 50.8172 11.8223 50.8172 11.8963C50.8172 12.0213 50.992 12.0414 51.1282 12.0414H51.1745V12.1667C51.0084 12.1577 50.838 12.1503 50.6719 12.1503C50.5219 12.1503 50.373 12.1578 50.2242 12.1667V12.0414H50.2478C50.4104 12.0414 50.5481 11.9461 50.6094 11.7713L51.2745 9.86553C51.328 9.71176 51.4031 9.50413 51.4274 9.3501C51.5603 9.30489 51.7262 9.22195 51.8059 9.17185C51.8177 9.16756 51.8261 9.16321 51.8387 9.16321C51.8511 9.16321 51.8589 9.16321 51.8673 9.17617C51.8799 9.20899 51.8929 9.24672 51.9053 9.27983L52.6688 11.4523C52.7186 11.5974 52.7681 11.7509 52.8228 11.8759C52.8726 11.9922 52.9601 12.0414 53.0966 12.0414H53.122V12.1667C52.9348 12.1578 52.748 12.1503 52.5485 12.1503C52.3455 12.1503 52.1376 12.1578 51.9257 12.1667V12.0414H51.9718C52.0665 12.0414 52.2295 12.0253 52.2295 11.9214C52.2295 11.8675 52.1917 11.7555 52.1454 11.6222L51.9842 11.1404H51.0416L50.9082 11.5726ZM51.5151 9.73252H51.5068L51.1201 10.908H51.8971L51.5151 9.73252Z" fill="white"/>
<path d="M53.1206 12.1844C52.9337 12.1769 52.7472 12.1677 52.5489 12.1677C52.3464 12.1677 52.1386 12.1769 51.9267 12.1844L51.9083 12.1855V12.0237H51.9713C52.068 12.0237 52.2111 12.0012 52.2114 11.9214C52.2122 11.8742 52.1748 11.761 52.1285 11.628L51.9707 11.1583H51.0544L50.9259 11.5779C50.8845 11.7201 50.8349 11.8293 50.8358 11.8964C50.8358 11.9983 50.9912 12.0237 51.1286 12.0237H51.1919V12.1855L51.1735 12.1844C51.0074 12.1769 50.8375 12.1677 50.6723 12.1677C50.5235 12.1677 50.3743 12.1769 50.2246 12.1844L50.2064 12.1855V12.0237H50.2482C50.4031 12.0231 50.5326 11.9341 50.5931 11.7657L51.2576 9.85959C51.3106 9.70553 51.3854 9.49848 51.4222 9.33347C51.5527 9.28826 51.7193 9.20533 51.8 9.15462C51.8109 9.15087 51.8222 9.14598 51.8391 9.14598C51.8501 9.14482 51.8713 9.14742 51.8846 9.17017C51.897 9.20274 51.9091 9.24043 51.9229 9.27412L52.6864 11.4463C52.736 11.592 52.7858 11.7455 52.8396 11.869C52.8882 11.979 52.9639 12.0225 53.0964 12.0237H53.1396V12.1855L53.1206 12.1844ZM51.944 12.1478C52.1492 12.14 52.3513 12.1319 52.5489 12.1319C52.742 12.1319 52.9231 12.14 53.1039 12.1472L53.1033 12.0605H53.0964C52.9559 12.0608 52.8578 12.0055 52.8062 11.8831C52.7515 11.757 52.702 11.6029 52.6525 11.458L51.8883 9.28564C51.876 9.25253 51.8633 9.2148 51.8532 9.18658C51.8498 9.1814 51.8501 9.1814 51.8469 9.1814H51.8391C51.8305 9.1814 51.8258 9.18428 51.8158 9.18716C51.7349 9.23813 51.5685 9.32103 51.4456 9.35303C51.4199 9.51026 51.3445 9.71731 51.291 9.87137L50.6262 11.7777C50.5631 11.958 50.4181 12.0608 50.2482 12.0605H50.2421V12.1472C50.3849 12.14 50.5277 12.1319 50.6722 12.1319C50.8332 12.1319 50.997 12.14 51.1568 12.1472V12.0605H51.1286C50.9936 12.0588 50.8041 12.0441 50.7992 11.8964C50.8001 11.814 50.8516 11.7083 50.8916 11.5675L50.9086 11.5729L50.8916 11.5669L51.0284 11.1229H51.9966L52.163 11.6164C52.2088 11.7501 52.2465 11.8604 52.2465 11.9214C52.2404 12.049 52.0663 12.0579 51.9712 12.0605H51.9439V12.1478H51.944ZM51.0958 10.9257L51.4939 9.71443H51.5155V9.73257L51.5112 9.73343L51.5155 9.73257V9.71443H51.5285L51.9209 10.9257H51.0958ZM51.1456 10.8899H51.8717L51.5106 9.77749L51.1456 10.8899ZM51.4983 9.73778L51.5066 9.73461L51.4983 9.73778ZM54.1685 11.7596C54.1685 11.9258 54.2837 11.9753 54.4167 11.9923C54.5869 12.0049 54.7737 12.0049 54.9655 11.9839C55.1393 11.9629 55.2891 11.8633 55.3633 11.7596C55.4295 11.668 55.467 11.5517 55.492 11.4604H55.6124C55.5669 11.6971 55.5087 11.9303 55.4586 12.1668C55.0941 12.1668 54.728 12.1504 54.3631 12.1504C53.9972 12.1504 53.6325 12.1668 53.2671 12.1668V12.0415H53.3241C53.4744 12.0415 53.6368 12.0213 53.6368 11.7636V9.62919C53.6368 9.41261 53.4744 9.39219 53.3241 9.39219H53.2671V9.2675C53.4865 9.2675 53.7027 9.28391 53.9224 9.28391C54.1348 9.28391 54.3422 9.2675 54.554 9.2675V9.39219H54.4495C54.2923 9.39219 54.1685 9.3968 54.1685 9.61623V11.7596Z" fill="white"/>
<path d="M55.4603 12.1843C55.0944 12.1843 54.7291 12.1676 54.3649 12.1676C53.9992 12.1676 53.6339 12.1843 53.268 12.1843H53.2504V12.0237H53.3258C53.4764 12.0202 53.6186 12.0098 53.6204 11.7636V9.62836C53.6186 9.4265 53.4772 9.41267 53.3258 9.40977H53.2504V9.24968H53.268C53.4888 9.24968 53.705 9.26552 53.9243 9.26552C54.1351 9.26552 54.3424 9.24968 54.5557 9.24968H54.5728V9.40977H54.4515C54.2906 9.41437 54.1904 9.40689 54.1872 9.61627V11.7596C54.1884 11.9143 54.2898 11.956 54.4193 11.9742C54.4927 11.9793 54.5696 11.9825 54.6496 11.9825C54.7512 11.9825 54.8569 11.9776 54.964 11.9661C55.1333 11.9463 55.279 11.8486 55.3504 11.7495C55.4143 11.6608 55.4512 11.5468 55.4759 11.4561L55.4797 11.4423H55.636L55.6322 11.4642C55.5853 11.7018 55.5283 11.9339 55.4779 12.1703L55.4745 12.1844H55.4603V12.1843ZM55.4453 12.1481C55.4934 11.9229 55.5479 11.7025 55.5925 11.4779H55.5072C55.4813 11.5684 55.4445 11.6798 55.3791 11.7705C55.3017 11.8782 55.1479 11.9796 54.968 12.0017C54.8592 12.013 54.7515 12.0187 54.6496 12.0187C54.5693 12.0187 54.4913 12.015 54.4161 12.0098C54.2811 11.9948 54.1501 11.9372 54.1507 11.7596V9.61621C54.1507 9.38555 54.2966 9.37374 54.4515 9.37374H54.5373V9.28562C54.3326 9.28678 54.1311 9.30201 53.9243 9.30201C53.7093 9.30201 53.4991 9.28678 53.286 9.28562V9.37374H53.3258C53.4741 9.37374 53.6554 9.39966 53.6554 9.62831V11.7636C53.6554 12.0323 53.4749 12.0602 53.3258 12.0602H53.286V12.148C53.6451 12.1477 54.0041 12.1322 54.3648 12.1322C54.7256 12.1322 55.0861 12.1477 55.4453 12.1481ZM55.5637 9.14941C55.8138 9.14941 56.0007 9.34178 56.0007 9.58828C56.0007 9.83363 55.8139 10.0243 55.5637 10.0243C55.3135 10.0243 55.1263 9.83363 55.1263 9.58828C55.1263 9.34181 55.3134 9.14941 55.5637 9.14941ZM55.5637 9.94277C55.7591 9.94277 55.9094 9.77575 55.9094 9.58828C55.9094 9.39966 55.7614 9.2312 55.5637 9.2312C55.367 9.2312 55.2167 9.39969 55.2167 9.58828C55.2167 9.77575 55.367 9.94277 55.5637 9.94277ZM55.346 9.81865V9.79706C55.3998 9.78957 55.4096 9.7913 55.4096 9.75789V9.43421C55.4096 9.38874 55.4047 9.37319 55.348 9.37547V9.3533H55.5717C55.6489 9.3533 55.7194 9.38987 55.7194 9.46935C55.7194 9.53443 55.6762 9.58252 55.616 9.60124L55.6877 9.70142C55.7214 9.74692 55.7591 9.78957 55.7841 9.80451V9.81863H55.699C55.6581 9.81863 55.6224 9.73252 55.5417 9.61705H55.4934V9.76247C55.4934 9.79127 55.5034 9.78954 55.5573 9.79703V9.81863H55.346V9.81865ZM55.4934 9.58828H55.5449C55.6013 9.58828 55.6278 9.54537 55.6278 9.47655C55.6278 9.40686 55.5869 9.38235 55.542 9.38235H55.4934V9.58828Z" fill="white"/>
</svg>
