<svg width="107" height="32" viewBox="0 0 107 32" fill="none" xmlns="http://www.w3.org/2000/svg">
<path d="M15.7854 5.08759e-08C13.7124 -0.000166522 11.6597 0.408695 9.7444 1.20323C7.82912 1.99776 6.08922 3.1626 4.62335 4.63084C3.15748 6.09908 1.99453 7.84242 1.20128 9.76081C0.408034 11.6792 -0.000166252 13.7352 5.07936e-08 15.8116C4.41235e-08 17.8879 0.408578 19.9436 1.2019 21.8618C1.99522 23.78 3.1575 25.523 4.62335 26.9911C6.0892 28.4593 7.82982 29.6237 9.74502 30.4181C11.6602 31.2126 13.7125 31.6215 15.7854 31.6214C17.8583 31.6214 19.9108 31.2127 21.8258 30.4181C23.7409 29.6236 25.4812 28.4592 26.9469 26.9911C28.4126 25.5231 29.5751 23.78 30.3683 21.8618C31.1616 19.9436 31.5702 17.8878 31.5702 15.8116C31.5704 13.7353 31.1621 11.6791 30.3689 9.76081C29.5758 7.8425 28.4132 6.09969 26.9475 4.63146C25.4818 3.16323 23.7416 1.99845 21.8264 1.20385C19.9113 0.40924 17.8584 4.41962e-08 15.7854 5.08759e-08ZM16.2287 17.9041H8.06211C8.2358 18.5584 8.64174 19.1267 9.20404 19.5024C9.76634 19.8781 10.4459 20.0352 11.1157 19.9446C11.5778 19.9739 12.0401 19.8909 12.4629 19.7018C12.8857 19.5127 13.2563 19.2232 13.543 18.859L15.7959 20.1619C15.2735 20.9221 14.5648 21.5344 13.7377 21.9411C12.9107 22.3477 11.993 22.5345 11.073 22.4835C10.2828 22.519 9.49344 22.3936 8.75333 22.1138C8.01322 21.8341 7.33796 21.4063 6.7681 20.8567C6.23216 20.3201 5.81158 19.6792 5.53219 18.9736C5.25281 18.268 5.12029 17.5128 5.14331 16.7541C5.12218 15.9996 5.25305 15.2484 5.52848 14.5458C5.80392 13.8433 6.21841 13.2036 6.74646 12.6651C7.28231 12.1219 7.92489 11.6956 8.63339 11.4136C9.34188 11.1316 10.1009 11 10.8628 11.0266C11.5976 11.0053 12.3283 11.1411 13.0063 11.4254C13.6844 11.7097 14.2939 12.1358 14.7944 12.6751C15.8286 13.7756 16.386 15.242 16.3443 16.7529C16.3398 17.1395 16.3005 17.5245 16.2275 17.9041H16.2287ZM26.2383 21.7088C25.3657 22.2237 24.3687 22.4898 23.356 22.4786C22.5989 22.4989 21.8458 22.3634 21.1433 22.0798C20.4408 21.7962 19.8044 21.3707 19.273 20.8301C18.7377 20.297 18.3159 19.6598 18.0347 18.9581C17.7534 18.2564 17.6185 17.5045 17.6371 16.7486C17.6188 15.9932 17.754 15.2426 18.0353 14.5415C18.3165 13.8404 18.7379 13.2039 19.273 12.6713C19.8044 12.1307 20.4408 11.7053 21.1433 11.4217C21.8458 11.138 22.5989 11.0025 23.356 11.0229C24.3675 11.0124 25.3635 11.2748 26.2383 11.7833C27.077 12.2602 27.7612 12.9685 28.2106 13.8232L25.8049 15.2332C25.5897 14.7881 25.2464 14.418 24.8188 14.1706C24.3688 13.9077 23.8559 13.7725 23.335 13.7798C22.9495 13.768 22.5653 13.836 22.2073 13.9798C21.8493 14.1237 21.5251 14.3404 21.2546 14.6158C20.9807 14.8978 20.7666 15.2322 20.6252 15.5992C20.4837 15.9662 20.4173 16.3578 20.431 16.751C20.4182 17.1413 20.4849 17.5304 20.6264 17.8942C20.7679 18.258 20.9816 18.5895 21.2546 18.8683C21.5252 19.1434 21.8493 19.3594 22.2073 19.503C22.5653 19.6466 22.9496 19.7144 23.335 19.7024C23.8616 19.7112 24.381 19.5801 24.8405 19.3222C25.2691 19.0812 25.6129 18.7135 25.8254 18.2695L28.2526 19.6647C27.7767 20.516 27.0811 21.2232 26.2383 21.7126V21.7088Z" fill="white"/>
<path d="M12.5568 14.0844C12.0635 13.7241 11.4671 13.5334 10.8566 13.5413C10.1881 13.5154 9.53044 13.7186 8.99257 14.1172C8.48729 14.5241 8.14192 15.0967 8.01758 15.7341H13.5424C13.4346 15.0789 13.0821 14.4895 12.5568 14.0844Z" fill="white"/>
<path d="M38.7821 20.822C38.2515 21.3615 37.6166 21.7869 36.9162 22.0723C36.2159 22.3577 35.465 22.4974 34.709 22.4823C33.9547 22.498 33.2048 22.3584 32.5062 22.0729C31.8076 21.7874 31.1751 21.3618 30.6471 20.822C30.1079 20.2933 29.6826 19.6596 29.3976 18.9599C29.1125 18.2601 28.9736 17.5091 28.9895 16.7535C28.9737 15.9979 29.1125 15.2468 29.3976 14.547C29.6826 13.8473 30.108 13.2138 30.6471 12.6849C31.175 12.1449 31.8075 11.7189 32.5062 11.4334C33.2048 11.1478 33.9547 11.0087 34.709 11.0247C35.465 11.0094 36.2158 11.1486 36.9162 11.434C37.6166 11.7194 38.2516 12.1453 38.7821 12.6849C39.3239 13.2122 39.7516 13.8452 40.0384 14.5452C40.3253 15.2451 40.4658 15.997 40.4502 16.7535C40.4659 17.5099 40.326 18.2618 40.0391 18.9617C39.7522 19.6617 39.324 20.2948 38.7821 20.822ZM32.6187 18.9004C32.8902 19.178 33.216 19.3964 33.5758 19.542C33.9355 19.6876 34.3212 19.7571 34.709 19.7464C35.0985 19.7565 35.4858 19.6869 35.8473 19.5414C36.2087 19.3959 36.537 19.1777 36.8111 18.9004C37.0907 18.6192 37.3095 18.2838 37.4547 17.9146C37.6 17.5453 37.6686 17.1501 37.6557 16.7535C37.6683 16.3566 37.5999 15.9611 37.4547 15.5917C37.3095 15.2223 37.0905 14.8869 36.8111 14.6052C36.537 14.328 36.2087 14.1098 35.8473 13.9643C35.4858 13.8188 35.0985 13.7492 34.709 13.7593C34.3212 13.7486 33.9355 13.8181 33.5758 13.9637C33.216 14.1092 32.8902 14.3277 32.6187 14.6052C32.3418 14.8882 32.1247 15.2243 31.9813 15.5936C31.8378 15.9629 31.7709 16.3574 31.784 16.7535C31.7709 17.1493 31.8378 17.5437 31.9813 17.9127C32.1247 18.2818 32.3418 18.6177 32.6187 18.9004Z" fill="white"/>
<path d="M48.4432 11.0251C48.9885 11.0085 49.5315 11.1059 50.0371 11.3112C50.5427 11.5165 50.9998 11.825 51.3797 12.2172C51.7813 12.6625 52.0906 13.1838 52.2897 13.7499C52.4888 14.3159 52.5738 14.9156 52.5395 15.5148V22.1768H49.745V15.8622C49.7657 15.5601 49.7247 15.2572 49.6241 14.9717C49.5235 14.6861 49.3656 14.424 49.1601 14.2019C48.952 14.006 48.7066 13.8544 48.4386 13.7554C48.1706 13.6565 47.8852 13.6128 47.5999 13.6266C47.2801 13.612 46.9611 13.6642 46.6626 13.7802C46.3642 13.8962 46.0932 14.0729 45.8669 14.2998C45.3946 14.861 45.1611 15.5854 45.2171 16.3173V22.1768H42.4226V11.3273H45.2171V12.5423C45.5777 12.0313 46.0643 11.6223 46.6299 11.3564C47.1954 11.0905 47.8204 10.9765 48.4432 11.0251Z" fill="white"/>
<path d="M61.8563 11.3296H64.9319L60.8167 22.1809H57.6324L53.516 11.3296H56.5915L59.2176 18.923L61.8563 11.3296Z" fill="white"/>
<path d="M68.2025 17.9044C68.3767 18.5585 68.7831 19.1266 69.3456 19.502C69.9081 19.8775 70.5881 20.035 71.2579 19.9442C71.7199 19.9739 72.1823 19.8903 72.6051 19.7014C73.0279 19.5126 73.3986 19.224 73.6852 18.8599L75.9391 20.1622C75.4167 20.9224 74.708 21.5353 73.8809 21.9419C73.0538 22.3486 72.1361 22.5355 71.2162 22.4844C70.4248 22.5211 69.6344 22.3957 68.8931 22.1159C68.1517 21.8362 67.4751 21.4076 66.9047 20.857C66.3689 20.3205 65.9482 19.6798 65.6688 18.9744C65.3894 18.2691 65.2573 17.5141 65.2803 16.7556C65.2589 16.0009 65.3897 15.2495 65.6651 14.5467C65.9406 13.8439 66.3548 13.204 66.8831 12.6654C67.4189 12.1221 68.0615 11.6959 68.77 11.4139C69.4785 11.1318 70.2375 11.0001 70.9995 11.0268C71.7331 11.0065 72.4627 11.1432 73.1396 11.4275C73.8164 11.7118 74.4251 12.1375 74.9248 12.6759C75.959 13.7776 76.5163 15.244 76.4748 16.7556C76.4729 17.1415 76.4366 17.5267 76.3669 17.9062L68.2025 17.9044ZM68.1595 15.7345H73.684C73.5756 15.0796 73.223 14.4906 72.6975 14.086C72.2045 13.7259 71.6083 13.5352 70.9982 13.5429C70.3298 13.5167 69.6726 13.7195 69.1345 14.1176C68.6316 14.525 68.2886 15.0971 68.166 15.7332L68.1595 15.7345Z" fill="white"/>
<path d="M81.2242 13.1962C81.4539 12.5382 81.9109 11.9845 82.513 11.635C83.1225 11.2847 83.8147 11.1045 84.5174 11.1136V14.2384C83.7175 14.1254 82.9042 14.3111 82.232 14.7598C81.8845 15.013 81.6086 15.3519 81.431 15.7438C81.2535 16.1357 81.1804 16.5667 81.219 16.9954V22.1817H78.4244V11.3316H81.219L81.2242 13.1962Z" fill="white"/>
<path d="M88.3742 14.4097C88.3742 14.6989 88.5656 14.9337 88.9489 15.1138C89.3966 15.318 89.8632 15.4781 90.3418 15.5919C90.9003 15.733 91.45 15.9072 91.9879 16.1133C92.5404 16.3285 93.0223 16.693 93.3805 17.1661C93.7755 17.698 93.978 18.3483 93.9543 19.0109C93.9782 19.5096 93.8768 20.0064 93.6591 20.4556C93.4414 20.9048 93.1142 21.2924 92.7082 21.582C91.7946 22.2069 90.7055 22.5224 89.5999 22.4824C88.6685 22.5715 87.7324 22.3712 86.9185 21.909C86.1046 21.4468 85.4524 20.7451 85.0504 19.8989L87.4765 18.5315C87.6131 18.9762 87.8993 19.36 88.2864 19.6171C88.6735 19.8742 89.1377 19.9892 89.5999 19.9422C90.5968 19.9422 91.0948 19.6311 91.0939 19.0096C91.0939 18.7196 90.9029 18.4846 90.5205 18.3037C90.0718 18.0992 89.6056 17.9354 89.1275 17.8151C88.5687 17.6666 88.019 17.4857 87.4814 17.2726C86.9355 17.0561 86.4556 16.7007 86.0888 16.2415C85.6951 15.7381 85.4918 15.1113 85.515 14.4723C85.4953 13.987 85.5923 13.504 85.7979 13.0641C86.0035 12.6242 86.3118 12.2401 86.6965 11.9445C87.5417 11.3107 88.5775 10.9853 89.6327 11.0224C90.4723 11.0116 91.3008 11.2171 92.0386 11.6187C92.7578 12.0139 93.3509 12.604 93.7503 13.3217L91.3675 14.624C91.228 14.2828 90.9863 13.9937 90.676 13.7954C90.3656 13.5972 90.0016 13.4995 89.6339 13.5168C89.3171 13.5043 89.004 13.5873 88.7349 13.7552C88.6225 13.8227 88.53 13.9189 88.4666 14.0338C88.4032 14.1488 88.3714 14.2785 88.3742 14.4097Z" fill="white"/>
<path d="M97.9707 17.9034C98.1449 18.5575 98.5514 19.1256 99.1139 19.5011C99.6764 19.8765 100.356 20.034 101.026 19.9432C101.488 19.9727 101.95 19.8894 102.373 19.7005C102.796 19.5116 103.166 19.2229 103.453 18.8589L105.707 20.1612C105.185 20.9214 104.476 21.5343 103.649 21.941C102.822 22.3476 101.904 22.5344 100.984 22.4835C100.193 22.5202 99.4023 22.3948 98.661 22.115C97.9197 21.8352 97.2431 21.4067 96.6727 20.856C96.1368 20.3196 95.7162 19.6789 95.4368 18.9735C95.1574 18.2681 95.0252 17.5132 95.0482 16.7547C95.0268 15.9999 95.1576 15.2486 95.4331 14.5458C95.7085 13.8429 96.1231 13.203 96.6514 12.6644C97.1871 12.1211 97.8295 11.6949 98.538 11.4129C99.2465 11.1309 100.006 10.999 100.768 11.0259C101.502 11.0047 102.233 11.141 102.911 11.4253C103.589 11.7096 104.199 12.1358 104.699 12.675C105.733 13.7768 106.29 15.2432 106.248 16.7547C106.245 17.1406 106.209 17.5258 106.139 17.9052L97.9707 17.9034ZM97.9275 15.7335H103.452C103.343 15.0787 102.991 14.4897 102.465 14.085C101.972 13.7248 101.376 13.534 100.765 13.5419C100.097 13.5161 99.4402 13.7188 98.9025 14.1166C98.3972 14.523 98.0518 15.0953 97.9275 15.7323V15.7335Z" fill="white"/>
</svg>
