<svg width="48" height="16" viewBox="0 0 48 16" fill="none" xmlns="http://www.w3.org/2000/svg">
<path fill-rule="evenodd" clip-rule="evenodd" d="M19.3988 0.2687L16.9559 15.2817H20.8643L23.3075 0.2687H19.3988ZM13.6675 0.2687L9.94114 10.5945L9.50036 8.37099L9.50067 8.37172L9.40354 7.87336C8.95255 6.90142 7.90805 5.05416 5.93575 3.47768C5.35265 3.01169 4.76487 2.61401 4.19666 2.27431L7.58334 15.2817H11.6556L17.8742 0.2687H13.6675ZM28.9213 4.4366C28.9213 2.73925 32.7277 2.95735 34.4003 3.87901L34.958 0.654621C34.958 0.654621 33.2367 0 31.4426 0C29.5028 0 24.8969 0.848259 24.8969 4.96994C24.8969 8.84894 30.3029 8.89714 30.3029 10.9337C30.3029 12.9702 25.4542 12.6062 23.8541 11.3216L23.2726 14.6918C23.2726 14.6918 25.0177 15.5401 27.6848 15.5401C30.3516 15.5401 34.376 14.1585 34.376 10.4003C34.376 6.49708 28.9213 6.13353 28.9213 4.4366ZM44.8704 0.2687H41.728C40.2769 0.2687 39.9236 1.38753 39.9236 1.38753L34.0949 15.2817H38.1687L38.9836 13.0518H43.9524L44.4108 15.2817H47.9995L44.8704 0.2687ZM40.1099 9.971L42.1637 4.35279L43.3191 9.971H40.1099Z" fill="#005BAC"/>
<path fill-rule="evenodd" clip-rule="evenodd" d="M8.23721 1.68209C8.23721 1.68209 8.07543 0.327148 6.3483 0.327148H0.073499L0 0.581792C0 0.581792 3.01617 1.19664 5.90981 3.5002C8.67508 5.70184 9.57716 8.4463 9.57716 8.4463L8.23721 1.68209Z" fill="#F6AC1D"/>
</svg>
