<svg width="41" height="22" viewBox="0 0 41 22" fill="none" xmlns="http://www.w3.org/2000/svg">
<path d="M0 12.4603H3.12033L4.85425 3.82073H1.73352L0 12.4603ZM1.90544 2.79028H5.03883L5.55378 0.205354H2.42161L1.90544 2.79028ZM4.33399 14.8914H7.45473L9.36139 5.55724H11.7017L12.0468 3.82073H9.75138L9.83836 3.43007C9.96822 2.69374 10.2284 1.867 11.3983 1.867C12.0925 1.867 12.7423 1.91037 13.392 2.21431L13.7391 0.391073C13.015 0.135147 12.2531 0.00294771 11.4853 0C8.9714 0 7.2383 1.47634 6.58777 3.82073H5.50437L5.15767 5.55724H6.24106L4.33399 14.8914Z" fill="#EA1D2C"/>
<path d="M14.2149 12.6342C17.8987 12.6342 20.4559 9.29089 20.4559 6.55583C20.4559 4.51538 18.5922 3.64692 16.7721 3.64692C12.7403 3.64692 10.531 7.25248 10.531 9.72532C10.531 11.7658 12.4381 12.6342 14.2149 12.6342ZM24.0973 12.6342C27.7812 12.6342 30.3384 9.29089 30.3384 6.55583C30.3384 4.51538 28.4313 3.64692 26.6108 3.64692C22.5803 3.64692 20.3702 7.25044 20.3702 9.72532C20.3702 11.7658 22.3205 12.6342 24.0973 12.6342ZM35.4091 12.4604H38.4861L40.9992 0.175537H37.8789L37.1418 3.82241L35.8416 3.69233C32.8078 3.69233 30.0342 7.59937 30.0342 10.3782C30.0342 11.5068 30.7692 12.6359 32.0278 12.6359C33.8046 12.6359 35.0616 11.7674 35.5806 10.8989H35.7538L35.4091 12.4604ZM25.7868 18.9294C23.3647 20.9397 20.2537 21.9213 17.1188 21.6645C13.0012 21.4039 10.054 18.2344 9.53418 14.8915H9.70733C10.6609 16.9778 12.9579 18.9294 15.7752 19.233C18.6338 19.5803 22.0596 18.2782 23.923 16.4979L21.8428 14.8915H28.1271L26.7387 21.5778L25.8284 18.9728L25.7868 18.9294Z" fill="#EA1D2C"/>
</svg>
