<svg width="23" height="22" viewBox="0 0 23 22" fill="none" xmlns="http://www.w3.org/2000/svg">
<g clip-path="url(#clip0_1_1492)">
<path d="M11.4878 5.3515C8.36559 5.3515 5.83789 7.87967 5.83789 10.9963C5.83789 14.1158 8.36834 16.6412 11.4878 16.6412C14.6101 16.6412 17.1378 14.113 17.1378 10.9963C17.1378 7.87692 14.6073 5.3515 11.4878 5.3515ZM11.4878 14.6603C9.46108 14.6603 7.8206 13.0203 7.8206 10.9963C7.8206 8.97234 9.462 7.33242 11.4878 7.33242C13.5137 7.33242 15.1551 8.97234 15.1551 10.9963C15.156 13.0203 13.5146 14.6603 11.4878 14.6603Z" fill="white"/>
<path d="M16.0223 0.070905C13.9965 -0.0235117 8.97873 -0.0189284 6.95106 0.070905C5.16928 0.154322 3.59761 0.584238 2.33055 1.85015C0.212969 3.96582 0.483631 6.81666 0.483631 10.9976C0.483631 15.2766 0.245082 18.0614 2.33055 20.145C4.45639 22.268 7.35109 21.9902 11.4862 21.9902C15.7287 21.9902 17.1931 21.993 18.6932 21.4127C20.7328 20.6217 22.2723 18.8002 22.4228 15.5287C22.5182 13.5037 22.5127 8.49141 22.4228 6.46557C22.2411 2.60366 20.1667 0.261572 16.0223 0.070905ZM19.229 18.7452C17.8408 20.1322 15.915 20.0084 11.4596 20.0084C6.87216 20.0084 5.03258 20.0762 3.69028 18.7315C2.1443 17.1942 2.42413 14.7257 2.42413 10.9829C2.42413 5.91832 1.90391 2.27091 6.99143 2.01057C8.16032 1.96932 8.50438 1.95557 11.4468 1.95557L11.4881 1.98307C16.3774 1.98307 20.2135 1.47157 20.4438 6.55357C20.4961 7.71316 20.508 8.06149 20.508 10.9967C20.5071 15.5268 20.5933 17.3757 19.229 18.7452Z" fill="white"/>
<path d="M17.3608 6.44783C18.0901 6.44783 18.6813 5.85725 18.6813 5.12875C18.6813 4.40024 18.0901 3.80966 17.3608 3.80966C16.6315 3.80966 16.0403 4.40024 16.0403 5.12875C16.0403 5.85725 16.6315 6.44783 17.3608 6.44783Z" fill="white"/>
</g>
<defs>
<clipPath id="clip0_1_1492">
<rect width="22.0199" height="22" fill="white" transform="translate(0.473145)"/>
</clipPath>
</defs>
</svg>
