<svg width="56" height="20" viewBox="0 0 56 20" fill="none" xmlns="http://www.w3.org/2000/svg">
<path d="M22.7012 18.2577V7.04399C22.7012 4.98075 24.3738 3.30821 26.4371 3.30821L29.7479 3.31309C31.8053 3.3172 33.4709 4.98615 33.4709 7.04348V9.43039C33.4709 11.4936 31.7982 13.1664 29.735 13.1664H25.0565" stroke="white" stroke-width="1.26" stroke-miterlimit="10" stroke-linecap="round" stroke-linejoin="round"/>
<path d="M34.3961 3.30665H35.8323C36.6791 3.30665 37.3654 3.99308 37.3654 4.83985V13.2166" stroke="white" stroke-width="1.26" stroke-miterlimit="10" stroke-linecap="round" stroke-linejoin="round"/>
<path d="M37.0572 2.00891L36.4059 1.35753C36.2443 1.19599 36.2443 0.933925 36.4059 0.772301L37.0568 0.121432C37.2186 -0.0404494 37.481 -0.0404494 37.6428 0.121432L38.2938 0.772301C38.4554 0.933925 38.4554 1.19599 38.2938 1.35753L37.6425 2.00891C37.4809 2.17053 37.2188 2.17053 37.0572 2.00891Z" fill="#32BCAD"/>
<path d="M40.1204 3.29916H41.5446C42.2774 3.29916 42.9801 3.59018 43.4981 4.10831L46.8296 7.43969C47.2611 7.87134 47.9608 7.87134 48.3923 7.43969L51.7116 4.12047C52.2297 3.60244 52.9324 3.31141 53.6651 3.31141H54.823" stroke="white" stroke-width="1.26" stroke-miterlimit="10" stroke-linecap="round" stroke-linejoin="round"/>
<path d="M40.1204 13.1432H41.5446C42.2774 13.1432 42.9801 12.8522 43.4981 12.334L46.8296 9.00257C47.2611 8.571 47.9608 8.571 48.3923 9.00257L51.7116 12.3218C52.2297 12.8399 52.9324 13.1309 53.6651 13.1309H54.823" stroke="white" stroke-width="1.26" stroke-miterlimit="10" stroke-linecap="round" stroke-linejoin="round"/>
<path d="M14.2092 15.2715C13.4943 15.2715 12.8221 14.9932 12.3166 14.4879L9.58374 11.7551C9.39195 11.5627 9.05748 11.5633 8.86569 11.7551L6.12287 14.4979C5.61735 15.0031 4.94505 15.2815 4.23017 15.2815H3.69165L7.15278 18.7427C8.23376 19.8236 9.98635 19.8236 11.0673 18.7427L14.5385 15.2715H14.2092Z" fill="#32BCAD"/>
<path d="M4.23008 5.60501C4.94497 5.60501 5.61726 5.88344 6.1227 6.38871L8.86551 9.13196C9.06305 9.32949 9.38561 9.33035 9.58365 9.1317L12.3164 6.39865C12.822 5.89338 13.4943 5.61504 14.2091 5.61504H14.5383L11.0672 2.14397C9.98626 1.06299 8.23367 1.06299 7.15269 2.14397L3.69165 5.60501H4.23008Z" fill="#32BCAD"/>
<path d="M17.4095 8.48609L15.3119 6.38848C15.2657 6.40699 15.2157 6.41856 15.1629 6.41856H14.2093C13.7162 6.41856 13.2335 6.61849 12.8852 6.96711L10.1523 9.69998C9.89666 9.9557 9.56065 10.0837 9.22489 10.0837C8.88887 10.0837 8.55311 9.9557 8.29739 9.70024L5.55432 6.95717C5.20587 6.60855 4.72331 6.40862 4.23021 6.40862H3.05754C3.00757 6.40862 2.96078 6.39679 2.91665 6.38017L0.810736 8.48609C-0.270245 9.56698 -0.270245 11.3196 0.810736 12.4006L2.91657 14.5065C2.9607 14.4898 3.00757 14.478 3.05754 14.478H4.23021C4.72331 14.478 5.20587 14.2781 5.55432 13.9295L8.29713 11.1867C8.79289 10.6913 9.65705 10.6911 10.1523 11.1869L12.8852 13.9194C13.2335 14.2681 13.7162 14.4681 14.2093 14.4681H15.1629C15.2158 14.4681 15.2657 14.4796 15.3119 14.4981L17.4095 12.4006C18.4904 11.3196 18.4904 9.56698 17.4095 8.48609Z" fill="#32BCAD"/>
<path d="M25.5478 17.3046C25.3931 17.3046 25.2128 17.3418 25.0347 17.3828V18.0663C25.1582 18.1114 25.299 18.133 25.4343 18.133C25.7769 18.133 25.9395 18.0174 25.9395 17.7157C25.9395 17.4318 25.8063 17.3046 25.5478 17.3046ZM24.9191 18.5736V17.2222H25.0131L25.0229 17.2811C25.1816 17.2438 25.4009 17.1949 25.5575 17.1949C25.6849 17.1949 25.8063 17.2143 25.9081 17.2966C26.0257 17.3927 26.0629 17.5473 26.0629 17.7157C26.0629 17.8921 26.0041 18.0586 25.8436 18.1505C25.7318 18.2132 25.5811 18.2386 25.4459 18.2386C25.3068 18.2386 25.1738 18.2169 25.0347 18.176V18.5736H24.9191Z" fill="white"/>
<path d="M26.9232 17.3005C26.5804 17.3005 26.4277 17.4083 26.4277 17.7099C26.4277 18.0017 26.5786 18.133 26.9232 18.133C27.264 18.133 27.4168 18.0271 27.4168 17.7255C27.4168 17.4338 27.266 17.3005 26.9232 17.3005ZM27.3638 18.133C27.2502 18.2151 27.0975 18.2386 26.9232 18.2386C26.7451 18.2386 26.5923 18.2131 26.4805 18.133C26.3552 18.0449 26.3043 17.8998 26.3043 17.7178C26.3043 17.5376 26.3552 17.3908 26.4805 17.3005C26.5923 17.2203 26.7451 17.1949 26.9232 17.1949C27.0995 17.1949 27.2502 17.2203 27.3638 17.3005C27.4912 17.3908 27.5401 17.5376 27.5401 17.7157C27.5401 17.8979 27.4892 18.0449 27.3638 18.133Z" fill="white"/>
<path d="M28.9869 18.2113L28.6049 17.3908H28.597L28.221 18.2113H28.1173L27.71 17.2223H27.8371L28.176 18.0525H28.1839L28.552 17.2223H28.6578L29.0357 18.0525H29.0437L29.3746 17.2223H29.498L29.0905 18.2113H28.9869Z" fill="white"/>
<path d="M30.2359 17.2986C29.9186 17.2986 29.8109 17.4395 29.7913 17.6433H30.6804C30.6707 17.4182 30.5551 17.2986 30.2359 17.2986ZM30.232 18.2386C30.042 18.2386 29.9186 18.2112 29.8207 18.1288C29.7051 18.0289 29.666 17.8842 29.666 17.7178C29.666 17.5591 29.7189 17.3908 29.8502 17.2947C29.9598 17.2183 30.0949 17.1949 30.2359 17.1949C30.3632 17.1949 30.5101 17.2085 30.6315 17.2908C30.7744 17.3867 30.8019 17.5552 30.8019 17.747H29.7874C29.7913 17.9507 29.858 18.131 30.2417 18.131C30.4239 18.131 30.5943 18.1014 30.753 18.0741V18.1779C30.5884 18.2074 30.4063 18.2386 30.232 18.2386Z" fill="white"/>
<path d="M31.1334 18.2113V17.2223H31.2274L31.2373 17.2811C31.4467 17.2282 31.5448 17.1949 31.7288 17.1949H31.7426V17.3046H31.7151C31.5604 17.3046 31.4664 17.326 31.249 17.3829V18.2113H31.1334Z" fill="white"/>
<path d="M32.4138 17.2986C32.0965 17.2986 31.9888 17.4395 31.9692 17.6433H32.8583C32.8486 17.4182 32.733 17.2986 32.4138 17.2986ZM32.4099 18.2386C32.2198 18.2386 32.0965 18.2112 31.9986 18.1288C31.883 18.0289 31.8439 17.8842 31.8439 17.7178C31.8439 17.5591 31.8967 17.3908 32.028 17.2947C32.1376 17.2183 32.2728 17.1949 32.4138 17.1949C32.5411 17.1949 32.688 17.2085 32.8093 17.2908C32.9523 17.3867 32.9798 17.5552 32.9798 17.747H31.9653C31.9692 17.9507 32.0358 18.131 32.4196 18.131C32.6018 18.131 32.7721 18.1014 32.9309 18.0741V18.1779C32.7662 18.2074 32.5841 18.2386 32.4099 18.2386Z" fill="white"/>
<path d="M34.2461 17.3673C34.1228 17.3221 33.9817 17.3005 33.8467 17.3005C33.5039 17.3005 33.3413 17.4162 33.3413 17.7178C33.3413 18.0036 33.4745 18.1289 33.7329 18.1289C33.8877 18.1289 34.0679 18.0917 34.2461 18.0525V17.3673ZM34.2677 18.2113L34.2578 18.1524C34.0993 18.1896 33.8799 18.2386 33.7232 18.2386C33.596 18.2386 33.4745 18.2211 33.3727 18.1368C33.2552 18.0407 33.2179 17.8862 33.2179 17.7178C33.2179 17.5416 33.2767 17.3749 33.4373 17.2848C33.5489 17.2203 33.6997 17.1949 33.8368 17.1949C33.9739 17.1949 34.107 17.2184 34.2461 17.2575V16.8051H34.3617V18.2113H34.2677Z" fill="white"/>
<path d="M36.0555 17.3046C35.9007 17.3046 35.7205 17.3418 35.5424 17.3829V18.0643C35.6677 18.1114 35.8067 18.133 35.942 18.133C36.2846 18.133 36.4471 18.0175 36.4471 17.7157C36.4471 17.4318 36.314 17.3046 36.0555 17.3046ZM36.3512 18.1506C36.2395 18.2132 36.0888 18.2386 35.9536 18.2386C35.8067 18.2386 35.6599 18.2132 35.511 18.1642L35.5052 18.2113H35.4268V16.8052H35.5424V17.277C35.701 17.242 35.9145 17.1949 36.0652 17.1949C36.1926 17.1949 36.314 17.2143 36.4158 17.2967C36.5334 17.3927 36.5706 17.5473 36.5706 17.7157C36.5706 17.8921 36.5117 18.0586 36.3512 18.1506Z" fill="white"/>
<path d="M36.7237 18.5911V18.4835C36.7805 18.4894 36.8335 18.4934 36.8707 18.4934C37.0136 18.4934 37.0997 18.4521 37.18 18.2895L37.2172 18.2113L36.7003 17.2223H36.8335L37.2761 18.0761H37.2839L37.7049 17.2223H37.8361L37.28 18.3327C37.1782 18.5345 37.0684 18.601 36.8667 18.601C36.8217 18.601 36.7727 18.5971 36.7237 18.5911Z" fill="white"/>
<path d="M39.4291 17.6472H39.0453V17.994H39.431C39.6954 17.994 39.7952 17.9644 39.7952 17.8197C39.7952 17.6647 39.6583 17.6472 39.4291 17.6472ZM39.3586 17.0851H39.0453V17.4376H39.3606C39.6211 17.4376 39.7248 17.4064 39.7248 17.2595C39.7248 17.1029 39.5936 17.0851 39.3586 17.0851ZM39.954 18.1174C39.813 18.2074 39.6426 18.2113 39.3311 18.2113H38.7456V16.8698H39.3175C39.5858 16.8698 39.7502 16.8737 39.8873 16.956C39.9853 17.0148 40.0245 17.1049 40.0245 17.2223C40.0245 17.3632 39.9658 17.4573 39.813 17.52V17.5276C39.9853 17.567 40.097 17.6552 40.097 17.8451C40.097 17.9743 40.0499 18.0586 39.954 18.1174Z" fill="white"/>
<path d="M41.2681 17.7961C41.1525 17.7863 41.0351 17.7804 40.9116 17.7804C40.7099 17.7804 40.6394 17.8216 40.6394 17.9135C40.6394 17.9997 40.6982 18.0468 40.8528 18.0468C40.9821 18.0468 41.1369 18.0175 41.2681 17.9879V17.7961ZM41.3268 18.2113L41.319 18.1524C41.1506 18.1937 40.9548 18.2386 40.7823 18.2386C40.6766 18.2386 40.5629 18.2249 40.4827 18.1661C40.4084 18.1133 40.373 18.0271 40.373 17.9271C40.373 17.8156 40.4221 17.7119 40.5395 17.659C40.6433 17.61 40.7823 17.6061 40.9097 17.6061C41.0135 17.6061 41.1525 17.612 41.2681 17.6198V17.6021C41.2681 17.4475 41.1662 17.3966 40.8881 17.3966C40.7804 17.3966 40.6492 17.4023 40.5239 17.4141V17.2143C40.6629 17.2028 40.8195 17.1949 40.9488 17.1949C41.1212 17.1949 41.2994 17.2086 41.409 17.2868C41.5226 17.3673 41.5442 17.4789 41.5442 17.6257V18.2113H41.3268Z" fill="white"/>
<path d="M42.8355 18.2113V17.6647C42.8355 17.4847 42.7435 17.4201 42.5789 17.4201C42.4576 17.4201 42.3048 17.4513 42.1755 17.4828V18.2113H41.8994V17.2223H42.1246L42.1343 17.2848C42.3087 17.24 42.5025 17.1949 42.6632 17.1949C42.7846 17.1949 42.908 17.2124 43.002 17.2967C43.0802 17.3673 43.1097 17.465 43.1097 17.6061V18.2113H42.8355Z" fill="white"/>
<path d="M43.8896 18.2386C43.7624 18.2386 43.6232 18.2211 43.5214 18.1349C43.4001 18.0369 43.3647 17.8823 43.3647 17.7156C43.3647 17.5591 43.4156 17.3886 43.5665 17.2928C43.6898 17.2123 43.8426 17.1949 44.0013 17.1949C44.1148 17.1949 44.2265 17.2027 44.3498 17.2143V17.4259C44.2499 17.4162 44.1304 17.4083 44.0346 17.4083C43.7721 17.4083 43.6487 17.4906 43.6487 17.7178C43.6487 17.9313 43.7408 18.0232 43.9561 18.0232C44.0814 18.0232 44.2284 17.9997 44.3714 17.9724V18.176C44.2167 18.2075 44.0483 18.2386 43.8896 18.2386Z" fill="white"/>
<path d="M45.1873 17.4022C44.9248 17.4022 44.8092 17.4847 44.8092 17.7099C44.8092 17.9351 44.9228 18.0312 45.1873 18.0312C45.4477 18.0312 45.5613 17.9507 45.5613 17.7254C45.5613 17.5003 45.4498 17.4022 45.1873 17.4022ZM45.6612 18.1349C45.5398 18.217 45.3812 18.2386 45.1873 18.2386C44.9894 18.2386 44.8309 18.215 44.7114 18.1349C44.5743 18.0448 44.5253 17.8959 44.5253 17.7178C44.5253 17.5394 44.5743 17.3886 44.7114 17.2986C44.8309 17.2183 44.9894 17.1949 45.1873 17.1949C45.3831 17.1949 45.5398 17.2183 45.6612 17.2986C45.7982 17.3886 45.8453 17.5394 45.8453 17.7156C45.8453 17.894 45.7963 18.0448 45.6612 18.1349Z" fill="white"/>
<path d="M47.4401 18.2386C47.2738 18.2386 47.0936 18.2113 46.9583 18.0996C46.7978 17.9663 46.7489 17.7608 46.7489 17.5394C46.7489 17.3417 46.8115 17.1068 47.021 16.9696C47.1836 16.864 47.3853 16.8424 47.589 16.8424C47.7379 16.8424 47.8906 16.8522 48.0571 16.8659V17.1068C47.9141 17.0949 47.7379 17.0851 47.6008 17.0851C47.2189 17.0851 47.0563 17.2301 47.0563 17.5394C47.0563 17.8549 47.2071 17.9959 47.4891 17.9959C47.6731 17.9959 47.8788 17.9586 48.0865 17.9155V18.1544C47.8788 18.1956 47.6614 18.2386 47.4401 18.2386Z" fill="white"/>
<path d="M48.897 17.3711C48.6678 17.3711 48.5796 17.4535 48.562 17.6042H49.2279C49.2201 17.4436 49.126 17.3711 48.897 17.3711ZM48.8558 18.2386C48.6933 18.2386 48.5464 18.2191 48.4367 18.1289C48.3193 18.0312 48.2781 17.8842 48.2781 17.7156C48.2781 17.5649 48.3271 17.3966 48.4642 17.2986C48.5856 17.2123 48.7403 17.1949 48.897 17.1949C49.0379 17.1949 49.2045 17.2105 49.3258 17.2947C49.4845 17.4064 49.4982 17.5788 49.5002 17.7824H48.5601C48.566 17.9332 48.6463 18.0312 48.9243 18.0312C49.0967 18.0312 49.2886 18.0057 49.4512 17.9802V18.174C49.2612 18.2055 49.0536 18.2386 48.8558 18.2386Z" fill="white"/>
<path d="M50.7293 18.2113V17.6647C50.7293 17.4847 50.6373 17.4201 50.4727 17.4201C50.3514 17.4201 50.1986 17.4513 50.0693 17.4828V18.2113H49.7932V17.2223H50.0184L50.0282 17.2848C50.2025 17.24 50.3964 17.1949 50.557 17.1949C50.6784 17.1949 50.8018 17.2124 50.8958 17.2967C50.9741 17.3673 51.0035 17.465 51.0035 17.6061V18.2113H50.7293Z" fill="white"/>
<path d="M51.7895 18.2386C51.6563 18.2386 51.5348 18.2014 51.4683 18.0976C51.4194 18.0271 51.3958 17.9313 51.3958 17.798V17.4278H51.196V17.2223H51.3958L51.4253 16.9226H51.67V17.2223H52.0597V17.4278H51.67V17.7452C51.67 17.8216 51.6759 17.8862 51.6974 17.9332C51.7269 17.9997 51.7914 18.0252 51.8776 18.0252C51.9422 18.0252 52.0206 18.0153 52.0753 18.0057V18.2033C51.9853 18.2211 51.8815 18.2386 51.7895 18.2386Z" fill="white"/>
<path d="M52.3292 18.2113V17.2223H52.5544L52.5643 17.2848C52.7465 17.234 52.8815 17.1949 53.0539 17.1949C53.0617 17.1949 53.0735 17.1949 53.0891 17.1967V17.4318C53.0577 17.4299 53.0205 17.4299 52.9932 17.4299C52.858 17.4299 52.7562 17.4455 52.6053 17.4809V18.2113H52.3292Z" fill="white"/>
<path d="M54.0928 17.7961C53.9772 17.7863 53.8598 17.7804 53.7363 17.7804C53.5346 17.7804 53.464 17.8216 53.464 17.9135C53.464 17.9997 53.5229 18.0468 53.6775 18.0468C53.8068 18.0468 53.9616 18.0175 54.0928 17.9879V17.7961ZM54.1515 18.2113L54.1437 18.1524C53.9752 18.1937 53.7794 18.2386 53.607 18.2386C53.5013 18.2386 53.3877 18.2249 53.3074 18.1661C53.2331 18.1133 53.1978 18.0271 53.1978 17.9271C53.1978 17.8156 53.2467 17.7119 53.3642 17.659C53.468 17.61 53.607 17.6061 53.7344 17.6061C53.8381 17.6061 53.9772 17.612 54.0928 17.6198V17.6021C54.0928 17.4475 53.9909 17.3966 53.7128 17.3966C53.6051 17.3966 53.4739 17.4023 53.3485 17.4141V17.2143C53.4876 17.2028 53.6442 17.1949 53.7735 17.1949C53.9458 17.1949 54.1241 17.2086 54.2337 17.2868C54.3473 17.3673 54.3689 17.4789 54.3689 17.6257V18.2113H54.1515Z" fill="white"/>
<path d="M54.7241 16.8052H55.0002V18.2113H54.7241V16.8052Z" fill="white"/>
</svg>
