<svg width="48" height="16" viewBox="0 0 48 16" fill="none" xmlns="http://www.w3.org/2000/svg">
<path d="M22.7783 9.61356L22.2457 12.2827C22.0111 13.3648 21.3612 14.0872 20.0337 14.0872C18.5102 14.0872 18.108 13.1393 18.4424 11.8055C18.9153 9.91322 20.4541 9.34971 22.7783 9.61356ZM25.178 5.79766L23.5579 5.90108L23.0457 8.51469C22.4264 8.49276 22.2315 8.47303 21.5033 8.47303C19.2238 8.47303 17.2344 9.43413 16.7087 11.6889C16.2351 13.7218 17.3863 15.2994 19.8967 15.2994C22.4683 15.2994 23.5871 13.9535 23.9893 12.0613L25.178 5.79766ZM7.6048 9.72757C5.22955 9.5105 3.18618 9.70821 3.15303 10.5173C3.10166 11.732 7.06782 10.6722 6.99131 12.9069C6.87984 16.19 1.36467 15.4346 0 15.0169L0.247725 14.0423C2.60075 14.4169 5.0831 14.4479 5.13738 13.1462C5.19567 11.7627 1.21312 13.0063 1.30639 10.7658C1.37597 9.09683 3.86524 8.19676 7.93959 8.79717L7.6048 9.72757ZM14.0092 11.9608C13.6664 13.3312 12.583 14.1918 11.293 14.1918C9.94398 14.1918 9.33705 13.4075 9.6988 11.9608C10.042 10.5904 11.1378 9.67057 12.4274 9.67057C13.7163 9.67057 14.352 10.5904 14.0092 11.9608ZM12.6354 8.54867C10.2733 8.54867 8.37457 9.91906 7.90753 11.9608C7.4394 14.0036 8.71155 15.3739 11.0726 15.3739C13.4336 15.3739 15.3331 14.0036 15.8001 11.9608C16.2683 9.91943 14.9968 8.54867 12.6354 8.54867ZM39.9271 15.3392H37.8739C36.6287 14.1651 34.2469 11.4667 32.4932 8.61116H33.9999C35.6651 10.9163 39.9271 15.3392 39.9271 15.3392ZM42.0787 1.97555L43.0237 0L43.2932 2.00844L45.2193 1.33238L43.8732 3.06383L45.3333 4.19851L43.3847 4.34943L43.2772 6.43827L42.1938 4.89467L40.6018 6.36738L41.1985 4.29206L39.3205 4.03662L41.1482 2.9922L40.3985 1.20448L42.0787 1.97555ZM46.0827 11.9816C45.7344 13.3735 44.6342 14.2477 43.3242 14.2477C41.9544 14.2477 41.3369 13.451 41.7049 11.9816C42.0532 10.5896 43.1661 9.65522 44.4758 9.65522C45.7865 9.65522 46.4317 10.5896 46.0827 11.9816ZM44.6874 8.51432C42.2885 8.51432 40.3603 9.90737 39.8848 11.9816C39.4098 14.0562 40.7016 15.4485 43.1002 15.4485C45.4991 15.4485 47.4281 14.0562 47.9024 11.9816C48.3778 9.90737 47.0864 8.51432 44.6871 8.51432" fill="#3442B5"/>
<path d="M30.9374 14.7659C34.8154 12.6051 38.1841 9.2847 40.5731 6.41418C38.8555 11.8073 34.7206 14.7096 30.9374 14.7659Z" fill="#ED1C24"/>
<path d="M29.4009 9.54925C30.1437 9.54925 30.5481 9.81967 30.5481 10.3364C30.5481 11.7079 27.8828 11.6173 26.7072 11.3772C27.1207 10.3503 28.0544 9.54925 29.4009 9.54925ZM32.1455 10.2618C32.1455 9.26713 31.3554 8.53625 29.5626 8.53625C26.6548 8.53625 24.7655 10.4296 24.7655 12.7735C24.7655 14.2871 26.0183 15.5453 28.3065 15.5453C29.8832 15.5453 30.936 14.7659 30.936 14.7659C28.9295 14.9815 26.4653 14.7659 26.4653 12.6127C26.4653 12.5272 26.4701 12.4417 26.477 12.3565C29.2147 12.9266 32.1455 12.2367 32.1455 10.2615" fill="#3442B5"/>
</svg>
