<svg width="29" height="29" viewBox="0 0 29 29" fill="none" xmlns="http://www.w3.org/2000/svg">
<path d="M14.501 29.0003C22.5081 29.0003 28.9992 22.5083 28.9992 14.5001C28.9992 6.49193 22.5081 0 14.501 0C6.49386 0 0.00280762 6.49193 0.00280762 14.5001C0.00280762 22.5083 6.49386 29.0003 14.501 29.0003Z" fill="white"/>
<path fill-rule="evenodd" clip-rule="evenodd" d="M25.5187 15.5255H21.1235C21.2901 16.4799 22.2001 16.8462 22.9882 16.8462C23.4876 16.8462 23.9315 16.7351 24.3644 16.5355L24.2424 17.845C23.754 18.0447 23.1659 18.1225 22.5776 18.1225C20.6243 18.1225 19.248 16.9794 19.248 15.0372C19.248 13.3502 20.4799 12.085 22.3667 12.085C24.4976 12.085 25.563 13.439 25.5187 15.5255ZM17.572 18.0115C17.4832 17.8006 17.3499 17.4566 17.239 17.1125L16.9838 16.2579C16.8505 15.8031 16.673 15.6143 16.2401 15.6143H15.5076V18.0115H13.8095V10.176H15.5076V14.4933H15.6964L17.3055 12.196H19.1923L17.2944 14.5931H17.3944C18.149 14.5931 18.371 15.0149 18.5597 15.6365L18.8816 16.7131C18.9925 17.1125 19.2257 17.6786 19.4031 18.0115H17.572ZM12.1336 16.7131C12.5775 16.7131 12.9438 16.5909 13.2213 16.4578L13.066 17.8673C12.7108 18.0447 12.2112 18.1336 11.7784 18.1336C9.94709 18.1336 8.68202 16.9461 8.68202 15.0927C8.68202 13.2614 9.925 12.085 11.7673 12.085C12.4443 12.085 12.966 12.2181 13.4986 12.4622L13.0103 13.7718C12.7551 13.6165 12.4 13.4945 12.0226 13.4945C11.0904 13.4945 10.4799 14.1048 10.4799 15.0927C10.4799 16.0693 11.1236 16.724 12.1336 16.7131ZM6.42886 11.4523H8.16015V10.176H6.42886V11.4523ZM6.42886 18.0115H8.16015V12.196H6.42886V18.0115ZM25.8853 14.8707V10.9196L27.6165 10.2204V12.3069H28.7818L28.5487 13.6054H27.5943V14.9372C27.5943 16.2309 28.0846 17.142 28.6045 17.8736C28.8626 16.7909 29 15.6615 29 14.4998C28.9999 6.49174 22.508 0 14.4999 0C7.99784 0 2.49544 4.27975 0.655736 10.176H6.05134L5.8405 11.7298H3.58746V18.0115H1.74501V11.7298H0.265364C0.0919477 12.6265 0 13.5524 0 14.4998C0.000124541 22.508 6.49187 28.9998 14.5001 28.9998C21.2971 28.9998 27.0008 24.3228 28.571 18.0115H26.8619C26.5622 17.4899 25.8741 16.5465 25.8853 14.8707ZM22.4221 13.2836C21.6897 13.2836 21.2236 13.7608 21.0792 14.3934H23.6874C23.5986 13.6943 23.1103 13.2836 22.4221 13.2836Z" fill="#D52B1E"/>
</svg>
