<svg width="23" height="22" viewBox="0 0 23 22" fill="none" xmlns="http://www.w3.org/2000/svg">
<g clip-path="url(#clip0_1_1490)">
<path d="M22.5127 5.43491L22.5402 5.61458C22.2742 4.67133 21.5558 3.94349 20.6429 3.67858L20.6236 3.67399C18.907 3.20833 11.9991 3.20833 11.9991 3.20833C11.9991 3.20833 5.10874 3.19916 3.37467 3.67399C2.44433 3.94349 1.72501 4.67133 1.46353 5.59533L1.45894 5.61458C0.817609 8.96133 0.813022 12.9827 1.48738 16.566L1.45894 16.3845C1.72501 17.3277 2.44341 18.0556 3.35632 18.3205L3.37559 18.3251C5.09039 18.7917 12.0001 18.7917 12.0001 18.7917C12.0001 18.7917 18.8895 18.7917 20.6245 18.3251C21.5558 18.0556 22.2751 17.3277 22.5366 16.4037L22.5412 16.3845C22.8329 14.828 22.9999 13.0368 22.9999 11.2072C22.9999 11.1402 22.9999 11.0724 22.999 11.0046C22.9999 10.9422 22.9999 10.868 22.9999 10.7937C22.9999 8.96316 22.8329 7.17199 22.5127 5.43491ZM9.79531 14.3467V7.66149L15.5443 11.0092L9.79531 14.3467Z" fill="white"/>
</g>
<defs>
<clipPath id="clip0_1_1490">
<rect width="22.0199" height="22" fill="white" transform="translate(0.97998)"/>
</clipPath>
</defs>
</svg>
