<svg width="165" height="49" viewBox="0 0 165 49" fill="none" xmlns="http://www.w3.org/2000/svg">
<path d="M49.2298 24.5C49.2298 29.2467 47.8009 33.8869 45.1236 37.8337C42.4464 41.7805 38.6411 44.8566 34.189 46.6731C29.7369 48.4896 24.8379 48.9649 20.1116 48.0388C15.3852 47.1128 11.0438 44.827 7.63633 41.4706C4.22883 38.1141 1.9083 33.8377 0.968176 29.1822C0.0280504 24.5266 0.510557 19.701 2.35468 15.3156C4.1988 10.9302 7.32171 7.18187 11.3285 4.54472C15.3353 1.90757 20.046 0.5 24.8649 0.5C28.0646 0.5 31.2329 1.12077 34.189 2.32689C37.1451 3.533 39.831 5.30083 42.0935 7.52943C44.356 9.75804 46.1507 12.4038 47.3752 15.3156C48.5996 18.2274 49.2298 21.3483 49.2298 24.5Z" fill="#E7CD1F"/>
<path d="M12.942 27.3354C13.5216 29.3997 15.0934 30.432 17.6573 30.4322C19.307 30.4322 20.5556 29.8831 21.403 28.7849L24.881 30.7613C23.2308 33.1113 20.8007 34.2862 17.5908 34.286C14.8262 34.286 12.608 33.4625 10.9362 31.8155C9.33079 30.1334 8.43421 27.9132 8.42801 25.6044C8.42181 23.2956 9.30645 21.0708 10.9028 19.3803C12.5523 17.7231 14.6702 16.8945 17.2564 16.8945C18.3906 16.8624 19.5188 17.0691 20.5655 17.5008C21.6121 17.9325 22.5532 18.5793 23.3259 19.3978C24.9214 21.0704 25.7809 23.2965 25.717 25.5907C25.7134 26.1764 25.6574 26.7605 25.5496 27.3364L12.942 27.3354ZM12.8741 24.0411H21.403C21.2354 23.047 20.6917 22.1524 19.8813 21.5374C19.1193 20.9911 18.1984 20.7024 17.256 20.7143C16.2244 20.6745 15.2098 20.9824 14.3798 21.5871C13.5992 22.2041 13.0657 23.0735 12.8741 24.0411Z" fill="white"/>
<path d="M36.5517 34.2859C35.3842 34.2985 34.2256 34.0829 33.1432 33.6515C32.0609 33.2202 31.0761 32.5816 30.2459 31.7728C29.4157 30.964 28.7567 30.0011 28.3069 28.9397C27.8571 27.8783 27.6255 26.7396 27.6255 25.5894C27.6255 24.4393 27.8571 23.3006 28.3069 22.2392C28.7567 21.1778 29.4157 20.2148 30.2459 19.406C31.0761 18.5973 32.0609 17.9587 33.1432 17.5273C34.2256 17.0959 35.3842 16.8803 36.5517 16.893C38.1127 16.8759 39.6493 17.2744 40.9994 18.0463C42.2936 18.7705 43.3498 19.8451 44.0427 21.1427L40.3322 23.2837C40.0015 22.6071 39.4712 22.0445 38.8106 21.6697C38.116 21.2706 37.3241 21.0657 36.5201 21.0769C35.9252 21.0591 35.3329 21.1626 34.7805 21.3808C34.2281 21.599 33.7274 21.9273 33.3097 22.345C32.4922 23.2273 32.0389 24.3786 32.0389 25.5731C32.0389 26.7676 32.4922 27.919 33.3097 28.8012C33.7273 29.219 34.228 29.5473 34.7805 29.7654C35.3329 29.9836 35.9252 30.0869 36.5201 30.069C37.333 30.0833 38.1352 29.8844 38.8443 29.4927C39.5064 29.1273 40.0378 28.5694 40.3656 27.8951L44.1109 30.0036C43.3771 31.2977 42.3027 32.373 41.0008 33.1165C39.6541 33.8981 38.1161 34.3023 36.5531 34.2855" fill="white"/>
<path d="M60.3631 31.7661C59.1253 32.9748 57.552 33.7957 55.8414 34.1251C54.1308 34.4546 52.3595 34.278 50.7506 33.6175C49.1417 32.9571 47.7673 31.8423 46.8005 30.4137C45.8338 28.9852 45.3179 27.3067 45.3179 25.5898C45.3179 23.8729 45.8338 22.1944 46.8005 20.7659C47.7673 19.3373 49.1417 18.2225 50.7506 17.5621C52.3595 16.9016 54.1308 16.725 55.8414 17.0545C57.552 17.3839 59.1253 18.2048 60.3631 19.4135C62.0129 21.0584 62.9381 23.2775 62.9381 25.5898C62.9381 27.9021 62.0129 30.1212 60.3631 31.7661ZM50.849 28.8506C51.268 29.2722 51.771 29.6039 52.3263 29.825C52.8816 30.046 53.4773 30.1516 54.0761 30.1352C54.6772 30.1506 55.2752 30.0445 55.8331 29.8236C56.391 29.6027 56.8971 29.2716 57.3202 28.8506C58.1583 27.9654 58.6244 26.8 58.6244 25.5896C58.6244 24.3792 58.1583 23.2138 57.3202 22.3286C56.8971 21.9077 56.391 21.5766 55.8331 21.3556C55.2752 21.1347 54.6772 21.0287 54.0761 21.044C53.4773 21.0276 52.8816 21.1332 52.3263 21.3543C51.771 21.5753 51.268 21.907 50.849 22.3286C50.0209 23.2187 49.5615 24.3823 49.5615 25.5896C49.5615 26.797 50.0209 27.9605 50.849 28.8506Z" fill="white"/>
<path d="M75.2766 16.8933C76.1183 16.8684 76.956 17.0166 77.7362 17.3286C78.5165 17.6405 79.2221 18.1092 79.8081 18.7048C81.0003 19.913 81.5965 21.5819 81.5967 23.7115V33.824H77.2831V24.2395C77.2831 23.1425 76.982 22.3022 76.3799 21.7187C76.0584 21.4218 75.6797 21.1915 75.2661 21.0416C74.8526 20.8916 74.4126 20.8251 73.9725 20.8458C73.4789 20.8234 72.9861 20.9026 72.5254 21.0785C72.0647 21.2543 71.6463 21.5229 71.2971 21.8671C70.6283 22.548 70.294 23.5692 70.294 24.9307V33.8237H65.98V17.3537H70.294V19.1982C71.3414 17.6611 73.0022 16.8925 75.2766 16.8923" fill="white"/>
<path d="M95.9775 17.3545H100.726L94.3723 33.8245H89.4566L83.1023 17.3545H87.851L91.9031 28.8811L95.9775 17.3545Z" fill="white"/>
<path d="M105.775 27.3354C106.354 29.3997 107.926 30.432 110.49 30.4322C112.14 30.4322 113.389 29.8831 114.236 28.7849L117.714 30.7613C116.064 33.1113 113.634 34.2862 110.424 34.286C107.659 34.286 105.441 33.4625 103.769 31.8155C102.164 30.1334 101.267 27.9132 101.261 25.6044C101.255 23.2956 102.139 21.0708 103.736 19.3803C105.385 17.7231 107.503 16.8945 110.089 16.8945C111.224 16.8624 112.352 17.0692 113.398 17.5009C114.445 17.9325 115.386 18.5793 116.158 19.3978C117.754 21.0702 118.614 23.2964 118.55 25.5907C118.546 26.1763 118.49 26.7605 118.383 27.3364L105.775 27.3354ZM105.709 24.0411H114.235C114.067 23.047 113.523 22.1524 112.713 21.5374C111.951 20.9912 111.03 20.7024 110.088 20.7143C109.056 20.6744 108.042 20.9823 107.212 21.5871C106.431 22.2041 105.898 23.0736 105.707 24.0411" fill="white"/>
<path d="M125.874 20.1869C126.229 19.1878 126.935 18.3466 127.864 17.8152C128.805 17.2842 129.872 17.0112 130.956 17.0246V21.7681C129.722 21.5966 128.466 21.8779 127.428 22.5586C126.391 23.2395 125.873 24.3705 125.873 25.9516V33.8244H121.56V17.3544H125.874V20.1869Z" fill="white"/>
<path d="M136.909 22.0321C136.909 22.4716 137.204 22.8284 137.795 23.1024C138.488 23.4123 139.211 23.655 139.952 23.8271C140.814 24.0409 141.663 24.3049 142.494 24.6177C143.349 24.9427 144.096 25.4959 144.65 26.2153C145.261 27.0223 145.574 28.0104 145.537 29.0163C145.537 30.7076 144.896 32.0087 143.614 32.9198C142.332 33.8308 140.733 34.2859 138.816 34.2852C135.382 34.2852 133.041 32.9787 131.793 30.3656L135.538 28.2905C136.028 29.718 137.121 30.4317 138.816 30.4315C140.354 30.4315 141.123 29.9593 141.123 29.0149C141.123 28.5761 140.828 28.2193 140.237 27.9446C139.542 27.634 138.82 27.3859 138.08 27.2034C137.217 26.9788 136.369 26.7039 135.539 26.3802C134.694 26.0523 133.95 25.5129 133.382 24.8152C132.773 24.0515 132.46 23.1004 132.495 22.1305C132.465 21.3938 132.614 20.6606 132.932 19.9928C133.249 19.325 133.724 18.7421 134.318 18.2932C135.622 17.331 137.221 16.8369 138.849 16.8927C140.145 16.8771 141.423 17.189 142.562 17.7984C143.672 18.3985 144.587 19.2948 145.203 20.3844L141.524 22.3605C141.309 21.8425 140.936 21.4029 140.457 21.102C139.978 20.8011 139.416 20.6537 138.848 20.6799C138.36 20.662 137.877 20.7882 137.462 21.0423C137.29 21.145 137.149 21.2903 137.052 21.4637C136.955 21.6371 136.906 21.8325 136.91 22.0303" fill="white"/>
<path d="M151.724 27.3354C152.303 29.3997 153.874 30.432 156.439 30.4322C158.089 30.4322 159.337 29.8831 160.184 28.7849L163.662 30.7613C162.013 33.1113 159.583 34.2862 156.372 34.286C153.608 34.286 151.389 33.4625 149.718 31.8155C148.112 30.1336 147.215 27.9136 147.208 25.6048C147.202 23.2961 148.086 21.0711 149.682 19.3803C151.332 17.7231 153.449 16.8945 156.036 16.8945C157.17 16.8624 158.298 17.0691 159.345 17.5008C160.391 17.9325 161.333 18.5793 162.105 19.3978C163.701 21.0703 164.561 23.2964 164.497 25.5907C164.493 26.1763 164.437 26.7605 164.329 27.3364L151.724 27.3354ZM151.657 24.0411H160.184C160.017 23.047 159.473 22.1524 158.663 21.5374C157.901 20.9912 156.98 20.7025 156.038 20.7143C155.006 20.6745 153.992 20.9824 153.161 21.5871C152.381 22.2043 151.848 23.0737 151.657 24.0411Z" fill="white"/>
<path d="M49.2298 24.5C49.2298 29.2467 47.8009 33.8869 45.1236 37.8337C42.4464 41.7805 38.6411 44.8566 34.189 46.6731C29.7369 48.4896 24.8379 48.9649 20.1116 48.0388C15.3852 47.1128 11.0438 44.827 7.63633 41.4706C4.22883 38.1141 1.9083 33.8377 0.968176 29.1822C0.0280504 24.5266 0.510557 19.701 2.35468 15.3156C4.1988 10.9302 7.32171 7.18187 11.3285 4.54472C15.3353 1.90757 20.046 0.5 24.8649 0.5C28.0646 0.5 31.2329 1.12077 34.189 2.32689C37.1451 3.533 39.831 5.30083 42.0935 7.52943C44.356 9.75804 46.1507 12.4038 47.3752 15.3156C48.5996 18.2274 49.2298 21.3483 49.2298 24.5Z" fill="#F7CA11"/>
<path d="M12.942 27.3354C13.5216 29.3997 15.0934 30.432 17.6573 30.4322C19.307 30.4322 20.5556 29.8831 21.403 28.7849L24.881 30.7613C23.2308 33.1113 20.8007 34.2862 17.5908 34.286C14.8262 34.286 12.608 33.4625 10.9362 31.8155C9.33079 30.1334 8.43421 27.9132 8.42801 25.6044C8.42181 23.2956 9.30645 21.0708 10.9028 19.3803C12.5523 17.7231 14.6702 16.8945 17.2564 16.8945C18.3906 16.8624 19.5188 17.0691 20.5655 17.5008C21.6121 17.9325 22.5532 18.5793 23.3259 19.3978C24.9214 21.0704 25.7809 23.2965 25.717 25.5907C25.7134 26.1764 25.6574 26.7605 25.5496 27.3364L12.942 27.3354ZM12.8741 24.0411H21.403C21.2354 23.047 20.6917 22.1524 19.8813 21.5374C19.1193 20.9911 18.1984 20.7024 17.256 20.7143C16.2244 20.6745 15.2098 20.9824 14.3798 21.5871C13.5992 22.2041 13.0657 23.0735 12.8741 24.0411Z" fill="#F4F4F4"/>
<path d="M36.5517 34.2859C35.3842 34.2985 34.2256 34.0829 33.1432 33.6515C32.0609 33.2202 31.0761 32.5816 30.2459 31.7728C29.4157 30.964 28.7567 30.0011 28.3069 28.9397C27.8571 27.8783 27.6255 26.7396 27.6255 25.5894C27.6255 24.4393 27.8571 23.3006 28.3069 22.2392C28.7567 21.1778 29.4157 20.2148 30.2459 19.406C31.0761 18.5973 32.0609 17.9587 33.1432 17.5273C34.2256 17.0959 35.3842 16.8803 36.5517 16.893C38.1127 16.8759 39.6493 17.2744 40.9994 18.0463C42.2936 18.7705 43.3498 19.8451 44.0427 21.1427L40.3322 23.2837C40.0015 22.6071 39.4712 22.0445 38.8106 21.6697C38.116 21.2706 37.3241 21.0657 36.5201 21.0769C35.9252 21.0591 35.3329 21.1626 34.7805 21.3808C34.2281 21.599 33.7274 21.9273 33.3097 22.345C32.4922 23.2273 32.0389 24.3786 32.0389 25.5731C32.0389 26.7676 32.4922 27.919 33.3097 28.8012C33.7273 29.219 34.228 29.5473 34.7805 29.7654C35.3329 29.9836 35.9252 30.0869 36.5201 30.069C37.333 30.0833 38.1352 29.8844 38.8443 29.4927C39.5064 29.1273 40.0378 28.5694 40.3656 27.8951L44.1109 30.0036C43.3771 31.2977 42.3027 32.373 41.0008 33.1165C39.6541 33.8981 38.1161 34.3023 36.5531 34.2855" fill="#F4F4F4"/>
<path d="M60.3631 31.7661C59.1253 32.9748 57.552 33.7957 55.8414 34.1251C54.1308 34.4546 52.3595 34.278 50.7506 33.6175C49.1417 32.9571 47.7673 31.8423 46.8005 30.4137C45.8338 28.9852 45.3179 27.3067 45.3179 25.5898C45.3179 23.8729 45.8338 22.1944 46.8005 20.7659C47.7673 19.3373 49.1417 18.2225 50.7506 17.5621C52.3595 16.9016 54.1308 16.725 55.8414 17.0545C57.552 17.3839 59.1253 18.2048 60.3631 19.4135C62.0129 21.0584 62.9381 23.2775 62.9381 25.5898C62.9381 27.9021 62.0129 30.1212 60.3631 31.7661ZM50.849 28.8506C51.268 29.2722 51.771 29.6039 52.3263 29.825C52.8816 30.046 53.4773 30.1516 54.0761 30.1352C54.6772 30.1506 55.2752 30.0445 55.8331 29.8236C56.391 29.6027 56.8971 29.2716 57.3202 28.8506C58.1583 27.9654 58.6244 26.8 58.6244 25.5896C58.6244 24.3792 58.1583 23.2138 57.3202 22.3286C56.8971 21.9077 56.391 21.5766 55.8331 21.3556C55.2752 21.1347 54.6772 21.0287 54.0761 21.044C53.4773 21.0276 52.8816 21.1332 52.3263 21.3543C51.771 21.5753 51.268 21.907 50.849 22.3286C50.0209 23.2187 49.5615 24.3823 49.5615 25.5896C49.5615 26.797 50.0209 27.9605 50.849 28.8506Z" fill="#271C47"/>
<path d="M75.2766 16.8933C76.1183 16.8684 76.956 17.0166 77.7362 17.3286C78.5165 17.6405 79.2221 18.1092 79.8081 18.7048C81.0003 19.913 81.5965 21.5819 81.5967 23.7115V33.824H77.2831V24.2395C77.2831 23.1425 76.982 22.3022 76.3799 21.7187C76.0584 21.4218 75.6797 21.1915 75.2661 21.0416C74.8526 20.8916 74.4126 20.8251 73.9725 20.8458C73.4789 20.8234 72.9861 20.9026 72.5254 21.0785C72.0647 21.2543 71.6463 21.5229 71.2971 21.8671C70.6283 22.548 70.294 23.5692 70.294 24.9307V33.8237H65.98V17.3537H70.294V19.1982C71.3414 17.6611 73.0022 16.8925 75.2766 16.8923" fill="#271C47"/>
<path d="M95.9775 17.3545H100.726L94.3723 33.8245H89.4566L83.1023 17.3545H87.851L91.9031 28.8811L95.9775 17.3545Z" fill="#271C47"/>
<path d="M105.775 27.3354C106.354 29.3997 107.926 30.432 110.49 30.4322C112.14 30.4322 113.389 29.8831 114.236 28.7849L117.714 30.7613C116.064 33.1113 113.634 34.2862 110.424 34.286C107.659 34.286 105.441 33.4625 103.769 31.8155C102.164 30.1334 101.267 27.9132 101.261 25.6044C101.255 23.2956 102.139 21.0708 103.736 19.3803C105.385 17.7231 107.503 16.8945 110.089 16.8945C111.224 16.8624 112.352 17.0692 113.398 17.5009C114.445 17.9325 115.386 18.5793 116.158 19.3978C117.754 21.0702 118.614 23.2964 118.55 25.5907C118.546 26.1763 118.49 26.7605 118.383 27.3364L105.775 27.3354ZM105.709 24.0411H114.235C114.067 23.047 113.523 22.1524 112.713 21.5374C111.951 20.9912 111.03 20.7024 110.088 20.7143C109.056 20.6744 108.042 20.9823 107.212 21.5871C106.431 22.2041 105.898 23.0736 105.707 24.0411" fill="#271C47"/>
<path d="M125.874 20.1869C126.229 19.1878 126.935 18.3466 127.864 17.8152C128.805 17.2842 129.872 17.0112 130.956 17.0246V21.7681C129.722 21.5966 128.466 21.8779 127.428 22.5586C126.391 23.2395 125.873 24.3705 125.873 25.9516V33.8244H121.56V17.3544H125.874V20.1869Z" fill="#271C47"/>
<path d="M136.909 22.0321C136.909 22.4716 137.204 22.8284 137.795 23.1024C138.488 23.4123 139.211 23.655 139.952 23.8271C140.814 24.0409 141.663 24.3049 142.494 24.6177C143.349 24.9427 144.096 25.4959 144.65 26.2153C145.261 27.0223 145.574 28.0104 145.537 29.0163C145.537 30.7076 144.896 32.0087 143.614 32.9198C142.332 33.8308 140.733 34.2859 138.816 34.2852C135.382 34.2852 133.041 32.9787 131.793 30.3656L135.538 28.2905C136.028 29.718 137.121 30.4317 138.816 30.4315C140.354 30.4315 141.123 29.9593 141.123 29.0149C141.123 28.5761 140.828 28.2193 140.237 27.9446C139.542 27.634 138.82 27.3859 138.08 27.2034C137.217 26.9788 136.369 26.7039 135.539 26.3802C134.694 26.0523 133.95 25.5129 133.382 24.8152C132.773 24.0515 132.46 23.1004 132.495 22.1305C132.465 21.3938 132.614 20.6606 132.932 19.9928C133.249 19.325 133.724 18.7421 134.318 18.2932C135.622 17.331 137.221 16.8369 138.849 16.8927C140.145 16.8771 141.423 17.189 142.562 17.7984C143.672 18.3985 144.587 19.2948 145.203 20.3844L141.524 22.3605C141.309 21.8425 140.936 21.4029 140.457 21.102C139.978 20.8011 139.416 20.6537 138.848 20.6799C138.36 20.662 137.877 20.7882 137.462 21.0423C137.29 21.145 137.149 21.2903 137.052 21.4637C136.955 21.6371 136.906 21.8325 136.91 22.0303" fill="#271C47"/>
<path d="M151.724 27.3354C152.303 29.3997 153.874 30.432 156.439 30.4322C158.089 30.4322 159.337 29.8831 160.184 28.7849L163.662 30.7613C162.013 33.1113 159.583 34.2862 156.372 34.286C153.608 34.286 151.389 33.4625 149.718 31.8155C148.112 30.1336 147.215 27.9136 147.208 25.6048C147.202 23.2961 148.086 21.0711 149.682 19.3803C151.332 17.7231 153.449 16.8945 156.036 16.8945C157.17 16.8624 158.298 17.0691 159.345 17.5008C160.391 17.9325 161.333 18.5793 162.105 19.3978C163.701 21.0703 164.561 23.2964 164.497 25.5907C164.493 26.1763 164.437 26.7605 164.329 27.3364L151.724 27.3354ZM151.657 24.0411H160.184C160.017 23.047 159.473 22.1524 158.663 21.5374C157.901 20.9912 156.98 20.7025 156.038 20.7143C155.006 20.6745 153.992 20.9824 153.161 21.5871C152.381 22.2043 151.848 23.0737 151.657 24.0411Z" fill="#271C47"/>
</svg>
