<svg width="89" height="32" viewBox="0 0 89 32" fill="none" xmlns="http://www.w3.org/2000/svg">
<path d="M34.8181 9.0185e-07H6.91825C6.42354 -1.40671e-05 5.93723 0.128094 5.50654 0.371874C5.07585 0.615655 4.7154 0.966829 4.46019 1.39131C4.20499 1.81579 4.06369 2.29916 4.05002 2.79447C4.03635 3.28979 4.15077 3.78023 4.38217 4.21818L7.17258 9.51117H2.11307C1.79189 9.51068 1.47605 9.5935 1.1963 9.75155C0.916553 9.9096 0.68243 10.1375 0.516717 10.4131C0.351003 10.6887 0.259356 11.0025 0.250679 11.3241C0.242002 11.6457 0.316599 11.964 0.46721 12.2482L9.4438 29.2651C9.60197 29.5645 9.83863 29.8151 10.1284 29.9899C10.4181 30.1646 10.7499 30.257 11.0881 30.257C11.4263 30.257 11.7581 30.1646 12.0478 29.9899C12.3375 29.8151 12.5742 29.5645 12.7324 29.2651L15.1707 24.668L18.2291 30.4673C18.4726 30.9294 18.8373 31.3162 19.2839 31.5863C19.7305 31.8563 20.2421 31.9993 20.7638 32C21.2854 32.0006 21.7974 31.8589 22.2447 31.59C22.6919 31.321 23.0576 30.9351 23.3023 30.4736L37.2869 4.11501C37.5138 3.68833 37.6265 3.21007 37.614 2.7268C37.6015 2.24353 37.4643 1.77174 37.2157 1.35737C36.9671 0.943 36.6156 0.600191 36.1954 0.362317C35.7752 0.124443 35.3007 -0.000387123 34.8181 9.0185e-07ZM22.286 11.2639L16.2564 22.6331C16.1511 22.8322 15.9936 22.9989 15.8008 23.1151C15.608 23.2313 15.3873 23.2927 15.1623 23.2927C14.9373 23.2927 14.7165 23.2313 14.5238 23.1151C14.331 22.9989 14.1735 22.8322 14.0682 22.6331L8.09642 11.3134C7.99646 11.1246 7.94688 10.9132 7.9525 10.6996C7.95812 10.486 8.01875 10.2775 8.12851 10.0943C8.23826 9.91106 8.39341 9.75935 8.57892 9.65387C8.76444 9.54839 8.97403 9.4927 9.18735 9.49221H21.2234C21.4313 9.49219 21.6356 9.54606 21.8165 9.64857C21.9975 9.75108 22.1488 9.89875 22.2559 10.0772C22.363 10.2557 22.4221 10.4588 22.4276 10.667C22.433 10.8751 22.3846 11.0811 22.287 11.265L22.286 11.2639Z" fill="white"/>
<path d="M64.4942 12.2278H61.4463V22.7043C61.4461 22.7997 61.4081 22.8911 61.3408 22.9585C61.2734 23.026 61.1822 23.064 61.0869 23.0643H58.7337C58.6385 23.064 58.5472 23.026 58.4798 22.9585C58.4125 22.8911 58.3745 22.7997 58.3742 22.7043V12.2278H55.3043C55.2581 12.2296 55.212 12.2222 55.1688 12.2058C55.1255 12.1895 55.0859 12.1647 55.0524 12.1328C55.0189 12.1009 54.9921 12.0626 54.9736 12.0202C54.9552 11.9777 54.9454 11.932 54.9448 11.8857V10.0329C54.9454 9.98661 54.9552 9.94087 54.9736 9.89843C54.9921 9.85598 55.0189 9.81769 55.0524 9.78579C55.0859 9.7539 55.1255 9.72906 55.1688 9.71274C55.212 9.69642 55.2581 9.68897 55.3043 9.6908H64.4974C64.5926 9.68649 64.6856 9.72002 64.7563 9.78409C64.827 9.84816 64.8695 9.93758 64.8747 10.0329V11.8867C64.8692 11.9824 64.8262 12.0721 64.7548 12.136C64.6835 12.2 64.5898 12.233 64.4942 12.2278Z" fill="white"/>
<path d="M74.2909 22.9885C73.0897 23.1597 71.8771 23.2379 70.6639 23.2222C68.3464 23.2222 66.298 22.6285 66.298 19.3535V13.3763C66.298 10.1013 68.3643 9.52548 70.6817 9.52548C71.889 9.50948 73.0958 9.5876 74.2909 9.75916C74.5421 9.79495 74.6503 9.8855 74.6503 10.1192V11.7951C74.65 11.8905 74.612 11.9819 74.5447 12.0494C74.4774 12.1168 74.3862 12.1548 74.2909 12.1551H70.5072C69.6664 12.1551 69.3574 12.4425 69.3574 13.3794V15.0174H74.1521C74.2474 15.0177 74.3387 15.0557 74.406 15.1232C74.4734 15.1906 74.5113 15.282 74.5116 15.3774V17.0828C74.5113 17.1782 74.4734 17.2696 74.406 17.3371C74.3387 17.4045 74.2474 17.4426 74.1521 17.4428H69.3574V19.3504C69.3574 20.2862 69.6622 20.5746 70.5072 20.5746H74.2909C74.3862 20.5749 74.4774 20.6129 74.5447 20.6804C74.612 20.7479 74.65 20.8393 74.6503 20.9347V22.6085C74.6503 22.8443 74.5421 22.9527 74.2909 22.9885Z" fill="white"/>
<path d="M87.847 23.0605H84.9946C84.8988 23.0679 84.8029 23.0461 84.7197 22.998C84.6364 22.95 84.5696 22.8778 84.528 22.791L82.0518 18.8529L79.8079 22.7047C79.6817 22.9205 79.5568 23.0647 79.3602 23.0647H76.7012C76.6678 23.0692 76.6339 23.0665 76.6016 23.0569C76.5694 23.0472 76.5394 23.0308 76.514 23.0087C76.4886 22.9866 76.4681 22.9593 76.454 22.9287C76.4398 22.8981 76.4324 22.8648 76.4321 22.831C76.4356 22.787 76.4477 22.744 76.4678 22.7047L80.3566 16.2043L76.4247 10.0312C76.4052 9.9992 76.3931 9.96328 76.389 9.92598C76.3954 9.85991 76.4269 9.79882 76.4769 9.75533C76.527 9.71184 76.5919 9.68926 76.6581 9.69227H79.5504C79.748 9.69227 79.892 9.87229 79.9981 10.0344L82.2967 13.6694L84.5217 10.0344C84.5614 9.94417 84.6233 9.86546 84.7016 9.80564C84.7799 9.74582 84.8719 9.70681 84.9693 9.69227H87.6284C87.6717 9.68317 87.7168 9.68715 87.7578 9.70371C87.7989 9.72026 87.8342 9.74862 87.8592 9.78524C87.8842 9.82186 87.8977 9.86509 87.8982 9.90944C87.8987 9.95379 87.886 9.99728 87.8618 10.0344L83.9489 16.2453L88.0298 22.7079C88.0617 22.7628 88.0802 22.8245 88.0835 22.8879C88.0803 22.9889 87.991 23.0605 87.847 23.0605Z" fill="white"/>
<path d="M50.6343 9.72575C50.5702 9.726 50.5081 9.74845 50.4587 9.78933C50.4093 9.83021 50.3755 9.88696 50.3631 9.94996L47.7556 19.618C47.7199 19.8159 47.6662 19.8875 47.5044 19.8875C47.3425 19.8875 47.2889 19.8127 47.2532 19.618L44.6426 9.94787C44.6302 9.88488 44.5963 9.82812 44.5469 9.78724C44.4975 9.74637 44.4355 9.72388 44.3714 9.72363H41.8048C41.7631 9.72365 41.7218 9.73311 41.6842 9.75133C41.6466 9.76954 41.6135 9.79605 41.5876 9.82885C41.5616 9.86164 41.5433 9.89987 41.5342 9.94071C41.5251 9.98155 41.5252 10.024 41.5347 10.0647C41.5347 10.0647 44.7203 21.1528 44.755 21.2612C44.9255 21.854 45.2929 22.3708 45.7965 22.7259C46.3001 23.081 46.9097 23.2532 47.5244 23.214C48.1353 23.2381 48.7371 23.0605 49.2373 22.7084C49.7375 22.3563 50.1084 21.8493 50.2927 21.2654C50.3432 21.116 53.4583 10.0647 53.4583 10.0647C53.4677 10.024 53.4677 9.98174 53.4585 9.94103C53.4492 9.90032 53.4309 9.86222 53.405 9.82955C53.379 9.79689 53.3461 9.77051 53.3086 9.75235C53.271 9.7342 53.2299 9.72474 53.1882 9.72469L50.6343 9.72575Z" fill="white"/>
<path d="M34.8181 9.0185e-07H6.91825C6.42354 -1.40671e-05 5.93723 0.128094 5.50654 0.371874C5.07585 0.615655 4.7154 0.966829 4.46019 1.39131C4.20499 1.81579 4.06369 2.29916 4.05002 2.79447C4.03635 3.28979 4.15077 3.78023 4.38217 4.21818L7.17258 9.51117H2.11307C1.79189 9.51068 1.47605 9.5935 1.1963 9.75155C0.916553 9.9096 0.68243 10.1375 0.516717 10.4131C0.351003 10.6887 0.259356 11.0025 0.250679 11.3241C0.242002 11.6457 0.316599 11.964 0.46721 12.2482L9.4438 29.2651C9.60197 29.5645 9.83863 29.8151 10.1284 29.9899C10.4181 30.1646 10.7499 30.257 11.0881 30.257C11.4263 30.257 11.7581 30.1646 12.0478 29.9899C12.3375 29.8151 12.5742 29.5645 12.7324 29.2651L15.1707 24.668L18.2291 30.4673C18.4726 30.9294 18.8373 31.3162 19.2839 31.5863C19.7305 31.8563 20.2421 31.9993 20.7638 32C21.2854 32.0006 21.7974 31.8589 22.2447 31.59C22.6919 31.321 23.0576 30.9351 23.3023 30.4736L37.2869 4.11501C37.5138 3.68833 37.6265 3.21007 37.614 2.7268C37.6015 2.24353 37.4643 1.77174 37.2157 1.35737C36.9671 0.943 36.6156 0.600191 36.1954 0.362317C35.7752 0.124443 35.3007 -0.000387123 34.8181 9.0185e-07ZM22.286 11.2639L16.2564 22.6331C16.1511 22.8322 15.9936 22.9989 15.8008 23.1151C15.608 23.2313 15.3873 23.2927 15.1623 23.2927C14.9373 23.2927 14.7165 23.2313 14.5238 23.1151C14.331 22.9989 14.1735 22.8322 14.0682 22.6331L8.09642 11.3134C7.99646 11.1246 7.94688 10.9132 7.9525 10.6996C7.95812 10.486 8.01875 10.2775 8.12851 10.0943C8.23826 9.91106 8.39341 9.75935 8.57892 9.65387C8.76444 9.54839 8.97403 9.4927 9.18735 9.49221H21.2234C21.4313 9.49219 21.6356 9.54606 21.8165 9.64857C21.9975 9.75108 22.1488 9.89875 22.2559 10.0772C22.363 10.2557 22.4221 10.4588 22.4276 10.667C22.433 10.8751 22.3846 11.0811 22.287 11.265L22.286 11.2639Z" fill="white"/>
</svg>
