<svg width="23" height="22" viewBox="0 0 23 22" fill="none" xmlns="http://www.w3.org/2000/svg">
<g clip-path="url(#clip0_1_1490)">
<path d="M22.5127 5.43497L22.5402 5.61464C22.2742 4.67139 21.5558 3.94355 20.6429 3.67864L20.6236 3.67405C18.907 3.20839 11.9991 3.20839 11.9991 3.20839C11.9991 3.20839 5.10874 3.19922 3.37467 3.67405C2.44433 3.94355 1.72501 4.67139 1.46353 5.59539L1.45894 5.61464C0.817609 8.96139 0.813022 12.9828 1.48738 16.5661L1.45894 16.3846C1.72501 17.3278 2.44341 18.0556 3.35632 18.3206L3.37559 18.3251C5.09039 18.7917 12.0001 18.7917 12.0001 18.7917C12.0001 18.7917 18.8895 18.7917 20.6245 18.3251C21.5558 18.0556 22.2751 17.3278 22.5366 16.4038L22.5412 16.3846C22.8329 14.8281 22.9999 13.0369 22.9999 11.2072C22.9999 11.1403 22.9999 11.0725 22.999 11.0046C22.9999 10.9423 22.9999 10.8681 22.9999 10.7938C22.9999 8.96322 22.8329 7.17205 22.5127 5.43497ZM9.79531 14.3468V7.66155L15.5443 11.0092L9.79531 14.3468Z" fill="white"/>
</g>
<defs>
<clipPath id="clip0_1_1490">
<rect width="22.0199" height="22" fill="white" transform="translate(0.97998)"/>
</clipPath>
</defs>
</svg>
